<?xml version="1.0" encoding="utf-8"?>
<!-- Generator: Adobe Illustrator 27.5.0, SVG Export Plug-In . SVG Version: 6.00 Build 0)  -->
<svg version="1.1" xmlns="http://www.w3.org/2000/svg" xmlns:xlink="http://www.w3.org/1999/xlink" x="0px" y="0px"
	 viewBox="0 0 500 500" style="enable-background:new 0 0 500 500;" xml:space="preserve">
<g id="BACKGROUND">
	<path style="fill:#FDEDEE;" d="M63.16,424.604h396.288c0,0,61.965-348.591-90.786-374.464
		c-152.751-25.872-99.432,99.403-252.183,132.083C-36.272,214.905,63.16,424.604,63.16,424.604z"/>
</g>
<g id="OBJECTS">
	<g>
		<g>
			<g>
				<g>
					<g>
						<path style="fill:#6F96BD;" d="M361.426,225.181c0,0,57.907,19.379,70.761,31.525
							c12.854,12.146-35.662,153.029-35.662,153.029l-191.188,4.207l-28.425-23.686c0,0,4.319-76.186,8.377-115.918
							c0,0,46.273-40.337,81.473-43.822C301.961,227.03,361.426,225.181,361.426,225.181z"/>
						<path style="fill:#5486AF;" d="M406.304,308.201c-22.856,18.488-47.855,34.284-74.545,46.641
							c-27.156,12.572-56.474,24.065-86.451,27.004c-22.628,2.218-45.266,1.129-67.907,0.04c-0.314,5.27-0.489,8.369-0.489,8.369
							l28.425,23.686l191.188-4.207c0,0,27.574-80.075,35.637-124.69C424.101,294.009,414.231,301.789,406.304,308.201z"/>
					</g>
					<path style="fill:#84ADCE;" d="M210.538,342.842c0,0-29.352,12.413-34.984,34.55c-5.632,22.137,11.755,54.992,45.397,46.403
						C254.593,415.206,210.538,342.842,210.538,342.842z"/>
				</g>
				<g>
					<polygon style="fill:#F19C7C;" points="275.827,245.602 255.385,266.009 297.188,261.615 314.494,291.158 317.116,267.931 
						349.271,251.539 345.301,222.066 					"/>
					<g>
						<g>
							<path style="fill:#352C38;" d="M281.934,270.741c0,0,19.636,24.136,32.457,24.465c12.82,0.329,29.344-38.408,29.344-38.408
								l3.91,5.502c0,0-13.911,42.18-31.697,51.176c-17.786,8.996-36.833-38.081-36.833-38.081L281.934,270.741z"/>
							<path style="fill:#352C38;" d="M302.988,318.545c0,0-1.435-22.993,3.288-22.872c4.723,0.121,14.966-4.342,14.966-4.342
								l6.159,23.115l-4.879,5.951l11.312,111.697l-41.713-5.797l16.768-100.849L302.988,318.545z"/>
						</g>
						<g>
							<path style="fill:#84ADCE;" d="M347.023,220.76c0,0-1.688,26.289-29.907,47.171l14.437,29.404c0,0,30.979-36.34,32.97-74.438
								L347.023,220.76z"/>
							<path style="fill:#84ADCE;" d="M252.823,227.684c0,0,10.668,24.086,44.365,33.93l-3.387,32.582
								c0,0-41.629-23.396-56.662-58.459L252.823,227.684z"/>
						</g>
					</g>
				</g>
			</g>
			<g>
				<g>
					<g>
						<g>
							<path style="fill:#FFAC9D;" d="M278.84,119.419c0,0,34.847-7.883,52.289,25.649c17.442,33.532,20.634,61.972,20.634,61.972
								s-6.884,38.985-22.064,44.672c-15.181,5.687-50.049,5.917-70.429-40.519C238.891,164.756,231.974,137.121,278.84,119.419z"/>
							<path style="fill:#FFAC9D;" d="M333.339,162.004c0,0,1.125-17.526,13.841-13.149c12.716,4.378,7.023,42.042-1.074,41.835
								C338.009,190.482,333.339,162.004,333.339,162.004z"/>
						</g>
						<path style="opacity:0.4;fill:#765E69;" d="M336.464,174.913l7.146,27.191l-5.128,13.035l-13.716-13.181l-36.104,18.654
							l1.776,15.688l-11.673,0.601l-11.284-10.47c20.538,31.055,48.925,30.261,62.217,25.281
							c15.181-5.687,22.064-44.672,22.064-44.672s-1.83-16.26-10.257-38.681L336.464,174.913z"/>
					</g>
					<g>
						<g>
							<g>
								<path style="fill:#352C38;" d="M348.713,149.472c0,0,0.115-0.075,0.331-0.216c0.206-0.124,0.509-0.306,0.894-0.538
									c0.761-0.454,1.874-1.026,3.233-1.641c0.681-0.304,1.43-0.609,2.239-0.885c0.803-0.288,1.68-0.517,2.581-0.748
									c0.914-0.194,1.859-0.382,2.843-0.435c0.978-0.071,1.98-0.059,2.965,0.086c0.988,0.098,1.952,0.375,2.861,0.698
									c0.895,0.373,1.749,0.795,2.479,1.34l0.548,0.392c0.168,0.145,0.335,0.288,0.5,0.43c0.341,0.269,0.642,0.566,0.922,0.868
									c0.591,0.571,1.045,1.204,1.474,1.766c0.39,0.595,0.776,1.116,1.047,1.624c0.287,0.497,0.548,0.924,0.714,1.302
									c0.367,0.736,0.576,1.157,0.576,1.157s-0.224-0.413-0.615-1.135c-0.186-0.366-0.469-0.778-0.781-1.256
									c-0.294-0.49-0.706-0.988-1.144-1.533c-0.47-0.516-0.964-1.094-1.583-1.596c-0.295-0.267-0.607-0.527-0.955-0.756
									c-0.329-0.253-0.691-0.472-1.074-0.666c-0.741-0.429-1.577-0.72-2.422-0.962c-0.862-0.192-1.744-0.341-2.637-0.318
									c-0.889,0.003-1.773,0.127-2.624,0.32c-0.854,0.175-1.67,0.473-2.447,0.764c-1.547,0.632-2.894,1.443-3.995,2.2
									c-1.102,0.758-1.944,1.496-2.51,2.011c-0.283,0.258-0.492,0.473-0.628,0.613c-0.126,0.136-0.193,0.209-0.193,0.209
									L348.713,149.472z"/>
							</g>
							<g>
								<path style="fill:#352C38;" d="M213.38,161.992c0,0,0.982,0.745,2.893,1.694c0.958,0.467,2.15,0.973,3.555,1.432
									c1.405,0.46,3.034,0.826,4.822,1.096c1.79,0.274,3.759,0.34,5.82,0.195c2.065-0.12,4.216-0.531,6.387-1.129
									c2.185-0.562,4.341-1.484,6.481-2.498c2.105-1.094,4.202-2.299,6.153-3.729l1.488-1.035l1.424-1.119l1.418-1.117l1.346-1.19
									c0.901-0.783,1.785-1.572,2.604-2.411c0.823-0.834,1.689-1.605,2.44-2.464c0.775-0.836,1.522-1.671,2.281-2.465
									c0.718-0.832,1.42-1.645,2.103-2.437c1.397-1.562,2.556-3.173,3.706-4.596c1.122-1.445,2.081-2.824,2.983-4.01
									c0.906-1.184,1.609-2.276,2.221-3.154c1.224-1.758,1.924-2.763,1.924-2.763s-0.619,1.057-1.703,2.905
									c-0.557,0.916-1.194,2.054-2.026,3.295c-0.825,1.245-1.701,2.691-2.786,4.178c-1.102,1.474-2.207,3.141-3.556,4.769
									c-0.66,0.826-1.338,1.674-2.03,2.541c-0.725,0.841-1.495,1.676-2.262,2.538c-0.75,0.879-1.62,1.674-2.444,2.53
									c-0.821,0.862-1.709,1.676-2.617,2.485l-1.356,1.229l-1.433,1.159l-1.442,1.161l-1.513,1.077
									c-2.017,1.438-4.19,2.654-6.372,3.752c-2.22,1.019-4.457,1.941-6.729,2.497c-1.117,0.338-2.259,0.51-3.363,0.708
									c-1.118,0.122-2.208,0.264-3.28,0.272c-2.136,0.069-4.162-0.076-5.99-0.427c-3.678-0.645-6.512-1.999-8.38-3.045
									C214.286,162.831,213.38,161.992,213.38,161.992z"/>
							</g>
							<g>
								<path style="fill:#352C38;" d="M268.715,93.051c0,0,1.71-1.079,4.846-2.716c1.572-0.81,3.497-1.767,5.761-2.753
									c2.268-0.971,4.872-1.998,7.85-2.724c2.944-0.681,6.487-1.186,9.836,0.511c3.282,1.464,6.15,4.051,8.43,7.165
									c2.313,3.102,3.924,6.885,4.606,10.908c0.044,0.251,0.097,0.502,0.133,0.755l0.058,0.766l0.113,1.538
									c0.013,0.514-0.031,1.03-0.044,1.546c-0.04,0.515,0.002,1.038-0.109,1.547c-0.171,1.01-0.306,2.085-0.528,3.026
									c-0.047,0.238-0.094,0.486-0.12,0.696c-0.008,0.043-0.008,0.118-0.009,0.068c-0.164-0.024,0.404-0.063-0.633-0.585
									c-0.73,0.176-0.51,0.344-0.572,0.305c-0.02,0.035-0.007,0.016-0.003-0.002c0.028-0.077,0.065-0.193,0.096-0.305
									c0.128-0.456,0.238-0.944,0.34-1.427c0.82-3.89,1.229-7.899,1.19-11.817c-0.056-3.909-0.581-7.79-1.998-11.193
									c-1.385-3.401-3.842-6.197-6.911-7.585c-3.056-1.42-6.382-1.614-9.343-1.397c-2.983,0.232-5.687,0.85-8.044,1.501
									c-2.359,0.661-4.373,1.395-6.019,2.026c-1.643,0.641-2.922,1.179-3.792,1.553c-0.866,0.382-1.327,0.586-1.327,0.586
									s0.451-0.227,1.297-0.652c0.852-0.412,2.096-1.033,3.723-1.729c1.626-0.695,3.62-1.508,5.974-2.264
									c2.351-0.75,5.067-1.484,8.124-1.777c3.03-0.289,6.496-0.189,9.815,1.257c1.644,0.723,3.202,1.798,4.499,3.182
									c1.304,1.379,2.32,3.055,3.083,4.843c1.527,3.598,2.089,7.612,2.179,11.628c0.068,4.029-0.311,8.105-1.131,12.12
									c-0.111,0.503-0.226,1.001-0.374,1.515c-0.038,0.131-0.076,0.256-0.136,0.415c-0.017,0.042-0.03,0.081-0.078,0.172
									c-0.077-0.012,0.129,0.185-0.63,0.377c-1.063-0.541-0.49-0.617-0.659-0.671c-0.003-0.176,0.01-0.227,0.019-0.309
									c0.039-0.291,0.09-0.538,0.142-0.794c0.247-1.021,0.358-1.95,0.534-2.92c0.111-0.477,0.071-0.97,0.113-1.454
									c0.016-0.486,0.063-0.971,0.054-1.456l-0.097-1.451l-0.047-0.724c-0.032-0.239-0.082-0.477-0.122-0.715
									c-0.617-3.809-2.12-7.438-4.312-10.42c-2.171-2.976-4.843-5.522-7.893-6.959c-0.747-0.418-1.52-0.597-2.271-0.874
									c-0.415-0.073-0.827-0.145-1.236-0.217l-0.306-0.054c-0.031-0.015-0.18-0.007-0.264-0.012l-0.594-0.012
									c-1.579-0.059-3.124,0.223-4.587,0.506c-2.922,0.658-5.54,1.572-7.828,2.448c-2.284,0.894-4.238,1.775-5.835,2.525
									C270.485,92.075,268.715,93.051,268.715,93.051z"/>
							</g>
							<g>
								<path style="fill:#352C38;" d="M331.011,86.098c0,0-0.162-0.024-0.466-0.032c-0.302-0.026-0.749,0.001-1.312,0.015
									c-0.563,0.056-1.245,0.109-2.009,0.288c-0.191,0.038-0.389,0.078-0.592,0.118c-0.198,0.062-0.402,0.125-0.611,0.19
									c-0.412,0.147-0.87,0.219-1.303,0.431c-0.439,0.188-0.896,0.383-1.369,0.586c-0.453,0.243-0.906,0.524-1.378,0.795
									c-0.486,0.248-0.918,0.611-1.37,0.961c-0.433,0.374-0.955,0.652-1.353,1.101c-0.423,0.416-0.852,0.84-1.287,1.268
									c-0.454,0.408-0.781,0.951-1.182,1.425c-0.37,0.502-0.804,0.96-1.129,1.505l-0.983,1.63
									c-0.72,1.046-1.174,2.254-1.728,3.375c-0.579,1.111-0.949,2.3-1.364,3.423c-0.207,0.562-0.41,1.115-0.609,1.656
									c-0.203,0.54-0.32,1.097-0.479,1.624c-0.291,1.063-0.578,2.065-0.858,2.988c-0.291,0.92-0.408,1.803-0.591,2.566
									c-0.15,0.77-0.334,1.432-0.516,1.974c-0.374,1.081-0.777,1.678-0.777,1.678s-0.168-0.68-0.13-1.833
									c0.024-0.575,0.09-1.27,0.226-2.056c0.145-0.784,0.218-1.687,0.464-2.64c0.224-0.958,0.482-1.994,0.768-3.087
									c0.152-0.544,0.261-1.116,0.457-1.677c0.205-0.559,0.414-1.13,0.626-1.71c0.446-1.153,0.82-2.378,1.463-3.521
									c0.609-1.153,1.111-2.38,1.898-3.462l1.1-1.655c0.363-0.551,0.841-1.021,1.252-1.528c0.444-0.481,0.807-1.025,1.305-1.438
									c0.477-0.431,0.948-0.856,1.411-1.274c0.223-0.219,0.466-0.409,0.727-0.574c0.254-0.172,0.505-0.343,0.754-0.512
									c0.499-0.334,0.974-0.678,1.503-0.907c0.514-0.251,1.005-0.51,1.492-0.729c0.506-0.177,0.994-0.348,1.464-0.512
									c0.461-0.184,0.942-0.238,1.378-0.347c0.22-0.047,0.435-0.092,0.643-0.136c0.212-0.023,0.418-0.045,0.618-0.066
									c0.795-0.11,1.494-0.101,2.066-0.105C330.378,85.941,331.011,86.098,331.011,86.098z"/>
							</g>
							<g>
								<path style="fill:#352C38;" d="M202.385,141.514c0,0,0.369,0.92,1.137,2.463c0.768,1.541,1.97,3.693,3.65,6.091
									c0.822,1.211,1.82,2.442,2.914,3.696c1.116,1.237,2.379,2.449,3.749,3.613c1.403,1.12,2.908,2.207,4.564,3.076
									c1.647,0.873,3.394,1.627,5.226,2.081c1.807,0.545,3.693,0.75,5.543,0.882c0.931-0.024,1.854,0.03,2.766-0.032
									c0.91-0.099,1.816-0.106,2.695-0.272c0.878-0.163,1.749-0.273,2.589-0.469c0.839-0.204,1.66-0.404,2.46-0.598
									c1.566-0.524,3.072-0.951,4.398-1.544c0.671-0.274,1.314-0.536,1.926-0.785c0.601-0.28,1.171-0.546,1.707-0.795
									c0.537-0.25,1.039-0.484,1.504-0.7c0.452-0.243,0.867-0.467,1.242-0.669c1.51-0.797,2.373-1.252,2.373-1.252l0.881,1.433
									c0,0-0.847,0.532-2.329,1.462c-0.374,0.228-0.788,0.48-1.239,0.755c-0.467,0.249-0.972,0.519-1.511,0.807
									c-0.541,0.288-1.116,0.594-1.722,0.918c-0.62,0.298-1.293,0.569-1.985,0.875c-1.368,0.647-2.943,1.139-4.583,1.725
									c-0.844,0.226-1.712,0.458-2.599,0.696c-0.888,0.239-1.832,0.337-2.772,0.515c-0.942,0.174-1.928,0.188-2.911,0.289
									c-0.987,0.071-1.997,0.008-3.008,0.005c-2.019-0.177-4.079-0.443-6.049-1.076c-1.985-0.57-3.864-1.457-5.61-2.465
									c-1.763-0.996-3.296-2.268-4.723-3.524c-1.4-1.294-2.611-2.677-3.672-4.044c-1.037-1.385-1.964-2.728-2.711-4.03
									c-0.775-1.285-1.384-2.517-1.881-3.625c-0.51-1.101-0.888-2.089-1.197-2.9C202.61,142.48,202.385,141.514,202.385,141.514z"
									/>
							</g>
							<g>
								<path style="fill:#352C38;" d="M213.163,134.118c0,0,0.028,0.573,0.169,1.563c0.148,0.988,0.38,2.401,0.859,4.043
									c0.466,1.643,1.148,3.521,2.091,5.418c0.47,0.949,1.006,1.902,1.613,2.825c0.594,0.932,1.279,1.82,1.997,2.671
									c0.738,0.836,1.527,1.619,2.357,2.322c0.831,0.7,1.683,1.344,2.559,1.883c0.433,0.276,0.86,0.543,1.303,0.764
									c0.435,0.232,0.854,0.468,1.289,0.648c0.844,0.408,1.682,0.7,2.445,0.983c0.786,0.229,1.491,0.469,2.146,0.591
									c0.653,0.126,1.205,0.281,1.683,0.331c0.941,0.136,1.478,0.215,1.478,0.215l-0.591,3.278c0,0-0.582-0.16-1.6-0.441
									c-0.511-0.122-1.111-0.368-1.806-0.598c-0.696-0.228-1.451-0.589-2.284-0.924c-0.813-0.397-1.695-0.814-2.576-1.357
									c-0.453-0.247-0.888-0.552-1.336-0.854c-0.455-0.291-0.892-0.63-1.332-0.978c-0.888-0.683-1.736-1.473-2.547-2.313
									c-0.809-0.843-1.558-1.761-2.244-2.716c-2.799-3.812-4.325-8.291-4.984-11.666
									C213.15,136.422,213.163,134.118,213.163,134.118z"/>
							</g>
						</g>
						<path style="fill:#352C38;" d="M347.18,148.856c0,0-10.934-3.657-10.842,10.3l7.647,17.751l-5.952,3.898l-15.27-36.402
							l-8.028-2.907l-9.619-11.05c0,0,0.726,24.326-23.738,30.45c0,0,17.751-7.647,16.91-27.474c0,0,0.588,12.169-17.625,20.253
							c0,0,3.864-10.254,4.568-20.138c0,0-6.714,33.587-26.161,37.139c0,0,15.571-10.403,20.267-35.49
							c0,0-9.886,34.406-52.701,36.458c0,0,38.501-9.365,43.531-29.941c0,0-22.954,34.971-45.007,17.3l6.747,0.173
							c0,0-21.396-8.201-10.403-33.127l3.206,15.387c0,0,0.831-14.833,17.602-19.354c0,0-4.176,4.844-3.357,8.016
							c0,0,10.381-1.084,7.129-14.671c0,0,5.848,0.15,5.721,5.098c0,0,10.404-19.539-9.607-29.055c0,0,21.5,4.153,13.275,26.448
							c0,0,8.928-14.625-1.153-25.237c0,0,19.146,8.144,4.29,25.767c0,0,17.06-33.322,33.635-30.195
							c16.574,3.126,17.554,17.555,17.554,17.555s4.355-17.74,19.263-13.91c33.091,8.502,16.689,51.293,16.689,51.293
							s2.711-17.936,22.965-17.866c0,0-17.659,4.048-19.401,19.308c0,0,7.844-25.006,29.113-11.856c0,0-21.788-10.462-26.587,18.673
							L347.18,148.856z"/>
					</g>
				</g>
				<g>
					<g>
						<path style="fill:#352C38;" d="M289.173,159.975c0,0,0.138,0.097,0.387,0.246c0.232,0.154,0.624,0.349,1.078,0.578
							c0.229,0.108,0.482,0.227,0.758,0.356c0.276,0.112,0.575,0.232,0.894,0.361c0.313,0.123,0.664,0.228,1.012,0.346
							c0.341,0.127,0.715,0.234,1.11,0.325c0.748,0.24,1.614,0.366,2.463,0.562c0.441,0.062,0.894,0.126,1.357,0.191
							c0.229,0.032,0.458,0.065,0.685,0.111c0.239,0.018,0.48,0.035,0.723,0.053c0.486,0.029,0.969,0.087,1.455,0.147
							c0.503,0.012,1.014,0.014,1.522,0.051c1.006,0.086,2.071,0.043,3.122,0.052c1.045,0.088,2.131-0.077,3.189-0.047
							c1.058,0.018,2.122-0.084,3.158-0.109c1.036-0.028,2.055-0.013,3.026-0.089c0.974-0.04,1.91-0.048,2.787-0.033
							c0.882,0.04,1.682-0.029,2.414-0.001c0.729,0.012,1.376,0.04,1.918,0.081c1.084,0.084,1.734,0.19,1.734,0.19
							s-0.465,0.439-1.332,1.105c-0.434,0.332-0.972,0.713-1.602,1.131c-0.636,0.4-1.341,0.898-2.17,1.285
							c-0.825,0.402-1.733,0.813-2.709,1.216c-0.968,0.427-2.037,0.747-3.16,1.032c-1.123,0.282-2.277,0.619-3.514,0.716
							c-1.229,0.136-2.46,0.321-3.744,0.27c-1.275-0.048-2.543-0.034-3.807-0.298c-0.63-0.095-1.251-0.205-1.86-0.339
							c-0.611-0.175-1.213-0.35-1.794-0.551c-0.29-0.097-0.578-0.193-0.863-0.288c-0.282-0.12-0.557-0.251-0.828-0.382
							c-0.538-0.269-1.07-0.492-1.56-0.784c-0.974-0.625-1.865-1.211-2.59-1.919c-0.75-0.643-1.323-1.39-1.797-2.024
							c-0.454-0.672-0.789-1.279-1.003-1.816c-0.226-0.526-0.328-0.966-0.396-1.266
							C289.173,160.135,289.173,159.975,289.173,159.975z"/>
					</g>
					<g>
						<path style="fill:#352C38;" d="M273.831,165.541c0,0,0.098,0.106,0.234,0.361c0.119,0.25,0.318,0.633,0.445,1.143
							c0.086,0.26,0.132,0.543,0.181,0.857c0.059,0.318,0.095,0.665,0.103,1.027c0.048,0.744-0.019,1.556-0.136,2.456
							c-0.169,0.857-0.353,1.84-0.71,2.766c-0.162,0.475-0.352,0.961-0.554,1.447c-0.211,0.475-0.463,0.941-0.707,1.426
							c-0.126,0.24-0.244,0.489-0.38,0.728l-0.441,0.686c-0.294,0.463-0.598,0.929-0.924,1.384
							c-0.649,0.907-1.383,1.746-2.122,2.593c-0.764,0.81-1.579,1.558-2.393,2.285c-0.394,0.379-0.825,0.699-1.252,1.014
							c-0.425,0.318-0.839,0.637-1.267,0.925c-0.428,0.288-0.829,0.594-1.255,0.851c-0.433,0.245-0.844,0.497-1.264,0.717
							c-0.831,0.451-1.633,0.849-2.384,1.194c-1.526,0.657-2.886,1.051-3.85,1.299c-0.972,0.238-1.559,0.316-1.559,0.316
							s0.255-0.549,0.756-1.41c0.251-0.43,0.569-0.93,0.943-1.484c0.37-0.558,0.823-1.14,1.289-1.795
							c0.468-0.652,0.987-1.334,1.553-2.026c0.579-0.679,1.178-1.396,1.787-2.13c0.611-0.732,1.293-1.44,1.946-2.172
							c0.635-0.748,1.332-1.461,2.007-2.178c0.638-0.738,1.345-1.431,1.998-2.13c0.603-0.723,1.329-1.372,1.899-2.055
							c0.306-0.332,0.593-0.67,0.911-0.981c0.298-0.318,0.544-0.652,0.836-0.957c0.294-0.305,0.554-0.616,0.796-0.916
							c0.256-0.303,0.503-0.596,0.74-0.877c0.441-0.574,0.883-1.114,1.223-1.619c0.366-0.502,0.654-0.969,0.887-1.37
							c0.232-0.403,0.412-0.745,0.513-0.986C273.782,165.693,273.831,165.541,273.831,165.541z"/>
					</g>
					<path style="fill:#352C38;" d="M279.069,189.094c1.362,4.411,1.276,8.355-0.191,8.807c-1.467,0.453-3.76-2.756-5.122-7.167
						c-1.362-4.411-1.276-8.355,0.191-8.807C275.414,181.474,277.707,184.683,279.069,189.094z"/>
					<path style="fill:#352C38;" d="M312.746,179.155c1.362,4.411,1.276,8.355-0.191,8.807c-1.467,0.453-3.76-2.756-5.122-7.167
						s-1.276-8.355,0.191-8.807C309.091,171.535,311.384,174.744,312.746,179.155z"/>
					<g>
						<path style="fill:#FC6A5A;" d="M278.511,167.349c1.21,1.766,2.313,3.606,3.334,5.489c1.037,1.876,1.978,3.804,2.874,5.756
							c0.453,0.974,0.865,1.966,1.271,2.962c0.412,0.993,0.795,1.999,1.176,3.007c0.367,1.013,0.709,2.035,1.036,3.063
							c0.323,1.029,0.642,2.061,0.924,3.106c0.301,1.039,0.529,2.099,0.77,3.155c0.216,1.063,0.447,2.123,0.61,3.199
							c0.189,1.07,0.328,2.153,0.443,3.237c0.082,1.09,0.184,2.177,0.199,3.274c0.053,1.093,0.014,2.194-0.016,3.292
							c-0.069,1.1-0.174,2.197-0.348,3.289c-0.063,0.548-0.185,1.09-0.296,1.632c-0.108,0.543-0.217,1.085-0.379,1.618
							c-0.258,1.08-0.675,2.117-1.067,3.154l-1.244-1.389c1.402-0.303,2.799-0.626,4.205-0.911l4.219-0.86
							c2.821-0.538,5.641-1.082,8.491-1.511c-2.701,1.005-5.432,1.893-8.161,2.788l-4.108,1.289
							c-1.369,0.432-2.748,0.824-4.121,1.238l-1.831,0.552l0.587-1.941c0.296-0.978,0.576-1.953,0.782-2.954
							c0.128-0.493,0.205-0.999,0.282-1.504c0.079-0.505,0.171-1.006,0.205-1.52c0.043-0.511,0.108-1.018,0.134-1.531l0.063-1.54
							c0.011-1.029,0.034-2.059-0.032-3.092c-0.028-1.032-0.142-2.065-0.234-3.096c-0.14-1.029-0.235-2.063-0.406-3.092
							c-0.14-1.031-0.349-2.056-0.541-3.082c-0.209-1.024-0.443-2.043-0.679-3.064c-0.228-1.023-0.492-2.039-0.762-3.053
							c-0.27-1.015-0.569-2.023-0.869-3.032c-0.586-2.023-1.253-4.025-1.941-6.025c-0.68-2.003-1.428-3.985-2.181-5.971
							C280.125,171.299,279.353,169.314,278.511,167.349z"/>
					</g>
					<g>
						<path style="fill:#FC6A5A;" d="M307.421,185.308c0,0,0.245,0.385,0.689,1.041c0.434,0.661,1.106,1.571,1.945,2.616
							c0.849,1.034,1.883,2.206,3.148,3.228c1.256,1.007,2.797,1.865,4.399,1.883c0.792,0.023,1.591-0.134,2.315-0.503l0.606-0.274
							c0.171-0.1,0.311-0.209,0.47-0.309c0.328-0.174,0.589-0.458,0.859-0.719c0.269-0.262,0.442-0.593,0.649-0.889
							c0.142-0.334,0.335-0.644,0.402-0.997c0.221-0.677,0.245-1.382,0.263-2.028c-0.022-0.65-0.08-1.255-0.17-1.79
							c-0.094-0.534-0.205-0.998-0.313-1.376c-0.212-0.759-0.374-1.187-0.374-1.187s0.269,0.371,0.62,1.094
							c0.173,0.362,0.365,0.811,0.554,1.344c0.188,0.533,0.358,1.154,0.456,1.857c0.07,0.702,0.14,1.494-0.056,2.324
							c-0.049,0.423-0.236,0.828-0.385,1.255c-0.083,0.211-0.222,0.398-0.338,0.6c-0.125,0.196-0.234,0.41-0.407,0.572
							c-0.318,0.35-0.632,0.717-1.064,0.99c-0.203,0.144-0.412,0.303-0.618,0.432l-0.601,0.285c-0.858,0.452-1.884,0.69-2.898,0.671
							c-1.018-0.031-2.001-0.323-2.863-0.747c-0.87-0.421-1.612-0.995-2.273-1.582c-1.314-1.193-2.275-2.516-3.007-3.683
							c-0.739-1.166-1.209-2.215-1.545-2.937C307.559,185.744,307.421,185.308,307.421,185.308z"/>
					</g>
					<g>
						<path style="fill:#FC6A5A;" d="M281.849,195.117c0,0,0.157,0.379,0.378,1.059c0.208,0.683,0.529,1.657,0.803,2.855
							c0.279,1.197,0.546,2.611,0.672,4.162c0.056,0.775,0.105,1.586,0.042,2.423c-0.062,0.835-0.176,1.704-0.558,2.581
							c-0.188,0.431-0.487,0.872-0.921,1.207c-0.424,0.352-1.008,0.517-1.511,0.508c-0.143-0.005-0.221,0.007-0.415-0.016
							l-0.293-0.05l-0.58-0.111c-0.414-0.139-0.863-0.243-1.224-0.428c-0.763-0.313-1.406-0.778-1.977-1.237
							c-0.563-0.471-1.036-0.973-1.425-1.468c-0.79-0.981-1.251-1.918-1.564-2.562c-0.3-0.655-0.407-1.052-0.407-1.052
							s0.217,0.349,0.634,0.92c0.407,0.577,1.06,1.35,1.909,2.171c0.426,0.409,0.922,0.808,1.462,1.188
							c0.553,0.361,1.155,0.703,1.815,0.938c0.327,0.145,0.647,0.184,0.976,0.288l0.586,0.076l0.294,0.044
							c0,0,0.125-0.006,0.181-0.006c0.574,0.006,0.954-0.346,1.233-0.973c0.285-0.608,0.421-1.37,0.486-2.121
							c0.062-0.756,0.091-1.52,0.072-2.263c-0.027-1.488-0.145-2.891-0.25-4.097c-0.12-1.204-0.202-2.218-0.296-2.923
							C281.894,195.523,281.849,195.117,281.849,195.117z"/>
					</g>
					<g>
						<path style="fill:#FC6A5A;" d="M350.034,182.351c0.26-0.968,0.465-1.948,0.627-2.927c0.143-0.979,0.242-1.975,0.143-2.926
							c-0.048-0.471-0.14-0.935-0.333-1.315c-0.091-0.193-0.22-0.347-0.355-0.478c-0.145-0.12-0.307-0.207-0.491-0.257
							c-0.753-0.192-1.709,0.143-2.552,0.535l-0.4,0.186l-0.257-0.384c-0.845-1.262-1.613-2.552-2.361-3.864
							c-0.75-1.309-1.45-2.648-2.091-4.022c-0.643-1.371-1.245-2.771-1.706-4.237c-0.232-0.732-0.44-1.477-0.582-2.25
							c-0.138-0.772-0.253-1.564-0.176-2.402c0.072-0.814,0.321-1.766,1.059-2.418l0.279-0.224l0.07-0.055l0.018-0.014l0.041-0.026
							l0.03-0.017l0.122-0.069l0.488-0.278c0.318-0.186,0.738-0.349,1.105-0.509c0.772-0.25,1.592-0.422,2.435-0.346
							c0.837,0.092,1.642,0.402,2.307,0.883c0.629,0.514,1.194,1.092,1.594,1.762c0.439,0.646,0.75,1.354,1.028,2.062
							c0.271,0.711,0.505,1.433,0.679,2.166c0.207,0.725,0.308,1.475,0.445,2.21c-0.232-0.715-0.449-1.43-0.714-2.127
							c-0.244-0.703-0.545-1.385-0.875-2.042c-0.332-0.657-0.712-1.286-1.151-1.853c-0.413-0.593-0.955-1.055-1.508-1.45
							c-0.585-0.349-1.218-0.563-1.875-0.6c-0.661-0.024-1.322,0.151-1.96,0.392c-0.307,0.16-0.595,0.258-0.918,0.461l-0.479,0.293
							l-0.12,0.073l-0.03,0.018l-0.007,0.005c0.047-0.029,0.01-0.005,0.02-0.011l-0.009,0.009l-0.038,0.035l-0.154,0.133
							c-0.4,0.362-0.572,0.975-0.608,1.631c-0.058,1.333,0.302,2.774,0.753,4.148c0.465,1.381,1.014,2.751,1.632,4.094
							c1.239,2.682,2.642,5.321,4.142,7.875l-0.656-0.198c0.491-0.191,0.988-0.376,1.531-0.474c0.266-0.06,0.551-0.08,0.837-0.089
							c0.292,0.008,0.589,0.047,0.884,0.149c0.294,0.104,0.567,0.277,0.79,0.498c0.212,0.228,0.38,0.485,0.485,0.753
							c0.219,0.535,0.281,1.078,0.289,1.602c0.002,1.052-0.207,2.053-0.452,3.032C350.758,180.475,350.432,181.429,350.034,182.351z
							"/>
					</g>
					<path style="fill:#FFFFFF;" d="M301.139,232.748c0,0,9.508-28.452,29.127-16.807L301.139,232.748z"/>
				</g>
			</g>
			<g>
				<g>
					<path style="fill:#6F96BD;" d="M432.187,256.706c0,0,21.494,109.596,1.942,161.084l-56.418-37.909
						C377.71,379.881,397.091,256.142,432.187,256.706z"/>
					<g>
						<path style="fill:#FFAC9D;" d="M425.824,425.678c0,0-7.734,11.955-14.482,11.782c-6.747-0.173-142.58,4.442-142.58,4.442
							s-127.926,12.246-39.083-3.029c0,0-98.929,13.665-8.581-7.647c0,0-92.804,11.797-0.147-7.431c0,0-73.47,8.242-3.573-5.493
							c0,0,131.543-47.938,165.747-38.958C417.33,388.325,425.824,425.678,425.824,425.678z"/>
						<path style="fill:#84ADCE;" d="M372.607,368.271c0,0,49.239,1.939,72.284,24.812c0,0-7.077,38.979-17.302,42.768
							c-10.225,3.789-62.629-58.999-62.629-58.999L372.607,368.271z"/>
					</g>
				</g>
				<g>
					<path style="fill:#FFB8AE;" d="M268.518,214.693c0,0,20.043,21.446,19.844,29.205c-0.199,7.76-23.041,147.951-51.026,172.89
						c-27.986,24.939-59.49-10.305-51.038-37.095c6.391-20.256,67.704-125.536,67.704-125.536
						c2.69,5.425-17.698-33.876-18.883-40.321c-0.366-1.992-4.013-40.952-0.57-43.565s6.79,37.985,6.79,37.985
						s-4.687-40.97-0.284-41.532s8.304,31.61,8.304,31.61s-2.984-28.435-0.613-28.712c2.37-0.277,11.6,34.733,11.6,34.733
						L268.518,214.693z"/>
					<g>
						<path style="fill:#FC6A5A;" d="M235.118,213.836c-0.243-1.718-0.398-3.447-0.572-5.174l-0.468-5.185
							c-0.291-3.458-0.545-6.92-0.751-10.385c-0.204-3.465-0.363-6.934-0.419-10.408c-0.025-1.737-0.027-3.475,0.032-5.214
							c0.067-1.739,0.157-3.481,0.492-5.215c0.091-0.433,0.2-0.865,0.37-1.292c0.089-0.212,0.183-0.427,0.341-0.628
							c0.077-0.109,0.151-0.182,0.304-0.297l0.143-0.081c0.089-0.03,0.188-0.052,0.282-0.061c0.369,0.012,0.572,0.242,0.734,0.417
							c0.166,0.189,0.279,0.39,0.387,0.591c0.211,0.404,0.378,0.817,0.524,1.233c0.575,1.668,0.946,3.372,1.3,5.077
							c0.685,3.414,1.205,6.852,1.669,10.294c0.919,6.888,1.648,13.793,2.268,20.714c0.021,0.23-0.149,0.433-0.379,0.453
							c-0.226,0.02-0.427-0.147-0.452-0.371c-0.711-6.263-1.304-12.533-1.745-18.822c-0.217-3.144-0.393-6.293-0.48-9.449
							c-0.071-3.158-0.115-6.318,0.234-9.508c0.097-0.798,0.222-1.598,0.456-2.409c0.13-0.406,0.271-0.816,0.553-1.232
							c0.141-0.203,0.331-0.423,0.628-0.576c0.155-0.073,0.293-0.123,0.521-0.139l0.148-0.002c0.064,0.002,0.174,0.02,0.258,0.037
							c0.654,0.165,0.955,0.541,1.259,0.875c0.288,0.347,0.507,0.709,0.706,1.074c0.399,0.731,0.705,1.479,0.986,2.232
							c1.088,3.019,1.793,6.105,2.455,9.196c1.283,6.19,2.244,12.418,3.052,18.68l-1.193,0.135
							c-0.558-5.472-1.033-10.942-1.341-16.438c-0.144-2.749-0.264-5.499-0.192-8.28c0.022-0.696,0.059-1.395,0.137-2.105
							c0.042-0.356,0.092-0.714,0.175-1.085c0.045-0.187,0.094-0.377,0.173-0.581c0.086-0.2,0.166-0.432,0.461-0.693
							c0.148-0.123,0.414-0.256,0.69-0.214c-0.009-0.043,0.555,0.169,0.552,0.233c0.237,0.184,0.345,0.345,0.473,0.51
							c0.232,0.326,0.409,0.643,0.577,0.963c0.33,0.638,0.609,1.279,0.877,1.922c1.053,2.575,1.92,5.186,2.772,7.804
							c0.844,2.619,1.644,5.248,2.424,7.883c1.555,5.271,3.034,10.558,4.454,15.869l-0.122-0.245l8.17,10.341l-0.036-0.041
							c3.088,3.357,6.05,6.8,8.908,10.347c2.844,3.554,5.592,7.199,7.967,11.129c1.15,1.986,2.276,4.014,2.881,6.347
							c0.07,0.294,0.113,0.601,0.169,0.901c0.04,0.307,0.041,0.631,0.059,0.945c-0.023,0.585-0.092,1.187-0.153,1.748
							c-0.131,1.137-0.281,2.264-0.44,3.39c-0.637,4.502-1.367,8.982-2.122,13.458c-3.052,17.897-6.579,35.71-10.644,53.403
							c-2.031,8.846-4.19,17.664-6.522,26.436c-2.344,8.769-4.841,17.5-7.654,26.133c-2.826,8.625-5.913,17.178-9.611,25.473
							c-1.851,4.144-3.863,8.224-6.188,12.125c-1.156,1.953-2.395,3.86-3.769,5.667c-1.368,1.808-2.849,3.543-4.549,5.048
							c1.682-1.525,3.141-3.275,4.486-5.095c1.351-1.819,2.566-3.737,3.696-5.7c2.276-3.92,4.235-8.014,6.035-12.172
							c3.594-8.322,6.577-16.895,9.298-25.539c5.434-17.298,9.846-34.903,13.797-52.598c1.977-8.849,3.794-17.732,5.55-26.627
							c1.746-8.897,3.38-17.816,4.879-26.756c0.744-4.47,1.464-8.946,2.088-13.428c0.156-1.12,0.302-2.241,0.428-3.358
							c0.06-0.566,0.121-1.092,0.142-1.64c-0.021-0.251-0.017-0.497-0.051-0.751c-0.051-0.256-0.085-0.512-0.147-0.77
							c-0.537-2.073-1.626-4.068-2.751-5.989c-2.327-3.833-5.059-7.446-7.888-10.965c-2.841-3.511-5.806-6.942-8.866-10.255
							c-0.011-0.012-0.026-0.029-0.036-0.042l-8.179-10.334c-0.058-0.074-0.1-0.16-0.123-0.245
							c-1.404-5.296-2.87-10.583-4.41-15.841c-0.772-2.629-1.564-5.252-2.398-7.858c-0.84-2.601-1.7-5.205-2.72-7.713
							c-0.258-0.623-0.527-1.242-0.826-1.824c-0.15-0.288-0.31-0.57-0.476-0.803c-0.077-0.107-0.177-0.226-0.216-0.249l-0.011-0.013
							c0.02,0.016,0.044,0.028,0.071,0.035c0.027,0.007,0.055,0.009,0.082,0.005c0.014-0.004-0.033-0.005-0.046-0.008
							c0.106,0.002,0.201-0.039,0.22-0.06c0.022-0.049-0.155,0.299-0.198,0.573c-0.068,0.298-0.114,0.62-0.153,0.945
							c-0.073,0.654-0.111,1.327-0.133,2.001c-0.076,2.706,0.036,5.445,0.173,8.175c0.295,5.463,0.757,10.931,1.301,16.379
							c0.033,0.33-0.208,0.624-0.538,0.657c-0.324,0.032-0.614-0.201-0.655-0.522c-0.789-6.223-1.737-12.447-2.996-18.587
							c-0.647-3.061-1.346-6.131-2.389-9.039c-0.266-0.722-0.553-1.436-0.905-2.089c-0.174-0.326-0.365-0.641-0.58-0.9
							c-0.197-0.254-0.483-0.481-0.609-0.497c-0.012,0,0.003-0.013-0.031-0.018l-0.147,0.001c0.037,0.003-0.024,0.006-0.041,0.02
							c-0.054,0.027-0.144,0.102-0.222,0.222c-0.164,0.234-0.297,0.572-0.406,0.913c-0.208,0.701-0.335,1.46-0.432,2.222
							c-0.357,3.069-0.338,6.222-0.287,9.352c0.067,3.136,0.221,6.274,0.417,9.411c0.4,6.271,0.951,12.541,1.62,18.79l-0.831,0.082
							c-0.574-6.908-1.258-13.814-2.13-20.691c-0.448-3.436-0.923-6.871-1.564-10.27c-0.331-1.694-0.682-3.394-1.221-5.015
							c-0.136-0.404-0.292-0.799-0.478-1.166c-0.171-0.347-0.461-0.744-0.658-0.743c-0.013,0.01-0.02,0.008-0.038-0.002
							l-0.141,0.078c-0.01,0.022-0.111,0.088-0.151,0.162c-0.114,0.137-0.202,0.324-0.281,0.509
							c-0.156,0.377-0.266,0.788-0.358,1.202c-0.344,1.672-0.457,3.408-0.542,5.133c-0.079,1.728-0.097,3.461-0.091,5.194
							c0.016,3.466,0.135,6.934,0.298,10.399c0.166,3.465,0.38,6.928,0.631,10.389l0.408,5.189
							C234.76,210.385,234.895,212.116,235.118,213.836z"/>
					</g>
				</g>
			</g>
		</g>
		<path style="fill:none;stroke:#FC6A5A;stroke-width:1.8037;stroke-miterlimit:10;" d="M201.138,35.362
			c-14.239,7.577-44.379,28.336-38.639,43.887c5.121,15.483,32.784-3.72,42.695-11.771c7.64-6.168,25.003-28.935,4.585-23.861
			c-10.518,2.503-29.112,22.394-31.193,31.912c-8.325,38.07,55.256-5.523,47.643-12.143c-10.699-9.699-54.925,44.54-19.452,35.938
			c9.074-2.052,29.521-20.827,11.781-15.155c-14.646,5.096-14.27,22.192-1.492,23.286"/>
	</g>
	<g>
		<ellipse style="fill:#FDEDEE;" cx="111.86" cy="458.555" rx="54.5" ry="15.5"/>
		<g>
			<g>
				<g>
					<g>
						<path style="fill:#FC6A5A;" d="M142.61,441.761c-14.702,0-26.663-11.578-26.663-25.809c0-14.232,11.961-25.81,26.663-25.81
							c14.702,0,26.663,11.579,26.663,25.81C169.273,430.183,157.312,441.761,142.61,441.761z M142.61,396.968
							c-10.939,0-19.837,8.517-19.837,18.984c0,10.468,8.898,18.983,19.837,18.983c10.938,0,19.837-8.516,19.837-18.983
							C162.447,405.484,153.548,396.968,142.61,396.968z"/>
					</g>
					<path style="fill:#B52421;" d="M149.36,433.78c-2.111,0.734-4.377,1.156-6.75,1.156c-10.939,0-19.837-8.516-19.837-18.983
						c0-10.468,8.898-18.984,19.837-18.984c2.373,0,4.639,0.421,6.75,1.156v-7.142c-2.157-0.547-4.419-0.84-6.75-0.84
						c-14.702,0-26.663,11.579-26.663,25.81c0,14.231,11.961,25.809,26.663,25.809c2.331,0,4.593-0.293,6.75-0.84V433.78z"/>
				</g>
				<g>
					<path style="fill:#FC6A5A;stroke:#FC6A5A;stroke-width:2.6759;stroke-linejoin:round;stroke-miterlimit:10;" d="M79.86,451.171
						c0,6.011,14.103,10.884,31.5,10.884s31.5-4.873,31.5-10.884c0-3.212,0-71.733,0-71.733h-63
						C79.86,379.439,79.86,446.981,79.86,451.171z"/>
					
						<ellipse style="fill:#B52421;stroke:#FF9A92;stroke-width:2.6759;stroke-miterlimit:10;" cx="111.36" cy="379.439" rx="31.5" ry="10.884"/>
				</g>
			</g>
			<g>
				
					<line style="fill:none;stroke:#FFFFFF;stroke-linecap:round;stroke-linejoin:round;stroke-miterlimit:10;" x1="99.36" y1="388.055" x2="100.36" y2="429.555"/>
				<polygon style="fill:#FFFFFF;" points="99.633,412.555 89.087,421.414 90.352,438.711 113.133,439.555 112.712,422.68 				"/>
			</g>
		</g>
	</g>
</g>
</svg>
