<?xml version="1.0" encoding="utf-8"?>
<!-- Generator: Adobe Illustrator 27.5.0, SVG Export Plug-In . SVG Version: 6.00 Build 0)  -->
<svg version="1.1" xmlns="http://www.w3.org/2000/svg" xmlns:xlink="http://www.w3.org/1999/xlink" x="0px" y="0px"
	 viewBox="0 0 500 500" style="enable-background:new 0 0 500 500;" xml:space="preserve">
<g id="BACKGROUND">
	<g>
		<rect style="fill:#FFFFFF;" width="500" height="500"/>
		<polygon style="fill:#FAECE1;" points="97.318,40.567 120.522,112.035 31.418,79.549 90.821,145.449 25.849,160.299 
			94.533,184.432 21.208,247.546 78.754,270.75 25.849,319.943 123.306,315.302 67.617,396.98 134.444,387.699 109.384,456.383 
			193.846,412.759 215.194,487.94 242.111,422.041 297.8,487.012 294.088,419.256 388.76,480.515 359.987,402.549 456.516,421.112 
			395.257,359.854 472.294,342.219 415.677,308.805 478.792,267.038 405.467,247.546 473.223,209.492 404.539,189.072 
			474.151,130.598 388.76,133.383 450.947,52.633 355.346,75.837 368.341,10.866 295.016,70.268 269.027,11.794 260.674,73.98 
			223.547,11.794 211.526,80.843 178.068,18.291 170.642,84.19 		"/>
	</g>
</g>
<g id="OBJECTS">
	<g>
		<g>
			<g>
				<path style="fill:#251E4C;" d="M387.23,221.35c-6.933-9.281-15.879-17.145-21.999-26.937
					c-11.176-17.881-12.342-39.825-12.342-60.67c0-66.809-49.527-85.472-78.68-90.312c0.3-0.359,0.618-0.704,0.912-1.067
					c0.946-1.171,1.91-2.616,1.456-4.031c-0.673-2.097-3.69-2.283-5.929-1.832c-4.557,0.917-8.897,2.773-12.688,5.364
					c-0.353-0.005-0.692-0.009-1.007-0.009c-0.188,0-0.393,0.002-0.595,0.004c2.096-2.737,4.193-5.473,6.274-8.22
					c1.501-1.981,3.052-4.102,3.251-6.543c0.037-0.457,0.015-0.949-0.26-1.324c-0.644-0.875-2.063-0.524-3.062-0.045
					c-7.619,3.653-13.945,9.71-17.833,16.972c-28.037,3.497-83.712,20.211-83.712,91.044c0,20.846-1.166,42.79-12.342,60.67
					c-6.12,9.792-15.066,17.656-21.999,26.937c-6.932,9.28-11.894,21.127-8.38,32.033c0.501,1.555,1.198,3.106,2.42,4.236
					c1.161,1.073,2.702,1.681,4.244,2.134c8.371,2.455,17.941,0.766,24.852-4.385c-2.906,7.172,0.561,16.17,7.631,19.809
					s16.806,1.437,21.434-4.849c2.148,5.67,8.133,11.603,14.186,13.251c6.053,1.647,12.896,0.342,17.831-3.4
					c5.058,7.563,12.665,13.993,21.841,15.809c9.177,1.816,20.157-5.475,24.216-13.572c4.06,8.097,15.04,15.388,24.216,13.572
					c9.176-1.816,16.783-8.247,21.841-15.809c4.935,3.743,11.778,5.048,17.831,3.4c6.053-1.647,12.038-7.58,14.186-13.251
					c4.628,6.286,14.364,8.488,21.434,4.849c7.07-3.639,10.536-12.637,7.631-19.809c6.911,5.152,16.481,6.84,24.852,4.385
					c1.542-0.452,3.084-1.06,4.245-2.134c1.222-1.13,1.919-2.681,2.42-4.236C399.124,242.476,394.163,230.63,387.23,221.35z"/>
				<g>
					<path style="fill:#D27876;" d="M321.438,141.38c0,35.55-11.744,99.482-64.51,99.482s-64.227-63.932-64.227-99.482
						s28.819-64.369,64.368-64.369S321.438,105.83,321.438,141.38z"/>
					<ellipse style="fill:#D27876;" cx="226.494" cy="192.881" rx="10.362" ry="7.607"/>
					<path style="fill:#D27876;" d="M276.693,193.765c0,4.201,4.639,7.607,10.363,7.607c5.723,0,10.362-3.406,10.362-7.607
						c0-4.201-4.639-7.607-10.362-7.607C281.332,186.159,276.693,189.564,276.693,193.765z"/>
					<g>
						<path style="fill:#28234C;" d="M257.219,167.453c0.655,3.282,1.177,6.577,1.668,9.876l0.688,4.953l0.612,4.96
							c0.367,3.311,0.737,6.622,1.032,9.941c0.165,1.658,0.302,3.318,0.43,4.979c0.14,1.66,0.261,3.322,0.363,4.986l0.041,0.676
							l-0.608,0.132c-4.28,0.929-8.885-0.413-11.816-3.365c3.426,2.316,7.721,2.988,11.447,1.902l-0.566,0.808
							c-0.236-1.65-0.452-3.303-0.648-4.957c-0.209-1.653-0.409-3.307-0.58-4.964c-0.379-3.31-0.683-6.628-0.99-9.945l-0.398-4.982
							l-0.323-4.99C257.389,174.133,257.238,170.8,257.219,167.453z"/>
					</g>
					<g>
						<path style="fill:#28234C;" d="M258.235,221.719c4.475-0.492,9.237-0.124,13.32,0.975c0.721-0.765,1.151-1.602,1.121-2.456
							c-0.048-1.351-1.395-2.724-3.651-3.307c-4.777-1.235-9.46,1.098-14.216,0.943c-4.863-0.16-8.704-2.641-13.742-0.776
							c-2.562,0.949-3.582,2.792-3.245,4.461c0.288,1.426,1.479,2.82,3.488,3.759c1.142,0.533,2.556,0.897,4.035,1.052
							C248.328,224.005,253.043,222.289,258.235,221.719z"/>
						<path style="fill:#D27876;" d="M258.235,221.719c-5.192,0.57-9.907,2.286-12.89,4.649c1.124,0.118,2.283,0.118,3.392-0.039
							c1.438-0.203,2.726-0.634,4.121-0.91c2.059-0.408,4.351-0.468,6.473-0.169c1.324,0.186,2.594,0.509,3.957,0.569
							c2.623,0.115,5.08-0.775,6.748-1.875c0.583-0.384,1.098-0.805,1.517-1.249C267.473,221.594,262.71,221.227,258.235,221.719z"
							/>
					</g>
					<g>
						<g>
							<path style="fill:#28234C;" d="M220.714,168.537c1.873,1.791,3.939,3.056,6.139,3.819c2.189,0.768,4.487,1.033,6.674,0.718
								c2.186-0.318,4.315-1.22,6.198-2.572c1.894-1.353,3.521-3.146,4.817-5.391c-0.081,2.619-1.363,5.202-3.264,7.167
								c-1.91,1.967-4.506,3.366-7.324,3.766c-2.818,0.406-5.7-0.204-8.087-1.553C223.49,173.139,221.533,171.025,220.714,168.537z"
								/>
						</g>
						<g>
							<path style="fill:#28234C;" d="M231,182.674c2.203-0.714,4.405-1.205,6.424-2.1c2.02-0.877,3.859-2.109,5.305-3.913
								c-0.362,1.107-1.074,2.1-1.938,2.906c-0.863,0.817-1.888,1.445-2.968,1.924C235.642,182.417,233.303,182.741,231,182.674z"/>
						</g>
					</g>
					<g>
						<g>
							<path style="fill:#28234C;" d="M292.905,168.537c-0.819,2.488-2.777,4.602-5.153,5.953c-2.387,1.349-5.27,1.959-8.087,1.553
								c-2.819-0.4-5.414-1.798-7.324-3.766c-1.902-1.965-3.183-4.548-3.264-7.167c1.296,2.245,2.923,4.039,4.817,5.391
								c1.883,1.353,4.012,2.255,6.198,2.572c2.187,0.315,4.485,0.049,6.673-0.718C288.965,171.593,291.032,170.327,292.905,168.537
								z"/>
						</g>
						<g>
							<path style="fill:#28234C;" d="M282.619,182.674c-2.303,0.067-4.643-0.257-6.823-1.183c-1.08-0.479-2.105-1.107-2.968-1.924
								c-0.864-0.806-1.577-1.8-1.938-2.906c1.446,1.804,3.285,3.036,5.305,3.913C278.214,181.469,280.417,181.96,282.619,182.674z"
								/>
						</g>
					</g>
					<g>
						<g>
							<path style="fill:#28234C;" d="M208.747,155.56l10.568,0.767c1.75,0.128,3.496,0.234,5.237,0.306
								c1.737,0.098,3.469,0.159,5.193,0.177c1.717,0.024,3.463-0.1,5.131-0.258c1.66-0.153,3.191-0.229,4.649-0.334
								c1.469-0.11,2.833-0.315,4.261-0.794c1.429-0.47,2.824-1.175,4.294-2.369l0.53,0.238c0.019,2.023-1.031,4.029-2.514,5.527
								c-1.482,1.513-3.486,2.563-5.472,3.104c-2.003,0.562-4.012,0.605-5.867,0.38c-1.852-0.24-3.62-0.584-5.411-0.862
								c-1.783-0.285-3.55-0.613-5.303-0.978c-1.749-0.395-3.482-0.822-5.205-1.27c-3.44-0.932-6.833-1.944-10.202-3.063
								L208.747,155.56z"/>
						</g>
						<g>
							<path style="fill:#28234C;" d="M249.451,160.816c1.078-1.59,1.88-3.211,2.353-4.959c0.49-1.744,0.633-3.545,0.528-5.463
								c0.887,1.73,0.952,3.838,0.435,5.73C252.236,158.012,251.099,159.786,249.451,160.816z"/>
						</g>
					</g>
					<g>
						<g>
							<path style="fill:#28234C;" d="M305.311,156.131c-3.369,1.118-6.762,2.131-10.202,3.063c-1.723,0.448-3.457,0.875-5.205,1.27
								c-1.753,0.365-3.52,0.693-5.303,0.978c-1.79,0.278-3.559,0.621-5.41,0.862c-1.855,0.225-3.865,0.182-5.867-0.38
								c-1.985-0.541-3.99-1.591-5.472-3.104c-1.484-1.498-2.533-3.504-2.514-5.527l0.53-0.238c1.47,1.194,2.865,1.9,4.294,2.369
								c1.429,0.479,2.793,0.684,4.262,0.794c1.458,0.105,2.989,0.181,4.649,0.334c1.668,0.158,3.414,0.282,5.131,0.258
								c1.724-0.018,3.456-0.078,5.193-0.177c1.741-0.072,3.487-0.177,5.237-0.306l10.568-0.767L305.311,156.131z"/>
						</g>
						<g>
							<path style="fill:#28234C;" d="M264.497,160.816c-1.648-1.03-2.785-2.805-3.316-4.693c-0.516-1.892-0.451-4,0.435-5.73
								c-0.106,1.919,0.038,3.72,0.528,5.463C262.617,157.605,263.419,159.226,264.497,160.816z"/>
						</g>
					</g>
					<path style="fill:#28234C;" d="M187.434,171.114c5.997-1.396,9.843-7.211,12.277-12.867
						c4.509-10.478,6.318-22.105,5.206-33.458c6.932,7.262,15.618,15.125,25.339,17.633c-0.57-6.261-4.349-11.703-8.002-16.82
						c4.686,5.451,11.503,8.586,18.325,10.853c20.245,6.728,42.553,7.094,63.008,1.033c0.677,14.204,7.996,26.763,19.002,35.768
						c6.156-19.887,8.107-43.601,1.769-63.431c-6.338-19.83-21.435-37.385-41.268-43.712c-11.496-3.667-23.962-3.49-35.795-1.125
						c-14.41,2.881-28.363,9.107-39.053,19.19c-10.548,9.949-17.551,23.328-20.99,37.413c-3.44,14.085-3.442,28.863-1.316,43.206"/>
					<g>
						<g>
							<g>
								<path style="fill:#D27876;" d="M171.609,167.459c0.902,7.508,5.302,14.52,11.767,18.757
									c2.024,1.326,4.301,2.407,6.752,2.611c5.528,0.459,10.657-3.838,12.488-8.903c1.832-5.066,1.008-10.639-0.529-15.755
									c-1.985-6.612-5.958-13.578-12.904-15.247C177.986,146.232,170.491,158.16,171.609,167.459z"/>
								<path style="fill:#D27876;" d="M196.824,182.413c-2.402-0.741-4.57-2.145-6.181-4.004c-0.324-0.374-0.635-0.787-0.704-1.271
									c-0.132-0.925,0.636-1.73,1.344-2.381c1.431-1.315,2.863-2.629,4.294-3.944c0.286-0.263,0.583-0.542,0.699-0.904
									c0.128-0.399,0.016-0.825-0.097-1.225c-1.437-5.092-3.153-10.582-7.611-13.633c-1.203-0.824-2.61-1.44-4.094-1.487
									c-2.204-0.071-4.305,1.134-5.764,2.743c-1.459,1.609-2.377,3.594-3.233,5.56c0,0-1.471,10.84,6.182,17.484
									C189.312,185.996,196.824,182.413,196.824,182.413z"/>
							</g>
							<g>
								<path style="fill:#28234C;" d="M175.477,161.867c0.628-2.14,1.426-4.296,2.928-6.146c0.763-0.91,1.697-1.697,2.786-2.28
									c1.085-0.584,2.369-0.905,3.676-0.848c1.303,0.059,2.538,0.483,3.615,1.085c1.081,0.602,2.04,1.349,2.906,2.203
									c1.728,1.719,2.922,3.832,3.847,5.954c0.896,2.149,1.521,4.339,2.1,6.501c0.067,0.277,0.172,0.632,0.181,1.114
									c0.032,0.469-0.185,1.134-0.474,1.485c-0.277,0.373-0.551,0.591-0.754,0.772l-0.63,0.548
									c-0.835,0.736-1.685,1.456-2.542,2.169c-0.831,0.726-1.823,1.433-2.227,2.058c-0.196,0.33-0.25,0.518-0.115,0.868
									c0.139,0.347,0.516,0.793,0.847,1.194c1.361,1.639,3.165,2.939,5.202,3.869c-2.213-0.389-4.342-1.447-6.097-2.991
									c-0.429-0.405-0.854-0.755-1.25-1.39c-0.189-0.31-0.334-0.735-0.335-1.16c-0.009-0.427,0.107-0.832,0.265-1.165
									c0.318-0.675,0.77-1.139,1.18-1.562l1.183-1.189c0.783-0.793,1.572-1.579,2.376-2.349c0.364-0.364,0.91-0.852,0.996-1.014
									c0.042-0.097,0,0.008,0.004-0.081c-0.006-0.076-0.053-0.263-0.136-0.52c-0.641-2.116-1.265-4.211-2.122-6.159
									c-0.805-1.967-1.848-3.796-3.233-5.277c-1.351-1.495-3.117-2.707-4.955-2.985c-1.832-0.254-3.862,0.601-5.389,2.008
									C177.734,157.985,176.615,159.945,175.477,161.867z"/>
							</g>
						</g>
						<g>
							<g>
								<path style="fill:#D27876;" d="M342.53,167.459c-0.902,7.508-5.302,14.52-11.767,18.757
									c-2.024,1.326-4.301,2.407-6.752,2.611c-5.528,0.459-10.657-3.838-12.489-8.903c-1.832-5.066-1.008-10.639,0.529-15.755
									c1.985-6.612,5.958-13.578,12.904-15.247C336.152,146.232,343.647,158.16,342.53,167.459z"/>
								<path style="fill:#D27876;" d="M317.315,182.413c2.402-0.741,4.57-2.145,6.181-4.004c0.324-0.374,0.635-0.787,0.704-1.271
									c0.132-0.925-0.636-1.73-1.344-2.381c-1.431-1.315-2.863-2.629-4.294-3.944c-0.286-0.263-0.583-0.542-0.699-0.904
									c-0.128-0.399-0.016-0.825,0.097-1.225c1.437-5.092,3.153-10.582,7.611-13.633c1.203-0.824,2.61-1.44,4.095-1.487
									c2.204-0.071,4.305,1.134,5.763,2.743c1.459,1.609,2.377,3.594,3.233,5.56c0,0,1.47,10.84-6.182,17.484
									C324.827,185.996,317.315,182.413,317.315,182.413z"/>
							</g>
							<g>
								<path style="fill:#28234C;" d="M338.662,161.867c-1.138-1.923-2.257-3.883-3.834-5.288
									c-1.527-1.406-3.557-2.261-5.389-2.008c-1.838,0.278-3.603,1.489-4.955,2.985c-1.384,1.481-2.427,3.31-3.232,5.277
									c-0.857,1.947-1.481,4.043-2.122,6.159c-0.083,0.257-0.13,0.444-0.136,0.52c0.004,0.089-0.039-0.017,0.004,0.08
									c0.086,0.162,0.631,0.65,0.996,1.014c0.804,0.77,1.593,1.556,2.376,2.349l1.183,1.188c0.41,0.423,0.862,0.887,1.18,1.562
									c0.158,0.332,0.274,0.738,0.265,1.165c-0.001,0.426-0.146,0.85-0.335,1.161c-0.396,0.635-0.821,0.985-1.25,1.39
									c-1.755,1.544-3.884,2.602-6.097,2.991c2.037-0.93,3.841-2.23,5.202-3.869c0.331-0.401,0.708-0.847,0.847-1.194
									c0.134-0.35,0.081-0.538-0.116-0.868c-0.404-0.624-1.397-1.331-2.227-2.058c-0.856-0.713-1.707-1.432-2.542-2.168
									l-0.63-0.548c-0.203-0.18-0.476-0.399-0.754-0.772c-0.289-0.351-0.506-1.017-0.474-1.485
									c0.009-0.482,0.114-0.837,0.181-1.114c0.579-2.162,1.204-4.352,2.1-6.501c0.925-2.122,2.119-4.234,3.847-5.954
									c0.865-0.854,1.824-1.601,2.906-2.203c1.076-0.602,2.311-1.026,3.615-1.085c1.307-0.057,2.592,0.264,3.677,0.848
									c1.09,0.583,2.024,1.369,2.786,2.28C337.235,157.571,338.033,159.728,338.662,161.867z"/>
							</g>
						</g>
					</g>
					<circle style="fill:#FCF4EE;" cx="196.518" cy="189.527" r="5.74"/>
					<circle style="fill:#FCF4EE;" cx="317.77" cy="189.527" r="5.74"/>
				</g>
				<g>
					<g>
						<path style="fill:#FCF4EE;" d="M192.879,79.626c3.066,5.946,6.897,11.479,11.304,16.482c4.386,5.026,9.343,9.54,14.71,13.484
							c10.732,7.893,23.033,13.633,35.969,16.773c12.932,3.221,26.422,3.94,39.694,2.741c6.643-0.591,13.243-1.681,19.744-3.201
							c6.509-1.49,12.922-3.419,19.194-5.742c-6.213,2.476-12.587,4.564-19.079,6.218c-6.499,1.623-13.114,2.804-19.786,3.491
							c-13.337,1.365-26.94,0.636-40.006-2.537c-13.037-3.25-25.463-9.037-36.189-17.13c-5.354-4.051-10.289-8.66-14.621-13.781
							C199.505,91.287,195.799,85.645,192.879,79.626z"/>
					</g>
					<g>
						<path style="fill:#FCF4EE;" d="M202.034,74.156c5.847,6.645,12.316,12.74,19.339,18.102
							c7.007,5.379,14.567,10.044,22.578,13.744c8.011,3.689,16.448,6.463,25.107,8.111c8.655,1.65,17.531,2.179,26.305,1.423
							l-0.094,0.967c-12.573-3.575-24.385-9.761-34.516-18.004l-2.114-1.72l2.55,0.966c5.709,2.163,11.688,3.591,17.749,4.407
							c6.061,0.844,12.204,1.061,18.331,0.96c3.065-0.06,6.13-0.2,9.191-0.403c3.061-0.2,6.119-0.455,9.153-0.893
							c6.053-0.853,12.094-2.461,17.404-5.595c-5.251,3.229-11.293,4.957-17.354,5.921c-6.085,0.955-12.232,1.355-18.38,1.56
							c-6.149,0.163-12.326,0.008-18.446-0.781c-6.122-0.744-12.173-2.179-17.964-4.351l0.436-0.754
							c10.061,8.144,21.791,14.198,34.23,17.739l2.619,0.745l-2.712,0.222c-17.763,1.454-35.783-2.229-51.814-9.841
							c-8.024-3.81-15.585-8.562-22.55-14.05C214.131,87.123,207.762,80.903,202.034,74.156z"/>
					</g>
					<g>
						<path style="fill:#FCF4EE;" d="M218.707,62.193c6.958,5.541,14.627,10.14,22.736,13.71c8.109,3.568,16.635,6.184,25.358,7.712
							c8.711,1.607,17.604,2.142,26.463,1.846c4.431-0.141,8.857-0.514,13.258-1.094c4.406-0.547,8.781-1.342,13.129-2.276
							c-4.296,1.154-8.663,2.047-13.06,2.761c-4.402,0.681-8.841,1.142-13.295,1.378c-8.908,0.458-17.876-0.087-26.673-1.631
							c-8.781-1.623-17.39-4.25-25.496-7.997c-4.049-1.878-7.978-4.01-11.738-6.404C225.646,67.777,222.049,65.13,218.707,62.193z"
							/>
					</g>
					<g>
						<path style="fill:#FCF4EE;" d="M237.546,57.452c4.828,1.996,9.795,3.611,14.864,4.766c5.068,1.153,10.224,1.918,15.411,2.157
							c5.183,0.32,10.392,0.12,15.554-0.481l3.863-0.533l3.837-0.715l3.813-0.858l3.779-1.025l-3.707,1.28l-3.775,1.081
							l-3.835,0.858l-3.875,0.674c-5.192,0.766-10.464,0.961-15.708,0.716c-5.24-0.326-10.461-1.086-15.539-2.411
							C247.153,61.64,242.205,59.824,237.546,57.452z"/>
					</g>
					<g>
						<path style="fill:#FCF4EE;" d="M193.177,109.22c-0.203,2.785-0.539,5.554-0.915,8.317c-0.365,2.765-0.83,5.514-1.32,8.259
							c-0.513,2.74-1.051,5.477-1.689,8.192l-0.977,4.067c-0.368,1.346-0.708,2.698-1.115,4.035c0.186-1.385,0.43-2.756,0.635-4.135
							l0.703-4.118l1.46-8.22l1.547-8.204C192.04,114.68,192.566,111.945,193.177,109.22z"/>
					</g>
					<g>
						<path style="fill:#FCF4EE;" d="M182.327,96.837l-2.33,10.997c-0.747,3.668-1.505,7.332-2.2,11.009
							c-0.718,3.672-1.373,7.356-2.039,11.04l-1.917,11.077c0.114-1.874,0.305-3.739,0.477-5.608c0.21-1.864,0.44-3.726,0.68-5.587
							c0.489-3.721,1.12-7.422,1.818-11.11c0.721-3.683,1.508-7.354,2.435-10.991C180.167,104.024,181.163,100.405,182.327,96.837z"
							/>
					</g>
					<g>
						<path style="fill:#FCF4EE;" d="M204.617,221.968c-0.527,3.284-1.864,6.405-3.407,9.338c-1.54,2.948-3.235,5.795-4.642,8.757
							c-1.393,2.957-2.428,6.11-2.503,9.336c-0.105,3.195,0.741,6.524,2.89,8.902l0.328,0.363l-0.4,0.276
							c-1.104,0.762-2.034,1.802-2.658,3.016c-0.627,1.209-0.966,2.58-0.929,3.951c0.044,1.369,0.424,2.743,1.121,3.954
							c0.695,1.21,1.685,2.265,2.889,3.022c-1.272-0.642-2.361-1.651-3.153-2.859c-0.791-1.206-1.317-2.619-1.405-4.091
							c-0.096-1.469,0.208-2.957,0.837-4.293c0.632-1.332,1.579-2.542,2.81-3.402l-0.072,0.639c-2.371-2.563-3.307-6.125-3.24-9.502
							c0.057-3.432,1.24-6.697,2.683-9.695c1.445-3.024,3.281-5.798,4.917-8.663C202.305,228.152,203.827,225.199,204.617,221.968z"
							/>
					</g>
					<g>
						<path style="fill:#FCF4EE;" d="M185.479,226.301c-0.599,1.748-1.612,3.342-2.775,4.788c-1.189,1.432-2.547,2.707-3.926,3.935
							c-2.753,2.456-5.731,4.645-8.005,7.445c-2.323,2.738-3.68,6.208-4.018,9.795c-0.178,1.793-0.091,3.618,0.26,5.398
							c0.319,1.789,0.942,3.525,1.792,5.159c-1.046-1.52-1.78-3.254-2.27-5.05c-0.459-1.807-0.639-3.689-0.549-5.564
							c0.081-1.877,0.489-3.739,1.149-5.508c0.675-1.765,1.676-3.408,2.864-4.865c2.409-2.916,5.442-5.099,8.283-7.395
							c1.428-1.146,2.815-2.335,4.054-3.67C183.599,229.456,184.672,227.96,185.479,226.301z"/>
					</g>
					<g>
						<path style="fill:#FCF4EE;" d="M304.179,227.781c0.072,3.528,0.818,7.039,2.386,10.144c1.548,3.141,4.168,5.498,6.859,7.757
							c2.672,2.253,5.539,4.632,7.114,7.998c0.789,1.655,1.151,3.551,0.952,5.392c-0.184,1.834-1,3.68-2.471,4.879l-0.004-0.569
							c0.896,0.764,1.542,1.783,1.904,2.873c0.363,1.092,0.476,2.253,0.339,3.379c-0.14,1.125-0.509,2.218-1.103,3.172
							c-0.587,0.956-1.429,1.754-2.421,2.243c1.899-1.169,2.945-3.332,3.058-5.458c0.063-1.067-0.072-2.146-0.449-3.131
							c-0.372-0.985-0.989-1.868-1.801-2.506l-0.34-0.267l0.335-0.302c1.234-1.113,1.916-2.74,2.077-4.403
							c0.154-1.679-0.186-3.373-0.934-4.895c-1.519-3.069-4.192-5.42-6.851-7.711c-1.334-1.157-2.677-2.337-3.885-3.67
							c-1.202-1.34-2.198-2.876-2.952-4.503C304.477,234.937,303.955,231.299,304.179,227.781z"/>
					</g>
					<g>
						<path style="fill:#FCF4EE;" d="M295.734,240.913c2.107,2.929,3.897,6.156,4.853,9.719c0.459,1.78,0.698,3.631,0.594,5.473
							c-0.088,1.838-0.541,3.67-1.394,5.271c0.96-3.498,0.729-7.089-0.166-10.49C298.737,247.464,297.163,244.239,295.734,240.913z"
							/>
					</g>
					<g>
						<path style="fill:#FCF4EE;" d="M217.37,236.579c-1.263,3.467-1.845,7.072-1.663,10.669c0.164,3.597,1.088,7.129,2.675,10.461
							c-2.279-2.929-3.488-6.674-3.673-10.413C214.538,243.555,215.384,239.713,217.37,236.579z"/>
					</g>
					<g>
						<path style="fill:#FCF4EE;" d="M321.416,220.017c1.928,3.142,4.538,5.742,7.236,8.202c2.715,2.449,5.594,4.75,8.164,7.426
							c2.552,2.654,4.945,5.667,6.168,9.26c1.238,3.517,1.505,7.583-0.116,11.077l-0.15-0.507c2.344,1.608,3.883,4.055,4.821,6.616
							c0.458,1.294,0.739,2.645,0.845,4.004c0.106,1.358,0.017,2.738-0.352,4.041c0.488-2.667,0.027-5.407-0.974-7.863
							c-0.994-2.448-2.582-4.732-4.778-6.117l-0.291-0.184l0.141-0.323c1.427-3.274,1.174-7.081-0.054-10.42
							c-1.233-3.367-3.407-6.334-5.909-8.962c-2.511-2.632-5.301-5.023-7.936-7.599
							C325.589,226.116,323.098,223.299,321.416,220.017z"/>
					</g>
				</g>
			</g>
			<g>
				<path style="fill:#D27876;" d="M257.069,238.331l-21.458-7.285c0,0,0.003,25.861-3.676,33.831
					c-1.667,3.612-8.255,6.951-18.144,10.662c11.662,29.028,26.182,56.905,43.278,83.103V238.331z"/>
				<g>
					<path style="fill:#6400E3;" d="M257.069,358.643c-17.097-26.198-31.617-54.075-43.278-83.103
						c-2.63,0.987-5.505,2.003-8.572,3.054c11.155,33.675,28.88,65.156,51.851,92.188V358.643z"/>
					<path style="fill:#8F7EFE;" d="M205.219,278.594c-10.855,3.723-24.252,7.926-38.894,13.155
						c-34.337,12.263-57.637,71.126-57.637,71.126l30.045,44.76l15.942-20.847c0,0-1.071,11.96,5.513,22.164
						c6.363,9.864,15.948,12.786,15.948,12.786L169.404,500h87.665V370.782C234.099,343.75,216.373,312.269,205.219,278.594z"/>
				</g>
				<path style="fill:#D27876;" d="M138.732,407.636c0,0-45.202,59.748-70.359,33.333s59.836-200.612,59.836-200.612l21.671,8.012
					l-28.214,129.68c0,0,6.828,4.267,11.38,11.948C137.598,397.679,138.732,407.636,138.732,407.636z"/>
				<g>
					<path style="fill:#D27876;" d="M128.209,240.358c0,0,17.015-54.622,23.161-61.822s53.909-35.647,56.192-29.676
						s-34.242,31.783-37.93,36.173c-3.688,4.39-6.45,17.581-6.45,17.581s7.328,7.354,13.65,5.423
						c6.322-1.932,17.091-8.391,25.695-7.513c8.604,0.878,9.425,0.313,9.6,2.947c0.176,2.634-27.745,14.399-33.013,18.438
						c-5.268,4.039-29.235,26.461-29.235,26.461"/>
					<path style="fill:#28234C;" d="M128.21,240.358c2.409-8.113,4.947-16.187,7.585-24.23c2.65-8.039,5.337-16.07,8.408-23.975
						c1.554-3.947,3.102-7.892,5.144-11.686c0.242-0.478,0.557-0.937,0.835-1.405c0.326-0.454,0.649-0.931,1.04-1.338
						c0.768-0.805,1.58-1.509,2.407-2.194c1.657-1.36,3.369-2.624,5.102-3.855c6.955-4.886,14.158-9.375,21.552-13.543
						c3.699-2.08,7.442-4.087,11.267-5.953c1.913-0.932,3.848-1.826,5.822-2.651c1.984-0.81,3.982-1.592,6.147-2.097
						c0.54-0.128,1.104-0.22,1.689-0.279c0.596-0.033,1.22-0.066,1.972,0.197c0.366,0.126,0.799,0.41,1.063,0.84
						c0.289,0.453,0.314,0.839,0.342,1.237c0,0.771-0.231,1.37-0.472,1.917c-1.038,2.132-2.498,3.717-3.942,5.321
						c-2.938,3.143-6.117,5.972-9.326,8.756c-6.43,5.549-13.117,10.766-19.696,16.052c-1.606,1.324-3.327,2.678-4.672,4.064
						c-1.2,1.421-2.077,3.364-2.847,5.26c-1.509,3.856-2.629,7.941-3.544,12.008l-0.25-0.84c1.865,1.776,4.075,3.373,6.413,4.44
						c1.173,0.539,2.408,0.892,3.633,1.008c0.615,0.084,1.222,0.029,1.817-0.041l0.879-0.186l0.939-0.311
						c5.015-1.816,9.948-4.347,15.273-5.906c2.657-0.78,5.428-1.375,8.285-1.329c1.463,0.05,2.777,0.227,4.133,0.35
						c1.354,0.132,2.703,0.236,4.089,0.396c0.702,0.105,1.398,0.156,2.225,0.521c0.41,0.189,0.872,0.596,1.059,1.078
						c0.173,0.448,0.234,0.866,0.257,1.223l0.012,0.139l0.006,0.07l-0.005,0.162c-0.016,0.248-0.091,0.381-0.155,0.524
						c-0.137,0.253-0.282,0.418-0.423,0.569c-0.285,0.298-0.57,0.527-0.859,0.751c-0.577,0.433-1.164,0.812-1.756,1.176
						c-2.371,1.436-4.804,2.674-7.243,3.907c-4.881,2.45-9.814,4.766-14.688,7.186c-2.429,1.215-4.87,2.437-7.172,3.818
						c-1.139,0.679-2.151,1.554-3.206,2.419c-1.047,0.863-2.076,1.755-3.107,2.642c-8.218,7.146-16.268,14.5-24.361,21.799
						c7.855-7.558,15.772-15.047,23.841-22.388c1.015-0.912,2.025-1.827,3.062-2.72c1.029-0.882,2.07-1.822,3.259-2.567
						c2.338-1.48,4.772-2.711,7.195-3.972c4.856-2.491,9.758-4.872,14.586-7.376c2.406-1.257,4.818-2.526,7.091-3.945
						c0.564-0.357,1.117-0.727,1.625-1.118c0.476-0.355,1.038-0.936,0.842-0.942c-0.02-0.321-0.086-0.581-0.154-0.769
						c-0.074-0.16-0.159-0.222-0.356-0.327c-0.424-0.188-1.107-0.281-1.75-0.355c-1.323-0.136-2.692-0.224-4.052-0.338
						c-1.359-0.107-2.751-0.266-4.014-0.29c-2.604-0.008-5.223,0.581-7.779,1.336c-2.561,0.773-5.07,1.769-7.569,2.824
						c-2.506,1.048-4.979,2.188-7.611,3.127l-1,0.336l-1.119,0.246c-0.748,0.098-1.516,0.158-2.253,0.065
						c-1.485-0.134-2.906-0.549-4.211-1.139c-2.622-1.196-4.899-2.826-6.986-4.791l-0.36-0.339l0.111-0.501
						c0.924-4.188,2.027-8.296,3.582-12.329c0.821-2.004,1.653-4.009,3.178-5.847c0.805-0.867,1.603-1.538,2.418-2.246l2.453-2.046
						c6.571-5.365,13.259-10.525,19.671-16.004c3.192-2.744,6.355-5.54,9.211-8.569c1.392-1.511,2.813-3.117,3.631-4.805
						c0.194-0.41,0.322-0.839,0.314-1.132c-0.006-0.122-0.036-0.289-0.055-0.277c-0.011-0.022-0.035-0.059-0.165-0.106
						c-0.249-0.097-0.71-0.121-1.163-0.087c-0.467,0.047-0.95,0.119-1.44,0.234c-1.961,0.446-3.927,1.196-5.858,1.977
						c-1.933,0.798-3.844,1.67-5.739,2.583c-3.789,1.827-7.515,3.804-11.2,5.856c-7.347,4.138-14.623,8.451-21.567,13.223
						c-1.731,1.196-3.441,2.425-5.072,3.728c-0.811,0.653-1.606,1.329-2.309,2.047c-0.348,0.353-0.622,0.755-0.919,1.154
						c-0.266,0.438-0.56,0.848-0.802,1.312c-2.02,3.635-3.631,7.567-5.223,11.467C138.98,208.258,133.566,224.308,128.21,240.358z"
						/>
				</g>
				<g>
					<path style="fill:#28234C;" d="M181.753,159.207c2.13-1.51,4.478-2.701,6.924-3.634c1.219-0.485,2.476-0.86,3.74-1.217
						c0.641-0.175,1.255-0.313,1.936-0.453c0.684-0.128,1.411-0.224,2.215-0.138c0.787,0.086,1.713,0.456,2.319,1.189
						c0.602,0.737,0.816,1.614,0.803,2.422c-0.054,1.632-0.856,2.979-1.74,4c-1.776,2.028-3.897,3.654-6.27,4.763
						c1.89-1.784,3.619-3.678,5.026-5.705c0.654-1.009,1.158-2.062,1.09-3.045c-0.021-0.472-0.164-0.915-0.399-1.17
						c-0.238-0.26-0.583-0.417-1.07-0.47c-0.966-0.143-2.23,0.2-3.472,0.444c-1.244,0.241-2.468,0.564-3.705,0.861
						C186.687,157.684,184.248,158.441,181.753,159.207z"/>
				</g>
				<g>
					<path style="fill:#28234C;" d="M170.336,165.715c2.525-1.778,5.388-3.09,8.38-3.977c1.503-0.461,3.012-0.766,4.601-1.005
						c0.812-0.104,1.729-0.123,2.671,0.172c0.946,0.3,1.793,0.983,2.292,1.796c1.007,1.622,1.028,3.657,0.365,5.276
						c-0.666,1.619-1.746,2.885-2.856,3.977c-2.202,2.197-4.663,4.128-7.365,5.623c2.2-2.161,4.292-4.353,6.211-6.674
						c0.933-1.162,1.828-2.32,2.235-3.585c0.217-0.635,0.319-1.233,0.268-1.853c-0.049-0.616-0.237-1.219-0.548-1.696
						c-0.295-0.496-0.71-0.828-1.216-1.011c-0.518-0.186-1.168-0.193-1.87-0.146c-1.448,0.113-2.95,0.371-4.417,0.635
						C176.14,163.822,173.239,164.675,170.336,165.715z"/>
				</g>
				<g>
					<path style="fill:#28234C;" d="M163.865,198.657c-0.061,3.008-0.605,5.972-1.423,8.853c-0.802,2.89-1.924,5.689-3.279,8.367
						c-1.362,2.674-2.966,5.229-4.829,7.579c-1.847,2.358-3.925,4.542-6.323,6.359c1.451-2.632,2.947-5.136,4.379-7.664
						c1.415-2.536,2.794-5.065,4.101-7.634c1.312-2.566,2.544-5.171,3.762-7.807C161.453,204.065,162.595,201.381,163.865,198.657z"
						/>
				</g>
				<g>
					<path style="fill:#28234C;" d="M140.089,292.181c-1.321,9.743-2.933,19.428-4.646,29.093c-0.83,4.838-1.764,9.655-2.65,14.481
						l-2.814,14.448l-2.972,14.417c-1.047,4.794-2.038,9.6-3.14,14.383c-2.146,9.578-4.395,19.135-6.938,28.634
						c1.318-9.744,2.928-19.429,4.642-29.094c0.828-4.838,1.767-9.654,2.65-14.481l2.818-14.447l2.976-14.416
						c1.045-4.794,2.04-9.599,3.14-14.383C135.302,311.237,137.551,301.68,140.089,292.181z"/>
				</g>
				<g>
					<path style="fill:#28234C;" d="M175.715,316.705c-3.761,7.544-7.225,15.173-10.238,22.969
						c-1.48,3.907-2.921,7.825-4.174,11.804c-1.281,3.967-2.473,7.97-3.483,12.007c-1.056,4.023-1.918,8.083-2.48,12.172
						c-0.601,4.084-0.82,8.211-0.642,12.316c0.426,8.181,2.699,16.427,7.651,23.288c-2.973-3.002-5.251-6.703-6.906-10.647
						c-1.629-3.962-2.646-8.183-3.079-12.463c-0.471-4.282-0.296-8.599,0.158-12.852c0.497-4.254,1.364-8.439,2.394-12.56
						c2.152-8.208,4.931-16.242,8.409-23.965C166.784,331.052,170.885,323.617,175.715,316.705z"/>
				</g>
			</g>
			<g>
				<path style="fill:#D27876;" d="M257.069,238.331l21.458-7.285c0,0-0.003,25.861,3.676,33.831
					c1.667,3.612,8.255,6.951,18.145,10.662c-11.662,29.028-26.182,56.905-43.278,83.103V238.331z"/>
				<g>
					<path style="fill:#6400E3;" d="M257.069,358.643c17.097-26.198,31.617-54.075,43.278-83.103
						c2.63,0.987,5.505,2.002,8.572,3.054c-11.155,33.675-28.88,65.156-51.851,92.188V358.643z"/>
					<path style="fill:#8F7EFE;" d="M308.92,278.594c10.855,3.723,24.252,7.926,38.894,13.155
						c34.337,12.263,57.637,71.126,57.637,71.126l-30.045,44.76l-15.942-20.847c0,0,1.071,11.96-5.513,22.164
						c-6.363,9.864-15.948,12.786-15.948,12.786L344.735,500h-87.665V370.782C280.04,343.75,297.765,312.269,308.92,278.594z"/>
				</g>
				<path style="fill:#D27876;" d="M375.406,407.636c0,0,45.202,59.748,70.359,33.333s-59.836-200.612-59.836-200.612l-21.671,8.012
					l28.214,129.68c0,0-6.828,4.267-11.379,11.948C376.541,397.679,375.406,407.636,375.406,407.636z"/>
				<g>
					<path style="fill:#D27876;" d="M385.929,240.358c0,0-17.015-54.622-23.161-61.822s-53.909-35.647-56.192-29.676
						s34.242,31.783,37.93,36.173c3.688,4.39,6.45,17.581,6.45,17.581s-7.328,7.354-13.65,5.423
						c-6.322-1.932-17.091-8.391-25.695-7.513c-8.604,0.878-9.425,0.313-9.6,2.947c-0.176,2.634,27.745,14.399,33.013,18.438
						c5.268,4.039,29.235,26.461,29.235,26.461"/>
					<path style="fill:#28234C;" d="M385.929,240.358c-5.357-16.049-10.77-32.1-17.019-47.799c-1.592-3.9-3.203-7.832-5.223-11.467
						c-0.242-0.464-0.537-0.874-0.802-1.312c-0.297-0.398-0.571-0.801-0.919-1.154c-0.703-0.717-1.498-1.394-2.309-2.047
						c-1.631-1.303-3.341-2.532-5.072-3.728c-6.943-4.772-14.219-9.085-21.567-13.223c-3.685-2.051-7.411-4.029-11.2-5.856
						c-1.894-0.913-3.806-1.785-5.739-2.583c-1.931-0.782-3.897-1.531-5.858-1.977c-0.49-0.115-0.972-0.187-1.44-0.234
						c-0.453-0.034-0.914-0.009-1.163,0.087c-0.131,0.047-0.154,0.084-0.165,0.106c-0.019-0.012-0.05,0.155-0.055,0.277
						c-0.008,0.293,0.12,0.721,0.314,1.132c0.818,1.688,2.239,3.293,3.631,4.805c2.855,3.029,6.019,5.825,9.211,8.569
						c6.412,5.478,13.1,10.639,19.671,16.004l2.453,2.046c0.815,0.708,1.613,1.379,2.418,2.246c1.525,1.838,2.357,3.843,3.178,5.847
						c1.555,4.034,2.658,8.142,3.582,12.329l0.111,0.501l-0.36,0.339c-2.087,1.966-4.364,3.596-6.986,4.791
						c-1.305,0.59-2.726,1.005-4.211,1.139c-0.737,0.092-1.505,0.033-2.253-0.065l-1.119-0.246l-1-0.336
						c-2.632-0.938-5.105-2.079-7.611-3.127c-2.498-1.055-5.008-2.051-7.569-2.824c-2.556-0.755-5.175-1.344-7.779-1.336
						c-1.263,0.024-2.655,0.183-4.014,0.29c-1.36,0.114-2.729,0.203-4.052,0.338c-0.642,0.074-1.325,0.167-1.75,0.355
						c-0.197,0.105-0.282,0.167-0.356,0.327c-0.068,0.188-0.134,0.448-0.154,0.769c-0.196,0.006,0.366,0.587,0.842,0.942
						c0.508,0.391,1.062,0.761,1.625,1.118c2.273,1.419,4.684,2.688,7.091,3.945c4.827,2.503,9.73,4.885,14.586,7.376
						c2.423,1.261,4.857,2.492,7.195,3.972c1.188,0.746,2.23,1.685,3.259,2.567c1.037,0.893,2.047,1.808,3.062,2.72
						c8.069,7.341,15.986,14.83,23.841,22.388c-8.093-7.299-16.143-14.653-24.361-21.799c-1.031-0.887-2.06-1.78-3.107-2.642
						c-1.055-0.866-2.067-1.74-3.206-2.419c-2.302-1.382-4.743-2.603-7.172-3.818c-4.874-2.419-9.807-4.736-14.688-7.186
						c-2.439-1.234-4.873-2.471-7.243-3.907c-0.592-0.364-1.178-0.743-1.756-1.176c-0.288-0.223-0.574-0.453-0.859-0.751
						c-0.141-0.151-0.286-0.315-0.423-0.569c-0.064-0.144-0.139-0.276-0.155-0.524l-0.005-0.162l0.006-0.07l0.012-0.139
						c0.023-0.358,0.084-0.775,0.257-1.223c0.187-0.482,0.648-0.889,1.059-1.078c0.827-0.365,1.523-0.417,2.225-0.521
						c1.386-0.16,2.735-0.264,4.089-0.396c1.356-0.122,2.671-0.299,4.133-0.35c2.858-0.046,5.628,0.548,8.285,1.329
						c5.326,1.559,10.259,4.09,15.273,5.906l0.939,0.311l0.879,0.186c0.595,0.07,1.202,0.125,1.817,0.041
						c1.225-0.116,2.46-0.47,3.633-1.008c2.339-1.068,4.548-2.665,6.413-4.44l-0.25,0.84c-0.914-4.067-2.035-8.152-3.544-12.008
						c-0.769-1.896-1.647-3.839-2.847-5.26c-1.344-1.386-3.066-2.74-4.672-4.064c-6.579-5.286-13.266-10.503-19.696-16.052
						c-3.209-2.784-6.388-5.613-9.326-8.756c-1.444-1.604-2.904-3.188-3.942-5.321c-0.241-0.546-0.473-1.146-0.472-1.917
						c0.028-0.398,0.052-0.784,0.342-1.237c0.264-0.43,0.697-0.714,1.063-0.84c0.751-0.264,1.375-0.23,1.972-0.197
						c0.585,0.059,1.149,0.151,1.689,0.279c2.166,0.506,4.163,1.287,6.147,2.097c1.974,0.826,3.91,1.719,5.822,2.651
						c3.825,1.865,7.568,3.873,11.267,5.953c7.394,4.168,14.597,8.657,21.552,13.543c1.733,1.232,3.445,2.496,5.102,3.855
						c0.827,0.685,1.639,1.39,2.407,2.194c0.391,0.407,0.714,0.884,1.04,1.338c0.278,0.468,0.593,0.927,0.835,1.405
						c2.042,3.794,3.59,7.738,5.144,11.686c3.071,7.904,5.758,15.936,8.408,23.975C380.982,224.171,383.52,232.245,385.929,240.358z
						"/>
				</g>
				<g>
					<path style="fill:#28234C;" d="M332.385,159.207c-2.494-0.766-4.933-1.523-7.398-2.153c-1.237-0.298-2.461-0.621-3.705-0.861
						c-1.242-0.244-2.506-0.587-3.472-0.444c-0.486,0.053-0.832,0.21-1.07,0.47c-0.235,0.256-0.378,0.698-0.399,1.17
						c-0.068,0.983,0.436,2.035,1.091,3.045c1.406,2.027,3.135,3.921,5.026,5.705c-2.373-1.109-4.494-2.735-6.27-4.763
						c-0.884-1.021-1.686-2.367-1.74-4c-0.013-0.808,0.202-1.686,0.803-2.422c0.606-0.732,1.532-1.102,2.319-1.189
						c0.804-0.086,1.531,0.01,2.215,0.138c0.68,0.14,1.294,0.278,1.936,0.453c1.263,0.357,2.521,0.732,3.739,1.217
						C327.907,156.505,330.256,157.697,332.385,159.207z"/>
				</g>
				<g>
					<path style="fill:#28234C;" d="M343.803,165.715c-2.903-1.04-5.804-1.893-8.75-2.467c-1.467-0.265-2.969-0.522-4.418-0.635
						c-0.702-0.047-1.352-0.04-1.87,0.146c-0.506,0.183-0.92,0.515-1.216,1.011c-0.311,0.477-0.5,1.08-0.548,1.696
						c-0.051,0.62,0.051,1.218,0.268,1.853c0.406,1.265,1.302,2.423,2.235,3.585c1.919,2.32,4.011,4.513,6.211,6.674
						c-2.702-1.495-5.163-3.426-7.365-5.623c-1.11-1.092-2.19-2.358-2.856-3.977c-0.663-1.619-0.642-3.654,0.365-5.276
						c0.498-0.813,1.346-1.496,2.292-1.796c0.942-0.296,1.859-0.276,2.671-0.172c1.589,0.238,3.098,0.544,4.601,1.005
						C338.415,162.625,341.278,163.938,343.803,165.715z"/>
				</g>
				<g>
					<path style="fill:#28234C;" d="M350.274,198.657c1.27,2.723,2.412,5.408,3.614,8.053c1.218,2.636,2.45,5.241,3.762,7.807
						c1.306,2.57,2.685,5.099,4.101,7.634c1.432,2.527,2.928,5.031,4.379,7.664c-2.398-1.817-4.476-4.001-6.323-6.359
						c-1.863-2.35-3.467-4.904-4.83-7.579c-1.356-2.677-2.478-5.477-3.28-8.367C350.879,204.629,350.335,201.665,350.274,198.657z"
						/>
				</g>
				<g>
					<path style="fill:#28234C;" d="M374.05,292.181c2.539,9.499,4.787,19.057,6.933,28.635c1.1,4.783,2.095,9.588,3.14,14.383
						l2.976,14.416l2.818,14.447c0.883,4.827,1.822,9.643,2.65,14.481c1.714,9.665,3.324,19.35,4.642,29.094
						c-2.542-9.499-4.792-19.056-6.938-28.634c-1.102-4.783-2.093-9.589-3.14-14.383l-2.972-14.417l-2.814-14.448
						c-0.885-4.827-1.82-9.643-2.65-14.481C376.983,311.609,375.371,301.924,374.05,292.181z"/>
				</g>
				<g>
					<path style="fill:#28234C;" d="M338.424,316.705c4.831,6.912,8.931,14.348,12.39,22.072c3.478,7.722,6.257,15.756,8.409,23.965
						c1.03,4.12,1.897,8.306,2.394,12.56c0.454,4.253,0.629,8.57,0.158,12.852c-0.433,4.28-1.45,8.5-3.079,12.463
						c-1.655,3.944-3.933,7.644-6.906,10.647c4.952-6.861,7.224-15.108,7.651-23.288c0.178-4.105-0.041-8.232-0.642-12.316
						c-0.562-4.089-1.424-8.149-2.48-12.172c-1.01-4.038-2.202-8.04-3.483-12.007c-1.253-3.979-2.695-7.897-4.174-11.804
						C345.649,331.878,342.185,324.249,338.424,316.705z"/>
				</g>
			</g>
			<g>
				<path style="fill:#28234C;" d="M229.964,234.148c4.245,2.183,8.711,3.644,13.225,4.702c2.275,0.453,4.538,0.938,6.846,1.126
					c1.144,0.151,2.298,0.208,3.448,0.3c1.151,0.071,2.308,0.056,3.46,0.087c1.152-0.039,2.307-0.016,3.457-0.094
					c1.149-0.092,2.303-0.151,3.445-0.31c2.305-0.193,4.564-0.691,6.836-1.158c4.505-1.083,8.959-2.581,13.182-4.806
					c-1.731,1.668-3.775,2.985-5.88,4.168c-2.128,1.143-4.352,2.142-6.665,2.89c-4.614,1.544-9.501,2.26-14.375,2.308
					c-4.872-0.046-9.755-0.749-14.377-2.264c-2.316-0.736-4.546-1.716-6.683-2.841C233.77,237.092,231.713,235.796,229.964,234.148z
					"/>
			</g>
			<path style="fill:none;stroke:#6400E3;stroke-miterlimit:10;" d="M325.075,284.127c2.128,9.724-0.071,20.313-5.895,28.386
				c-7.445,10.32-20.523,16.923-24.003,29.163c-2.509,8.826,1.161,18.838,8.245,24.669c7.245,5.962,17.784,8.249,22.574,16.317
				c3.992,6.723,2.569,15.336-0.145,22.669c-2.714,7.333-6.625,14.394-7.368,22.178c-1.292,13.52,8.671,27.21,21.933,30.138"/>
			<path style="fill:none;stroke:#6400E3;stroke-miterlimit:10;" d="M319.288,328.338c-5.671,1.813-10.511,6.08-13.019,11.48
				c-0.982,2.114-1.624,4.443-1.421,6.766c0.388,4.441,3.763,8.072,7.473,10.544s7.919,4.168,11.452,6.887
				c3.638,2.799,6.457,6.651,8.025,10.966c1.879,5.171,2.097,11.149,5.603,15.389c0.833,1.008,1.865,1.898,3.105,2.312
				c3.139,1.048,6.474-1.261,8.296-4.023c2.314-3.51,3.165-7.823,3.137-12.027c-0.028-4.204-0.88-8.354-1.729-12.471
				c-1.29-6.26-2.58-12.519-3.87-18.779c-0.61-2.958-1.233-5.957-2.6-8.65C339.539,328.453,327.552,325.697,319.288,328.338z"/>
			<path style="fill:none;stroke:#6400E3;stroke-miterlimit:10;" d="M336.986,287.91c-0.459,5.67-0.374,11.917,3.236,16.313
				c2.312,2.816,5.731,4.429,8.733,6.493c7.852,5.4,13.086,14.44,13.859,23.939c0.652,8.017-1.629,16.549,1.701,23.872
				c1.929,4.242,5.64,7.565,9.938,9.366c4.298,1.801,9.138,2.134,13.725,1.317"/>
			<path style="fill:none;stroke:#6400E3;stroke-miterlimit:10;" d="M363.335,391.124c2.759-3.549,5.991-6.887,10.074-8.769
				c4.083-1.882,9.161-2.078,12.899,0.418"/>
			<path style="fill:none;stroke:#6400E3;stroke-miterlimit:10;" d="M172.957,453.293c7.452,3.636,16.519,0.778,23.473-3.739
				s12.868-10.626,20.282-14.34c11.767-5.895,27.532-4.323,36.343,5.454c8.365,9.281,9.625,24.002,19.542,31.602
				c5.114,3.919,11.777,5.244,18.216,5.452c6.44,0.207,12.881-0.585,19.321-0.371c3.749,0.125,7.588,0.623,10.888,2.406
				c6.973,3.769,9.872,12.212,11.194,20.027"/>
			<path style="fill:none;stroke:#6400E3;stroke-miterlimit:10;" d="M287.144,499.587c-3.634-6.234-8.07-12.123-13.838-16.458
				s-12.992-7.017-20.179-6.383c-12.819,1.132-23.743,12.328-36.556,11.133c-6.059-0.565-11.604-3.907-17.668-4.406
				c-9.671-0.797-19.273,6.913-20.584,16.527"/>
			<path style="fill:none;stroke:#6400E3;stroke-miterlimit:10;" d="M212,453.609c-3.802,4.646-5.797,10.855-4.896,16.79
				c0.889,5.856,5.646,11.705,11.555,11.294c3.589-0.25,6.596-2.652,9.614-4.61c5.001-3.245,10.715-5.556,14.884-9.817
				c4.169-4.262,6.252-11.504,2.505-16.141c-4.15-5.136-12.346-4.31-18.2-5.247C221.388,444.906,215.758,449.018,212,453.609z"/>
			<path style="fill:none;stroke:#6400E3;stroke-miterlimit:10;" d="M276.849,428.422c-2.412,3.271-3.305,7.4-3.902,11.42
				c-0.656,4.417-1.012,9.033,0.43,13.259c2.584,7.57,10.387,12.198,18.153,14.114c7.211,1.78,15.79,1.393,20.827-4.065
				c3.253-3.525,4.411-8.622,3.96-13.397c-0.452-4.776-2.355-9.296-4.579-13.546c-3.168-6.055-8.152-13.048-15.381-14.317
				C289.606,420.705,281.062,422.709,276.849,428.422z"/>
			<path style="fill:none;stroke:#6400E3;stroke-miterlimit:10;" d="M275.037,346.853c0.782,6.023,4.809,11.095,9.07,15.422
				s8.999,8.374,11.876,13.722c5.903,10.975,2.086,25.615-7.23,33.891c-3.987,3.542-9.047,6.143-14.38,6.198
				c-6.639,0.069-12.628-3.69-18.961-5.686c-6.896-2.174-14.442-2.235-21.372-0.174c-4.369,1.299-8.46,3.406-12.803,4.789
				c-4.343,1.383-9.168,2.002-13.395,0.297c-5.864-2.366-9.21-8.596-10.943-14.677c-3.654-12.822-2.033-27.224,5.098-38.489
				s19.858-19.003,33.186-19.346"/>
			<path style="fill:none;stroke:#6400E3;stroke-miterlimit:10;" d="M206.254,281.043c-1.836,10.707-13.837,16.488-18.64,26.231
				c-2.676,5.429-2.92,11.737-2.418,17.769c0.312,3.75,0.934,7.598,2.926,10.79c2.283,3.659,6.343,6.149,10.639,6.525
				c11.036,0.966,19.816-10.877,30.894-10.84"/>
			<path style="fill:none;stroke:#6400E3;stroke-miterlimit:10;" d="M165.806,335.596c2.877,3.87,7.084,6.487,10.729,9.645
				c6.491,5.625,11.493,14.276,9.34,22.591c-2.181,8.424-11.131,14.542-11.131,23.243c0,3.888,1.874,7.639,1.585,11.516
				c-0.421,5.657-5.185,9.879-9.593,13.451"/>
			<path style="fill:none;stroke:#6400E3;stroke-miterlimit:10;" d="M134.439,327.252c9.072,4.268,21.153,0.271,25.89-8.565
				c1.592-2.97,2.495-6.441,4.972-8.725c2.596-2.395,6.343-2.955,9.546-4.443c7.053-3.276,11.253-11.755,9.584-19.351"/>
			<path style="fill:none;stroke:#6400E3;stroke-miterlimit:10;" d="M160.771,344.468c-9.479,0.137-18.816,4.54-24.952,11.767
				c-6.136,7.227-8.967,17.154-7.564,26.53"/>
		</g>
		<g>
			<path style="fill:none;stroke:#8F7EFE;stroke-width:2;stroke-linecap:round;stroke-miterlimit:10;" d="M310.981,56.673
				c87.315,8.86,151.188,23.461,150.366,35.64c-0.978,14.481-93.059,20.054-205.668,12.447
				C143.069,97.153,52.574,79.247,53.552,64.765c0.846-12.516,69.743-18.378,161.129-14.827"/>
			<g>
				<g>
					<path style="fill:none;stroke:#8F7EFE;stroke-width:2;stroke-miterlimit:10;" d="M300.636,50.5
						c0.334-0.009,0.667-0.017,1-0.025"/>
					<path style="fill:none;stroke:#8F7EFE;stroke-width:2;stroke-miterlimit:10;stroke-dasharray:1.9998,1.9998;" d="
						M303.638,50.425c89.901-2.127,157.197,4.624,157.871,17.01c0.789,14.493-89.933,31.213-202.632,37.346
						S54.178,104.136,53.389,89.643c-0.646-11.867,60.065-25.228,143.958-33.046"/>
					<path style="fill:none;stroke:#8F7EFE;stroke-width:2;stroke-miterlimit:10;" d="M198.341,56.504
						c0.332-0.031,0.664-0.061,0.997-0.092"/>
				</g>
			</g>
			<path style="fill:#8F7EFE;" d="M418.207,52.318c0,2.917-2.365,5.282-5.282,5.282c-2.917,0-5.282-2.365-5.282-5.282
				s2.365-5.282,5.282-5.282C415.842,47.036,418.207,49.401,418.207,52.318z"/>
			<circle style="fill:#8F7EFE;" cx="156.127" cy="61.433" r="5.282"/>
			<path style="fill:#8F7EFE;" d="M379.565,107.924c0,2.917-2.365,5.282-5.282,5.282c-2.917,0-5.282-2.365-5.282-5.282
				s2.365-5.282,5.282-5.282C377.2,102.643,379.565,105.007,379.565,107.924z"/>
			<path style="fill:#8F7EFE;" d="M99.21,84.122c0,2.917-2.365,5.282-5.282,5.282c-2.917,0-5.282-2.365-5.282-5.282
				c0-2.917,2.365-5.282,5.282-5.282C96.845,78.84,99.21,81.205,99.21,84.122z"/>
		</g>
		<g>
			<g>
				<g>
					<path style="fill:#28234C;" d="M474.583,202.818c-2.597-1.795-5.182-3.606-7.751-5.438l-7.687-5.52
						c-5.097-3.715-10.186-7.443-15.234-11.221l1.969-0.539c-1.304,3.537-2.643,7.059-3.99,10.578
						c-1.351,3.518-2.665,7.05-4.047,10.556l-0.845,2.143l-1.691-1.573c-5.246-4.88-10.525-9.727-15.719-14.663l-7.816-7.378
						l-7.758-7.44l2.309-0.552c-1.006,2.687-2.04,5.364-3.08,8.038l-3.114,8.026l-0.564,1.452l-1.149-0.969
						c-3.701-3.12-7.422-6.216-11.093-9.375c-3.69-3.135-7.34-6.32-10.967-9.533c3.953,2.803,7.884,5.634,11.775,8.516
						c3.909,2.858,7.77,5.778,11.649,8.674l-1.712,0.484l2.774-8.15c0.923-2.717,1.851-5.433,2.808-8.138l0.711-2.011l1.598,1.459
						l7.939,7.246l7.882,7.308c5.271,4.855,10.458,9.799,15.677,14.709l-2.536,0.57c1.389-3.503,2.845-6.979,4.265-10.469
						c1.424-3.489,2.854-6.975,4.321-10.447l0.669-1.585l1.3,1.045c4.914,3.951,9.789,7.954,14.655,11.967l7.258,6.074
						C469.801,198.695,472.198,200.749,474.583,202.818z"/>
				</g>
				<g>
					<path style="fill:#28234C;" d="M459.212,123.693c-4.84,0.195-9.678,0.275-14.516,0.364c-4.837,0.06-9.674,0.109-14.511,0.109
						l0.962-1.236c0.824,2.771,1.62,5.549,2.41,8.329l2.365,8.341l0.484,1.706l-1.779-0.191c-5.464-0.586-10.933-1.137-16.391-1.782
						c-5.462-0.609-10.919-1.262-16.373-1.944l1.164-1.4c1.229,4.226,2.388,8.473,3.577,12.712l0.322,1.148l-1.151-0.064
						c-7.414-0.412-14.827-0.855-22.235-1.475c7.431-0.198,14.857-0.218,22.283-0.206l-0.829,1.084
						c-1.356-4.188-2.74-8.367-4.056-12.567l-0.488-1.558l1.652,0.158c5.471,0.522,10.94,1.073,16.403,1.669
						c5.467,0.559,10.925,1.213,16.385,1.83l-1.295,1.515l-2.192-8.389c-0.729-2.797-1.452-5.595-2.147-8.401l-0.317-1.281
						l1.279,0.045c4.833,0.169,9.666,0.386,14.498,0.615C449.55,123.081,454.382,123.329,459.212,123.693z"/>
				</g>
			</g>
			<g>
				<g>
					<path style="fill:#28234C;" d="M39.94,202.818c2.385-2.069,4.781-4.123,7.194-6.156l7.258-6.074
						c4.866-4.013,9.741-8.016,14.655-11.967l1.3-1.045l0.67,1.585c1.467,3.472,2.898,6.958,4.321,10.447
						c1.419,3.491,2.876,6.966,4.265,10.469l-2.536-0.57c5.219-4.91,10.406-9.855,15.677-14.709l7.882-7.308l7.94-7.246l1.598-1.459
						l0.711,2.011c0.957,2.705,1.885,5.42,2.808,8.138l2.774,8.15l-1.712-0.484c3.879-2.896,7.739-5.816,11.648-8.674
						c3.891-2.882,7.821-5.713,11.775-8.516c-3.627,3.214-7.277,6.399-10.967,9.533c-3.671,3.158-7.391,6.254-11.093,9.375
						l-1.149,0.969l-0.563-1.452l-3.114-8.026c-1.04-2.674-2.074-5.351-3.081-8.038l2.309,0.552l-7.758,7.44l-7.816,7.378
						c-5.194,4.936-10.473,9.783-15.719,14.663l-1.691,1.573l-0.845-2.143c-1.382-3.505-2.695-7.038-4.047-10.556
						c-1.347-3.519-2.686-7.041-3.99-10.578l1.969,0.539c-5.049,3.778-10.137,7.505-15.234,11.22l-7.687,5.52
						C45.122,199.212,42.537,201.023,39.94,202.818z"/>
				</g>
				<g>
					<path style="fill:#28234C;" d="M55.31,123.693c4.83-0.364,9.662-0.612,14.494-0.87c4.832-0.229,9.665-0.447,14.498-0.615
						l1.279-0.045l-0.317,1.281c-0.695,2.806-1.418,5.604-2.146,8.401l-2.192,8.389l-1.295-1.515
						c5.461-0.618,10.918-1.271,16.385-1.83c5.464-0.595,10.932-1.146,16.403-1.669l1.652-0.158l-0.488,1.558
						c-1.315,4.2-2.7,8.379-4.056,12.567l-0.829-1.084c7.425-0.012,14.851,0.008,22.282,0.206
						c-7.408,0.621-14.821,1.064-22.235,1.475l-1.151,0.064l0.322-1.148c1.188-4.238,2.348-8.486,3.577-12.712l1.164,1.4
						c-5.454,0.682-10.911,1.335-16.373,1.944c-5.458,0.645-10.926,1.196-16.391,1.782l-1.779,0.191L78.6,139.6l2.365-8.341
						c0.79-2.78,1.585-5.558,2.41-8.329l0.962,1.236c-4.836,0-9.674-0.049-14.511-0.109C64.988,123.968,60.15,123.888,55.31,123.693
						z"/>
				</g>
			</g>
		</g>
	</g>
</g>
</svg>
