<?xml version="1.0" encoding="utf-8"?>
<!-- Generator: Adobe Illustrator 27.5.0, SVG Export Plug-In . SVG Version: 6.00 Build 0)  -->
<svg version="1.1" xmlns="http://www.w3.org/2000/svg" xmlns:xlink="http://www.w3.org/1999/xlink" x="0px" y="0px"
	 viewBox="0 0 500 500" style="enable-background:new 0 0 500 500;" xml:space="preserve">
<g id="Floor">
	<path id="Floor_00000107580658230954330200000001971256659486645429_" style="fill:#FAFAFA;" d="M77.661,248.242
		c-95.177,54.951-95.175,144.044,0.005,198.995c95.18,54.951,249.496,54.951,344.674,0c95.178-54.951,95.175-144.044-0.005-198.995
		C327.154,193.291,172.838,193.291,77.661,248.242z"/>
</g>
<g id="Thoughts_00000100374018034888262090000018077862183324887989_">
	<g id="Thoughts" style="opacity:0.25;">
		<g>
			<g>
				<path style="fill:#BA68C8;" d="M178.739,375.159c-28.888,0-57.02-8.977-81.043-26.148
					c-30.408-21.738-50.524-53.967-56.64-90.738l0,0c-6.115-36.773,2.489-73.773,24.229-104.182
					c21.74-30.41,53.967-50.525,90.744-56.64c36.771-6.115,73.772,2.489,104.182,24.228c30.41,21.738,50.524,53.962,56.639,90.736
					c6.115,36.774-2.489,73.774-24.228,104.185c-21.738,30.411-53.963,50.526-90.736,56.641
					C194.16,374.524,186.421,375.159,178.739,375.159z M179.17,96.475c-7.633,0-15.312,0.63-22.987,1.906
					c-36.528,6.074-68.537,26.054-90.13,56.258c-21.592,30.204-30.139,66.953-24.065,103.479
					c6.073,36.524,26.053,68.531,56.258,90.124c30.206,21.593,66.956,30.138,103.485,24.065
					c36.524-6.073,68.53-26.053,90.122-56.258c21.592-30.206,30.138-66.955,24.064-103.48
					c-6.073-36.525-26.052-68.531-56.256-90.123C235.804,105.392,207.858,96.475,179.17,96.475z"/>
			</g>
		</g>
		<g>
			<g>
				<path style="fill:#BA68C8;" d="M232.372,375.142c-29.025,0-57.294-9.02-81.432-26.274
					c-30.557-21.844-50.77-54.224-56.913-91.176c-6.145-36.951,2.502-74.129,24.346-104.686
					c21.844-30.557,54.224-50.77,91.176-56.914c36.947-6.146,74.13,2.503,104.686,24.346c30.558,21.844,50.77,54.224,56.913,91.174
					c6.145,36.952-2.501,74.13-24.346,104.688c-21.844,30.557-54.224,50.769-91.175,56.913
					C247.864,374.504,240.091,375.142,232.372,375.142z M232.8,95.108c-7.667,0-15.387,0.634-23.098,1.916
					c-36.702,6.103-68.864,26.18-90.562,56.531c-21.697,30.352-30.285,67.28-24.183,103.982
					c11.336,68.172,70.606,116.642,137.553,116.647c7.578,0.001,15.244-0.619,22.961-1.902c36.702-6.103,68.864-26.18,90.561-56.531
					c21.697-30.352,30.286-67.28,24.183-103.982c-6.103-36.702-26.179-68.864-56.53-90.561
					C289.709,104.068,261.629,95.108,232.8,95.108z"/>
			</g>
		</g>
		<g>
			<g>
				<path style="fill:#BA68C8;" d="M292.143,368.74c-67.406,0-127.07-48.798-138.483-117.437
					C140.956,174.9,192.778,102.406,269.18,89.703c36.95-6.144,74.129,2.501,104.686,24.346
					c30.557,21.844,50.77,54.224,56.913,91.175c12.704,76.402-39.118,148.896-115.521,161.6
					C307.496,368.115,299.768,368.74,292.143,368.74z M154.591,251.149c12.619,75.888,84.62,127.362,160.514,114.743
					c75.888-12.619,127.361-84.625,114.743-160.513c-6.103-36.703-26.18-68.865-56.531-90.562
					c-30.353-21.698-67.28-30.283-103.982-24.183C193.447,103.253,141.973,175.259,154.591,251.149z"/>
			</g>
		</g>
		<g>
			<g>
				<path style="fill:#BA68C8;" d="M183.267,329.697c-67.407,0-127.073-48.801-138.486-117.44
					c-12.703-76.403,39.12-148.896,115.523-161.6c36.95-6.145,74.129,2.502,104.686,24.346
					c30.557,21.844,50.77,54.224,56.913,91.175c12.704,76.405-39.118,148.9-115.521,161.604
					C198.619,329.072,190.892,329.697,183.267,329.697z M45.712,212.101c12.619,75.891,84.63,127.366,160.516,114.748
					c75.888-12.619,127.361-84.626,114.743-160.517c-6.103-36.702-26.18-68.864-56.531-90.562
					c-30.353-21.697-67.278-30.283-103.982-24.183C84.57,64.207,33.095,136.212,45.712,212.101z"/>
			</g>
		</g>
		<g>
			<g>
				<path style="fill:#BA68C8;" d="M206.975,334.922c-67.406,0-127.071-48.798-138.484-117.436
					C55.787,141.083,107.609,68.589,184.012,55.885c36.949-6.145,74.13,2.502,104.687,24.346
					c30.557,21.844,50.77,54.224,56.913,91.175c6.145,36.951-2.502,74.129-24.346,104.686
					c-21.844,30.557-54.224,50.77-91.175,56.913C222.328,334.297,214.6,334.922,206.975,334.922z M69.422,217.331
					c12.619,75.888,84.622,127.361,160.515,114.744c75.888-12.619,127.361-84.625,114.743-160.513
					c-6.103-36.703-26.18-68.865-56.531-90.562c-30.353-21.697-67.28-30.284-103.982-24.183
					C108.278,69.436,56.804,141.442,69.422,217.331z"/>
			</g>
		</g>
		<g>
			<g>
				<path style="fill:#BA68C8;" d="M214.691,323.475c-17.012,0-33.577-5.286-47.725-15.4
					c-17.907-12.803-29.753-31.781-33.354-53.438c-3.602-21.656,1.466-43.446,14.267-61.355
					c12.802-17.908,31.777-29.753,53.433-33.354c44.771-7.445,87.267,22.926,94.713,67.703c3.602,21.658-1.465,43.448-14.267,61.357
					c-12.803,17.909-31.781,29.756-53.44,33.357C223.77,323.101,219.213,323.474,214.691,323.475z M214.86,159.749
					c-4.42,0-8.893,0.362-13.394,1.11c-21.405,3.56-40.164,15.269-52.818,32.972c-12.654,17.703-17.663,39.242-14.104,60.65
					c3.559,21.408,15.27,40.168,32.972,52.824c17.702,12.655,39.24,17.666,60.647,14.106c21.409-3.56,40.17-15.271,52.825-32.975
					c12.655-17.703,17.664-39.243,14.104-60.652C288.481,188.023,253.91,159.749,214.86,159.749z"/>
			</g>
		</g>
		<g>
			<g>
				<path style="fill:#BA68C8;" d="M253.215,264.326c-39.506,0.001-74.476-28.602-81.165-68.83
					c-3.602-21.657,1.466-43.447,14.268-61.355c12.802-17.908,31.78-29.754,53.439-33.355c44.776-7.446,87.259,22.928,94.705,67.704
					c3.602,21.657-1.465,43.447-14.267,61.357c-12.801,17.909-31.777,29.755-53.433,33.356
					C262.213,263.96,257.685,264.326,253.215,264.326z M253.303,100.607c-4.42,0-8.891,0.362-13.392,1.11
					c-21.409,3.56-40.17,15.27-52.825,32.973c-12.655,17.703-17.664,39.242-14.104,60.65c6.612,39.765,41.184,68.037,80.234,68.04
					c4.42,0.001,8.892-0.361,13.393-1.109c21.406-3.56,40.164-15.27,52.818-32.974c12.654-17.704,17.663-39.244,14.104-60.652
					C326.918,128.882,292.349,100.607,253.303,100.607z"/>
			</g>
		</g>
		<g>
			<g>
				<path style="fill:#BA68C8;" d="M235.333,278.088c-39.507,0-74.477-28.599-81.165-68.826
					c-7.445-44.78,22.928-87.268,67.707-94.713c44.763-7.451,87.259,22.928,94.706,67.708c7.445,44.777-22.925,87.263-67.7,94.708
					C244.331,277.722,239.801,278.088,235.333,278.088z M155.099,209.107c7.36,44.264,49.369,74.284,93.627,66.926
					c44.261-7.359,74.282-49.358,66.923-93.622c-7.361-44.266-49.355-74.288-93.62-66.931
					C177.767,122.841,147.745,164.845,155.099,209.107L155.099,209.107z"/>
			</g>
		</g>
		<g>
			<g>
				<path style="fill:#BA68C8;" d="M273.72,231.195c-39.507,0-74.475-28.599-81.164-68.825
					c-3.602-21.658,1.465-43.449,14.267-61.358c12.803-17.91,31.781-29.756,53.44-33.357c21.654-3.601,43.443,1.467,61.351,14.27
					c17.908,12.803,29.753,31.781,33.354,53.439c3.602,21.657-1.465,43.446-14.267,61.355
					c-12.801,17.908-31.777,29.753-53.433,33.353C282.719,230.829,278.189,231.195,273.72,231.195z M193.488,162.214
					c7.36,44.264,49.372,74.283,93.627,66.926c21.406-3.56,40.164-15.269,52.818-32.972c12.654-17.703,17.663-39.242,14.104-60.649
					c-3.561-21.409-15.27-40.17-32.972-52.826c-17.704-12.656-39.244-17.664-60.648-14.106c-21.409,3.56-40.17,15.271-52.825,32.975
					C194.937,119.265,189.928,140.806,193.488,162.214z"/>
			</g>
		</g>
		<g>
			<g>
				<path style="fill:#BA68C8;" d="M245.155,236.932c-37.398,0-70.502-27.075-76.835-65.157l0,0
					c-3.409-20.502,1.388-41.131,13.508-58.086c12.12-16.955,30.085-28.17,50.586-31.578c42.394-7.051,82.621,21.705,89.67,64.097
					c7.049,42.39-21.708,82.612-64.104,89.662C253.672,236.585,249.385,236.932,245.155,236.932z M169.251,171.62
					c6.965,41.876,46.69,70.28,88.574,63.317c41.881-6.964,70.289-46.699,63.326-88.575c-6.965-41.879-46.702-70.28-88.584-63.32
					c-20.251,3.367-37.998,14.446-49.972,31.196C170.624,130.988,165.884,151.367,169.251,171.62z"/>
			</g>
		</g>
		<g>
			<g>
				<path style="fill:#BA68C8;" d="M172.156,251.61c-39.507,0.001-74.475-28.6-81.164-68.827
					c-3.602-21.657,1.466-43.447,14.268-61.354c12.802-17.908,31.781-29.754,53.44-33.355c44.776-7.448,87.267,22.925,94.713,67.702
					c3.602,21.658-1.466,43.447-14.268,61.355c-12.802,17.908-31.781,29.754-53.441,33.355
					C181.155,251.244,176.624,251.609,172.156,251.61z M172.249,87.896c-4.421,0-8.894,0.362-13.395,1.11
					c-21.41,3.56-40.171,15.27-52.826,32.973c-12.655,17.703-17.664,39.242-14.104,60.65c6.612,39.763,41.184,68.034,80.233,68.037
					c4.42,0,8.893-0.362,13.394-1.11c21.41-3.56,40.171-15.271,52.826-32.973c12.655-17.703,17.664-39.242,14.104-60.65
					C245.869,116.169,211.298,87.896,172.249,87.896z"/>
			</g>
		</g>
		<g>
			<g>
				<path style="fill:#BA68C8;" d="M229.472,302.059c-29.027,0-57.296-9.019-81.434-26.273
					c-30.558-21.844-50.771-54.224-56.914-91.175c-6.145-36.954,2.501-74.134,24.346-104.691
					c21.845-30.558,54.227-50.771,91.183-56.915c36.948-6.146,74.13,2.503,104.686,24.346
					c30.558,21.845,50.771,54.226,56.914,91.179c6.145,36.951-2.502,74.129-24.346,104.686
					c-21.844,30.557-54.224,50.77-91.176,56.913C244.968,301.42,237.192,302.059,229.472,302.059z M229.906,22.021
					c-7.667,0-15.388,0.634-23.099,1.916c-36.706,6.104-68.87,26.181-90.568,56.533c-21.697,30.352-30.286,67.282-24.183,103.987
					c6.103,36.703,26.179,68.864,56.531,90.561c30.353,21.695,67.28,30.283,103.99,24.181c36.702-6.103,68.864-26.18,90.561-56.531
					c21.697-30.352,30.285-67.28,24.183-103.981c-6.102-36.705-26.18-68.868-56.531-90.566
					C286.815,30.98,258.736,22.021,229.906,22.021z"/>
			</g>
		</g>
		<g>
			<g>
				<path style="fill:#BA68C8;" d="M282.757,313.143c-29.027,0.002-57.292-9.019-81.432-26.275
					c-30.557-21.844-50.77-54.225-56.913-91.178c-6.145-36.951,2.502-74.129,24.346-104.687
					c21.844-30.557,54.224-50.769,91.175-56.913c36.95-6.145,74.129,2.502,104.687,24.346c30.557,21.844,50.77,54.224,56.913,91.175
					c12.704,76.405-39.118,148.9-115.521,161.604C298.251,312.505,290.474,313.143,282.757,313.143z M283.186,33.106
					c-7.668,0-15.388,0.634-23.099,1.916c-36.702,6.103-68.864,26.179-90.561,56.531c-21.697,30.351-30.285,67.279-24.183,103.981
					c6.103,36.704,26.18,68.868,56.531,90.565c30.351,21.698,67.277,30.289,103.982,24.184
					c75.888-12.619,127.361-84.626,114.743-160.517c-6.103-36.702-26.18-68.864-56.531-90.562
					C340.094,42.065,312.015,33.106,283.186,33.106z"/>
			</g>
		</g>
	</g>
</g>
<g id="Shadow">
	<path id="Shadow_00000103257088883020645610000003149117662077672609_" style="fill:#E0E0E0;" d="M448.201,432.034
		c-4.825-3.728-9.65-7.456-14.475-11.183c-4.475-3.458-8.997-6.96-12.517-11.356c-3.029-3.782-5.297-9.641-5.454-14.438
		c-0.061-1.87,0.18-3.794,1.061-5.453c1.735-3.268,4.999-4.634,8.021-6.419c3.181-1.878,6.239-3.957,9.16-6.206
		c5.848-4.5,11.151-9.674,15.848-15.323c11.143-13.4,20.472-29.572,17.198-47.45c-0.877-4.789-3.2-10.712-8.422-12.335
		c0.64,4.467,1.258,9.162-0.379,13.377c-1.773-0.255-2.505-2.314-3.002-4.004c-1.411-4.792-3.794-9.305-6.97-13.199
		c-2.015-2.47-4.763-4.858-7.98-4.681c-0.062,1.629,0.893,3.1,1.707,4.52c2.629,4.585,4.097,9.806,4.235,15.066
		c0.019,0.703,0.005,1.441-0.338,2.058c-0.344,0.617-1.123,1.057-1.789,0.798c-0.465-0.181-0.749-0.634-1.005-1.056
		c-3.068-5.074-6.788-9.937-11.831-13.147c-1.226-0.78-2.637-1.479-4.083-1.276c-0.153,1.148,0.607,2.197,1.279,3.149
		c4.19,5.938,6.314,13.256,5.94,20.47c-0.102,1.97-0.73,4.346-2.671,4.855c-5.806,1.523-5.795-8.703-7.939-11.477
		c-0.184-0.239-0.434-0.485-0.738-0.463c-0.272,0.02-0.474,0.248-0.634,0.465c-1.446,1.97-1.985,4.443-2.208,6.861
		c-0.315,3.401-0.073,6.851,0.713,10.178c1.341,5.677,4.395,12.253-0.026,17.285c-11.876,13.517-36.205,13.397-50.047,3.009
		c-7.006-5.258-9.541-14.383-11.038-22.916c-0.456-2.597-0.885-5.283-2.305-7.518c-1.351-2.127-3.483-3.656-5.67-4.948
		c-11.112-6.565-24.476-8.2-37.424-8.914c-28.139-1.551-56.764,0.362-84.255,6.495c-12.458,2.779-25.694,3.434-38.385,5.837
		c-10.374,1.965-20.483,4.51-30.908,5.831c-10.964,1.389-21.923,3.962-31.744,9.078c-11.443,5.961-21.265,15.717-25.045,27.883
		c-1.105,3.557-1.652,7.532-0.051,10.901c1.437,3.024,4.367,5.074,7.286,6.783c6.43,3.764,13.438,6.574,20.713,8.304
		c2.479,0.59,6.226,1.561,6.906,4.45c1.585,6.742-14.697,9.584-18.474,10.406c-9.555,2.082-19.565,2.723-29.138,0.393
		c-3.781-0.92-7.557-2.355-10.368-5.003c-2.812-2.648-4.484-6.712-3.421-10.392c0.931-3.222,3.695-5.597,5.213-8.597
		c0.926-1.831,2.896-10.341-0.519-10.908c-1.894-0.314-2.947,3.991-4.129,4.968c-2.047,1.688-5.507,2.024-7.203-0.005
		c-0.711-0.85-1.004-1.963-1.166-3.051c-0.602-4.028,0.371-8.264,2.675-11.648c1.442-2.117,3.396-3.889,5.641-5.161
		c0.991-0.562,5.468-1.479,5.536-2.448c0.019-0.268-0.094-0.528-0.231-0.76c-0.913-1.545-2.868-2.181-4.682-2.314
		c-6.415-0.47-12.479,2.663-15.402,8.245c-0.253,0.484-0.49,0.99-0.874,1.383c-0.384,0.393-0.956,0.66-1.494,0.526
		c-0.53-0.132-0.903-0.625-1.038-1.145c-0.135-0.52-0.073-1.068,0.001-1.599c0.515-3.704,1.559-7.308,2.697-10.868
		c0.938-2.934,2.947-5.56,3.21-8.694c0.028-0.34,0.024-0.717-0.205-0.973c-0.206-0.23-0.54-0.298-0.85-0.326
		c-3.211-0.285-5.904,2.291-7.791,4.858c-3.262,4.437-5.644,9.494-6.976,14.807c-0.258,1.031-1.246,2.346-2.548,1.796
		c-0.521-0.22-0.78-0.791-0.936-1.327c-0.715-2.459-0.22-5.121,0.73-7.502c0.95-2.382,2.335-4.568,3.485-6.863
		c0.136-0.272,0.259-0.628,0.05-0.851c-0.112-0.12-0.287-0.157-0.452-0.172c-1.246-0.118-2.393,0.63-3.364,1.406
		c-5.511,4.406-7.819,10.482-9.658,17.052c-3.429,12.25-2.773,24.695,2.907,36.276c9.202,18.761,30.254,29.173,49.87,34.574
		c14.216,3.914,29.08,5.309,43.811,5.094c0.956-0.014,1.912-0.034,2.868-0.061c10.398-0.294,21.343-0.984,31.464-3.553
		c9.478-2.406,19.836-1.804,29.654-2.163c4.685-0.171,9.455-0.334,13.978,0.899c4.974,1.356,9.33,4.308,13.917,6.66
		c14.636,7.506,31.152,7.83,46.936,11.211c6.364,1.363,14.245,2.499,20.006,5.639c5.494,2.994,10.864,6.803,16.364,9.955
		c6.166,3.534,12.365,7.092,18.98,9.732c10.865,4.335,23.394,4.743,34.649,1.716c5.134-1.381,9.62-4.106,13.074-8.184
		c1.675-1.977,3.137-4.128,4.834-6.087c1.17-1.352,2.531-2.657,4.254-3.135c1.222-0.339,2.52-0.23,3.779-0.073
		c2.811,0.35,5.594,0.923,8.315,1.712c5.234,1.518,10.19,3.609,15.585,4.633c5.415,1.028,10.989,1.342,16.462,0.608
		c8.853-1.187,19.317-5.915,24.913-12.994c2.402-3.039,3.888-6.996,3.094-10.763C455.992,438.243,451.971,434.946,448.201,432.034z"
		/>
</g>
<g id="Character">
	<g id="Character_00000035515676141575152010000005519914863479334279_">
		<path style="fill:#455A64;" d="M209.855,399.074c-22.546-8.272-32.239-20.067-38.6-34.859
			c-5.884-13.684-5.884-23.994-5.884-23.994s20.751,3.555,41.936,1.354c21.186-2.201,28.614-3.577,28.614-3.577L209.855,399.074z"/>
		<g id="Top_00000124136806567777658820000012788225781968977833_">
			<g>
				<path style="fill:#37474F;" d="M258.988,187.312c18.938,5.352,29.459,16.007,45.519,34.245
					c17.456,19.823,23.851,28.351,23.851,28.351l-4.512,45.5c-13.991,2.535-28.608-11.279-52.281-39.143L258.988,187.312z"/>
			</g>
			<g id="Chest_00000142164078375804333650000017755984066400145851_">
				<g>
					<path id="XMLID_00000044161787874237411980000008146689769759856545_" style="fill:#BA68C8;" d="M272.845,236.221
						c-0.158-33.441-7.814-46.863-14.67-49.246c0,0-24.619-9.793-51.881-5.168c-7.702,1.307-20.586,5.917-30.236,9.399
						c-6.092,2.198-14.621,18.821-16.713,38.676c-1.699,16.128-1.624,29.623-0.608,56.511c1.065,28.184,1.97,34.142,4.751,57.085
						c43.881,10.742,92.815-3.43,116.804-44.7c-2.604-8.347-4.069-16.588-5.297-29.499
						C273.612,254.735,272.893,246.391,272.845,236.221z"/>
				</g>
				<g id="Head_2_">
					<path style="fill:#263238;" d="M206.62,174.498c-0.762-9.102-6.307-19.223-9.664-27.388c-3.238-7.872-5.05-13.92-4.009-20.974
						c0.617-4.178,3.747-9.646,6.963-10.576c-2.278-15.917,10.052-22.167,16.398-23.12c2.434-0.366,6.448-0.909,8.811-1.67
						c3.502-1.127,4.497-3.783,7.421-5.868c5.033-3.589,12.948-3.007,15.448,3.282c3.467-3.776,7.697-3.312,12.489-1.651
						c4.568,1.583,6.448,5.73,5.606,9.993c6.857-3.109,12.472,2.024,12.747,5.925c0.203,2.877-0.605,5.221,1.037,7.924
						c1.85,3.043,5.811,3.33,7.208,1.117c0.335,4.091-1.502,7.033-5.857,6.438c1.322,2.313,1.472,5.211,0.486,7.796
						c-1.337,3.504-5.131,5.309-8.048,5.126c-0.652,2.174-0.919,4.195-2.471,5.985c-1.493,1.722-3.383,3.394-5.544,4.208
						c-6.891,2.595-14.304,3-21.564,3.871c-2.872,0.345-5.744,0.69-8.616,1.035c-0.501,0.061-3.072-0.002-3.413,0.411
						C232.048,146.362,206.62,174.498,206.62,174.498z"/>
					<g id="XMLID_00000119095417526256423400000004604071686165192854_">
						<path style="fill:#FFBDA7;" d="M197.542,162.337c7.065,5.551,11.127,1.182,11.127,1.182l-4.029,21.591
							c12.841,24.983,44.403,21.553,38.579,10.878l1.245-9.73c0,0,6.447,0.664,10.713,0.431c7.116-0.367,13.534-5.429,16.189-12.877
							c2.773-7.783,4.455-20.748,3.535-30.439c-0.235-2.475-0.218-4.979,0.247-7.422c1.234-6.486,0.379-10.394-0.844-16.034
							c-7.213-6.895-25.686-10.411-43.243-1.679c1.085,10.097-3.445,17.643-10.993,20.815c0.109,2.711-0.132,9.517-4.53,9.018
							c-3.169-0.361-2.467-4.364-5.428-8.15c-3.023-3.865-10.648-5.051-15.022-0.126
							C189.535,146.049,192.12,158.077,197.542,162.337z"/>
						<path style="fill:#B16668;" d="M246.21,168.754c1.451,0.018,2.875,0.036,4.334-0.053c0.998-0.061,2.027-0.245,2.847-0.817
							c0.092-0.064,0.185-0.137,0.231-0.24c0.063-0.138,0.029-0.299-0.018-0.443c-0.41-1.239-1.755-1.975-3.057-2.063
							c-1.473-0.101-3.178,0.317-4.303,1.261c-0.399,0.334-2.057,1.698-1.245,2.201c0.2,0.124,0.447,0.137,0.682,0.144
							C245.854,168.747,246.03,168.751,246.21,168.754z"/>
						<path style="fill:#F0997A;" d="M244.464,186.259c-11.047-2.264-19.423-4.199-24.549-12.778
							c-3.215-5.381-5.602-13.799-5.602-13.799s0.302,9.98,3.376,16.984c2.369,5.399,8.902,10.285,26.27,13.278L244.464,186.259z"/>
					</g>
					<g id="XMLID_00000010290674754772405730000004492931974248960944_">
						<path id="XMLID_00000176024295519396502630000005796883519737705106_" style="fill:#263238;" d="M245.047,142.939
							c-0.094,1.806-1.58,3.192-3.318,3.097c-1.738-0.096-3.07-1.637-2.976-3.443c0.095-1.806,1.579-3.193,3.318-3.097
							C243.809,139.592,245.141,141.133,245.047,142.939z"/>
						<path id="XMLID_00000114780811330066086070000004379608860932788873_" style="fill:#263238;" d="M236.243,133.454l6.915-3.388
							c0.9,1.983,0.079,4.349-1.83,5.284C239.418,136.286,237.142,135.437,236.243,133.454z"/>
						<path id="XMLID_00000159442600859623414830000013413969301506954403_" style="fill:#263238;" d="M260.787,130.066l7.398,2.341
							c-0.574,2.083-2.696,3.249-4.739,2.602C261.403,134.363,260.212,132.15,260.787,130.066z"/>
						<path id="XMLID_00000015329772367092149120000015860729433597027254_" style="fill:#263238;" d="M272.421,143.835
							c-0.095,1.805-1.58,3.192-3.318,3.095c-1.737-0.096-3.069-1.637-2.975-3.443c0.094-1.805,1.58-3.192,3.318-3.097
							C271.183,140.487,272.516,142.028,272.421,143.835z"/>
					</g>
				</g>
			</g>
			<path style="fill:#37474F;" d="M175.37,191.513c-11.687,4.492-21.702,10.582-25.33,26.125
				c-3.756,16.09,4.178,36.238,14.669,58.653c8.22,17.563,19.038,30.466,29.8,33.666c10.762,3.2,11.689-41.724,11.689-41.724
				S189.411,212.188,175.37,191.513z"/>
			<g>
				<path style="fill:#FFBDA7;" d="M215.455,205.565c-0.064,8.352-13.975,32.79-20.966,43.451
					c-6.991,10.661-9.084,15.866-10.254,24.987c-1.169,9.121,1.648,24.045,7.257,33.097c3.118,5.032,16.458,3.154,27.299-11.816
					c10.841-14.97,11.383-28.678,13.477-46.377c1.633-13.795,3.653-21.965,4.878-29.224c0.485-2.878,4.416-10.436,7.27-19.775
					c2.854-9.339,0.484-16.085,0.627-19.948c0.095-2.579,0.292-6.961,1.861-11.633c0.781-2.326,1.836-4.772,2.317-7.05
					c1.247-5.896-0.414-8.199-1.941-8.732c0.746-4.155,0.087-6.829-2.29-7.822c0.59-3.707-1.707-6.615-3.517-5.741
					c-1.81,0.874-4.053,5.008-4.053,5.008s-2.42-0.542-4.412,0.569c-1.993,1.111-6.724,7.489-9.917,10.891
					c-3.193,3.402-3.044,7.869-5.071,13.684c0,0-1.193-2.623-3.409-4.901c-2.216-2.277-6.656-1.919-5.361,2.614
					c1.295,4.532,2.181,10.826,2.607,19.102C212.284,194.226,215.455,205.565,215.455,205.565"/>
				<path style="fill:#B16668;" d="M249.885,155.995c-0.113-0.749-0.318-1.504-0.705-2.193c-0.345-0.598-0.859-1.135-1.517-1.454
					c0.23-1.389,0.377-2.816,0.149-4.26c-0.126-0.76-0.361-1.534-0.819-2.203c-0.401-0.591-0.972-1.061-1.606-1.379
					c0.137-1.162,0.055-2.362-0.37-3.477c-0.232-0.597-0.551-1.173-1.005-1.663c-0.448-0.48-1.073-0.906-1.842-0.935
					c-0.803,0.01-1.39,0.488-1.849,0.893c-0.472,0.432-0.876,0.906-1.256,1.392c-0.695,0.903-1.294,1.852-1.853,2.838
					c-1.396-0.2-2.817-0.091-4.123,0.529c-1.393,0.766-2.264,1.902-3.245,2.941c-1.892,2.135-3.654,4.358-5.499,6.5
					c-0.46,0.536-0.928,1.064-1.404,1.581c-0.484,0.533-0.958,1.108-1.335,1.734c-0.779,1.244-1.283,2.621-1.668,3.998
					c-0.696,2.535-1.192,5.079-1.991,7.535c-0.432-0.803-0.902-1.574-1.433-2.31c-0.336-0.465-0.694-0.914-1.073-1.346
					c-0.372-0.428-0.77-0.862-1.265-1.217c-0.968-0.684-2.202-1.084-3.421-0.816c-0.601,0.132-1.186,0.483-1.54,1.019
					c-0.378,0.532-0.44,1.179-0.443,1.77c0.07,1.218,0.512,2.26,0.739,3.357c0.265,1.093,0.484,2.198,0.684,3.306
					c0.4,2.217,0.685,4.457,0.922,6.701c0.493,4.477,0.512,9.032,1.339,13.499c0.757,4.464,1.79,8.874,3.003,13.229
					c-1.135-4.376-2.09-8.801-2.766-13.267c-0.757-4.457-0.651-8.994-1.143-13.504c-0.223-2.254-0.496-4.505-0.885-6.74
					c-0.194-1.117-0.409-2.232-0.67-3.338c-0.228-1.112-0.66-2.205-0.705-3.255c0.007-0.519,0.065-1.062,0.364-1.464
					c0.277-0.41,0.722-0.68,1.22-0.788c1.006-0.223,2.125,0.129,2.974,0.744c0.424,0.305,0.797,0.711,1.163,1.137
					c0.364,0.42,0.709,0.857,1.032,1.311c0.645,0.903,1.234,1.87,1.706,2.858l0.313,0.655l0.245-0.681
					c0.97-2.695,1.5-5.516,2.26-8.216c0.385-1.348,0.879-2.657,1.616-3.818c0.36-0.589,0.794-1.109,1.266-1.623
					c0.488-0.523,0.964-1.054,1.43-1.591c1.869-2.144,3.647-4.357,5.531-6.456c0.947-1.01,1.904-2.153,3.023-2.742
					c1.174-0.564,2.619-0.637,3.902-0.401l0.299,0.055l0.145-0.257c0.577-1.024,1.228-2.034,1.933-2.971
					c0.358-0.464,0.738-0.911,1.152-1.294c0.419-0.383,0.866-0.697,1.299-0.695c0.942,0.042,1.753,1.066,2.136,2.083
					c0.411,1.051,0.486,2.228,0.324,3.359l-0.042,0.293l0.268,0.112c0.624,0.261,1.158,0.681,1.539,1.229
					c0.383,0.549,0.597,1.219,0.714,1.907c0.231,1.389,0.08,2.852-0.161,4.278l-0.049,0.291l0.277,0.099
					c1.227,0.438,1.866,1.862,2.058,3.22c0.192,1.394,0.092,2.841-0.154,4.257c-0.448,2.846-1.699,5.509-2.582,8.316
					c-0.896,2.812-1.367,5.74-1.574,8.667c-0.081,1.457-0.212,2.936-0.056,4.417c0.137,1.467,0.351,2.909,0.496,4.358
					c0.317,2.892,0.349,5.81-0.032,8.689c-0.379,2.88-1.23,5.672-2.152,8.441c-0.93,2.765-1.963,5.497-3.045,8.21l-1.62,4.072
					c-0.518,1.363-1.075,2.726-1.358,4.162c0.308-1.43,0.887-2.78,1.429-4.134l1.691-4.042c1.13-2.695,2.212-5.411,3.194-8.168
					c0.967-2.752,1.897-5.559,2.285-8.483c0.404-2.915,0.388-5.879,0.087-8.795c-0.137-1.459-0.343-2.91-0.469-4.353
					c-0.144-1.431-0.006-2.881,0.083-4.335c0.222-2.895,0.705-5.774,1.601-8.528c0.881-2.752,2.167-5.435,2.654-8.386
					C249.963,159.004,250.083,157.502,249.885,155.995z"/>
				<path style="fill:#F28F8F;" d="M191.492,307.1c0.704,0.944,1.726,1.546,2.811,1.857c1.097,0.287,2.238,0.343,3.366,0.269
					c2.269-0.168,4.443-0.96,6.512-1.892c2.069-0.964,3.988-2.234,5.795-3.637c1.82-1.392,3.511-2.96,5.077-4.648
					c3.198-3.324,5.793-7.23,7.992-11.296c2.195-4.081,3.853-8.441,5.014-12.935c2.381-8.993,3.046-18.346,4.271-27.581
					c0.592-4.626,1.315-9.236,2.165-13.821c0.839-4.587,1.837-9.142,2.652-13.732c-0.763,4.6-1.71,9.166-2.496,13.76
					c-0.793,4.592-1.488,9.201-2.037,13.828c-1.125,9.24-1.662,18.601-3.956,27.702c-1.137,4.541-2.781,8.968-4.974,13.117
					c-0.546,1.038-1.097,2.074-1.725,3.065l-0.911,1.505l-0.987,1.455c-1.315,1.935-2.625,3.906-4.212,5.654
					c-1.565,1.764-3.269,3.414-5.12,4.896c-1.884,1.44-3.918,2.696-6.097,3.662c-2.17,0.973-4.532,1.595-6.934,1.628
					c-1.198,0.017-2.413-0.152-3.534-0.596C193.053,308.913,192.037,308.149,191.492,307.1z"/>
				<g>
					<path style="fill:#F0997A;" d="M225.318,168.305c0.237-2.296,0.308-4.596,0.826-6.899c0.472-2.307,1.556-4.526,2.924-6.416
						c2.616-3.781,5.534-7.045,8.562-10.549c-2.205,4.065-4.941,7.47-7.557,11.258c-1.344,1.824-2.365,3.784-3.015,5.949
						C226.405,163.8,226.013,166.097,225.318,168.305z"/>
				</g>
				<g>
					<path style="fill:#F0997A;" d="M244.598,144.928c-0.615-0.111-1.264-0.093-1.714,0.278c-0.459,0.351-0.769,0.887-1.048,1.418
						c-0.569,1.066-0.951,2.253-1.476,3.405c-1.006,2.302-2.007,4.009-3.126,6.227c-0.56,1.098-1.161,2.215-1.561,3.299
						c-0.402,1.136-0.729,2.356-1.106,3.537c-0.714,2.386-1.481,4.763-2.316,7.126c0.368-2.478,0.823-4.937,1.383-7.373
						c0.271-1.226,0.567-2.423,0.929-3.662c0.431-1.269,1.02-2.357,1.57-3.488c1.15-2.223,2.192-3.896,3.361-6.083
						c0.584-1.08,1.092-2.237,1.828-3.302c0.379-0.515,0.792-1.046,1.387-1.378C243.315,144.563,244.038,144.693,244.598,144.928z"
						/>
				</g>
				<g>
					<path style="fill:#F0997A;" d="M246.877,152.727c-0.503,0.029-0.957,0.213-1.29,0.534c-0.334,0.324-0.58,0.734-0.797,1.158
						c-0.438,0.851-0.772,1.767-1.098,2.685c-0.604,1.857-0.915,3.575-1.753,5.376c-0.429,0.9-0.876,1.791-1.328,2.666
						c-0.473,0.875-0.883,1.717-1.238,2.618c-0.692,1.81-1.272,3.702-1.874,5.598c0.13-1.987,0.396-3.967,0.96-5.909
						c0.566-1.992,1.577-3.707,2.359-5.496c0.851-1.775,1.174-3.379,1.982-5.214c0.414-0.912,0.882-1.812,1.48-2.647
						c0.314-0.406,0.664-0.803,1.107-1.095C245.831,152.697,246.394,152.62,246.877,152.727z"/>
				</g>
				<g>
					<path style="fill:#F0997A;" d="M218.02,169.135c-0.06,2.395-0.259,4.739-0.488,7.094c-0.25,2.351-0.527,4.699-1.04,7.041
						c-0.219-2.39-0.107-4.769,0.119-7.135C216.869,173.775,217.241,171.408,218.02,169.135z"/>
				</g>
			</g>
			<g>
				<path style="fill:#FFBDA7;" d="M298.996,198.214c0.707,7.881,15.735,29.879,23.162,39.404c7.427,9.525,9.806,14.278,11.617,22.8
					c1.811,8.522,0.306,22.832-4.289,31.813c-2.555,4.993-15.296,4.253-26.692-9.043c-11.396-13.295-12.969-26.197-16.317-42.747
					c-2.61-12.899-5.15-20.457-6.869-27.216c-0.681-2.68-4.978-9.512-8.396-18.109c-3.418-8.598-1.703-15.15-2.137-18.787
					c-0.29-2.428-0.815-6.55-2.658-10.84c-0.917-2.135-2.103-4.364-2.734-6.477c-1.634-5.471-0.243-7.774,1.157-8.395
					c-1.026-3.865-0.611-6.442,1.557-7.563c-0.844-3.455,1.1-6.379,2.876-5.693c1.776,0.685,4.215,4.415,4.215,4.415
					s2.243-0.7,4.21,0.195c1.968,0.895,6.929,6.55,10.207,9.516c3.278,2.965,3.483,7.194,5.848,12.528c0,0,0.923-2.569,2.839-4.891
					c1.916-2.322,6.136-2.327,5.264,2.053c-0.872,4.38-1.221,10.391-0.982,18.238C301.112,187.262,298.996,198.214,298.996,198.214"
					/>
				<path style="fill:#B16668;" d="M262.647,154.075c0.049-0.716,0.184-1.445,0.496-2.126c0.279-0.592,0.723-1.139,1.32-1.49
					c-0.325-1.294-0.574-2.63-0.471-4.011c0.06-0.727,0.222-1.476,0.603-2.144c0.333-0.589,0.836-1.077,1.41-1.426
					c-0.219-1.086-0.235-2.226,0.08-3.312c0.173-0.582,0.429-1.151,0.821-1.648c0.386-0.488,0.943-0.939,1.667-1.025
					c0.759-0.053,1.35,0.353,1.815,0.7c0.48,0.371,0.897,0.787,1.294,1.217c0.726,0.799,1.365,1.648,1.97,2.536
					c1.303-0.297,2.653-0.304,3.934,0.18c1.375,0.615,2.285,1.621,3.292,2.526c1.952,1.87,3.788,3.832,5.696,5.712
					c0.476,0.471,0.958,0.933,1.448,1.385c0.499,0.466,0.991,0.972,1.395,1.534c0.831,1.114,1.415,2.375,1.885,3.646
					c0.853,2.34,1.519,4.704,2.464,6.961c0.346-0.792,0.73-1.556,1.174-2.292c0.281-0.465,0.584-0.917,0.909-1.354
					c0.318-0.432,0.66-0.874,1.1-1.247c0.861-0.721,1.995-1.194,3.167-1.036c0.578,0.078,1.157,0.365,1.533,0.843
					c0.398,0.473,0.507,1.079,0.556,1.637c0.028,1.156-0.308,2.173-0.438,3.227c-0.165,1.053-0.287,2.113-0.39,3.175
					c-0.206,2.125-0.302,4.261-0.351,6.398c-0.119,4.266,0.216,8.568-0.219,12.85c-0.369,4.274-1.003,8.517-1.811,12.724
					c0.733-4.22,1.292-8.472,1.584-12.741c0.37-4.267-0.082-8.543,0.034-12.84c0.036-2.145,0.12-4.292,0.314-6.432
					c0.097-1.07,0.213-2.14,0.374-3.204c0.13-1.067,0.452-2.133,0.413-3.128c-0.047-0.49-0.144-0.997-0.457-1.354
					c-0.293-0.365-0.735-0.586-1.213-0.649c-0.968-0.132-1.997,0.287-2.751,0.933c-0.377,0.321-0.698,0.733-1.01,1.164
					c-0.312,0.424-0.603,0.864-0.873,1.318c-0.539,0.903-1.02,1.861-1.389,2.83l-0.245,0.643l-0.284-0.624
					c-1.124-2.47-1.843-5.092-2.77-7.583c-0.468-1.243-1.036-2.441-1.821-3.48c-0.385-0.528-0.836-0.986-1.321-1.435
					c-0.501-0.456-0.992-0.921-1.474-1.392c-1.931-1.88-3.781-3.832-5.722-5.668c-0.973-0.881-1.964-1.885-3.067-2.355
					c-1.152-0.442-2.522-0.399-3.716-0.077l-0.278,0.075l-0.157-0.231c-0.625-0.923-1.317-1.825-2.056-2.656
					c-0.374-0.41-0.767-0.803-1.188-1.133c-0.426-0.329-0.871-0.591-1.28-0.556c-0.886,0.113-1.572,1.142-1.856,2.132
					c-0.307,1.025-0.286,2.142-0.046,3.197l0.063,0.273l-0.244,0.126c-0.569,0.294-1.041,0.733-1.358,1.28
					c-0.319,0.548-0.469,1.197-0.527,1.856c-0.111,1.329,0.146,2.699,0.483,4.027l0.069,0.271l-0.254,0.115
					c-1.125,0.509-1.618,1.902-1.694,3.199c-0.074,1.331,0.133,2.689,0.475,4.008c0.643,2.653,2.031,5.07,3.082,7.652
					c1.064,2.586,1.736,5.314,2.157,8.062c0.189,1.37,0.428,2.756,0.395,4.167c-0.016,1.396-0.106,2.774-0.131,4.153
					c-0.075,2.755,0.12,5.513,0.703,8.202c0.581,2.69,1.6,5.26,2.686,7.804c1.092,2.539,2.279,5.038,3.511,7.516l1.845,3.72
					c0.595,1.247,1.226,2.491,1.604,3.825c-0.402-1.327-1.053-2.556-1.67-3.792l-1.909-3.686c-1.276-2.457-2.508-4.938-3.649-7.465
					c-1.126-2.524-2.222-5.103-2.815-7.833c-0.607-2.721-0.822-5.521-0.763-8.298c0.017-1.389,0.098-2.774,0.106-4.146
					c0.025-1.362-0.217-2.72-0.414-4.086c-0.434-2.716-1.113-5.398-2.172-7.928c-1.045-2.53-2.467-4.964-3.156-7.712
					C262.806,156.922,262.577,155.513,262.647,154.075z"/>
				<path style="fill:#F28F8F;" d="M329.485,292.23c-0.592,0.946-1.51,1.594-2.51,1.971c-1.014,0.356-2.087,0.497-3.157,0.515
					c-2.155,0.017-4.27-0.562-6.296-1.282c-2.028-0.75-3.938-1.801-5.754-2.986c-1.826-1.174-3.545-2.523-5.154-3.996
					c-3.277-2.891-6.03-6.378-8.421-10.047c-2.389-3.683-4.292-7.672-5.736-11.826c-2.944-8.307-4.297-17.087-6.168-25.712
					c-0.918-4.323-1.957-8.619-3.114-12.883c-1.147-4.266-2.443-8.49-3.568-12.761c1.076,4.284,2.324,8.523,3.422,12.799
					c1.104,4.275,2.118,8.573,2.994,12.899c1.778,8.638,3.01,17.435,5.881,25.851c1.425,4.199,3.321,8.253,5.712,12
					c0.596,0.938,1.196,1.873,1.866,2.76l0.976,1.35l1.045,1.298c1.392,1.725,2.781,3.485,4.415,5.013
					c1.614,1.544,3.351,2.971,5.214,4.227c1.89,1.213,3.908,2.242,6.04,2.986c2.124,0.751,4.402,1.155,6.673,1
					c1.132-0.076,2.267-0.331,3.29-0.837C328.151,294.063,329.051,293.263,329.485,292.23z"/>
				<g>
					<path style="fill:#F0997A;" d="M286.797,163.796c-0.402-2.15-0.647-4.316-1.314-6.451c-0.625-2.142-1.819-4.153-3.258-5.832
						c-2.763-3.367-5.771-6.224-8.901-9.297c2.397,3.668,5.244,6.671,8.007,10.045c1.411,1.618,2.526,3.389,3.307,5.383
						C285.422,159.626,285.971,161.764,286.797,163.796z"/>
				</g>
				<g>
					<path style="fill:#F0997A;" d="M266.816,143.214c0.572-0.153,1.186-0.186,1.64,0.13c0.461,0.296,0.795,0.778,1.1,1.257
						c0.62,0.962,1.073,2.054,1.657,3.101c1.128,2.096,2.171,3.632,3.4,5.639c0.614,0.993,1.268,2.002,1.73,2.994
						c0.467,1.041,0.87,2.168,1.318,3.254c0.859,2.197,1.767,4.383,2.738,6.549c-0.54-2.312-1.159-4.598-1.877-6.854
						c-0.351-1.137-0.723-2.244-1.16-3.386c-0.506-1.165-1.145-2.147-1.753-3.172c-1.258-2.01-2.337-3.51-3.611-5.485
						c-0.635-0.975-1.205-2.028-1.982-2.977c-0.398-0.457-0.829-0.926-1.417-1.193C268,142.77,267.327,142.949,266.816,143.214z"/>
				</g>
				<g>
					<path style="fill:#F0997A;" d="M265.229,150.792c0.477-0.012,0.92,0.127,1.259,0.404c0.34,0.28,0.604,0.648,0.842,1.032
						c0.479,0.769,0.866,1.608,1.245,2.451c0.714,1.707,4.504,8.872,4.909,9.696c0.793,1.656,1.488,3.397,2.203,5.141
						c-0.277-1.866-0.681-3.716-1.364-5.505c-0.689-1.837-1.514-3.409-2.391-5.037c-0.941-1.61-1.639-3.033-2.543-4.703
						c-0.461-0.829-0.973-1.643-1.602-2.385c-0.328-0.359-0.69-0.706-1.131-0.948C266.214,150.682,265.677,150.654,265.229,150.792z
						"/>
				</g>
				<g>
					<path style="fill:#F0997A;" d="M293.753,164.015c0.242,2.257,0.611,4.455,1.01,6.661c0.419,2.201,0.862,4.396,1.528,6.568
						c0.022-2.274-0.268-4.511-0.664-6.728C295.199,168.306,294.665,166.1,293.753,164.015z"/>
				</g>
			</g>
			<path style="fill:#F0997A;" d="M266.123,155.716l-11.143,4.442l-2.553-21.613C256.552,137.247,261.413,147.322,266.123,155.716z"
				/>
			<path style="fill:#F0997A;" d="M246.655,127.381c-0.267-0.136-0.559-0.278-0.861-0.309c-0.236-0.024-0.566,0.035-0.643,0.301
				c-0.033,0.114-0.003,0.239,0.063,0.336c0.032,0.047,0.291,0.277,0.321,0.225c-0.127,0.041-0.103,0.083,0.07,0.128
				c0.046,0.025,0.093,0.049,0.141,0.072c0.092,0.047,0.183,0.094,0.272,0.145c0.157,0.09,0.302,0.19,0.439,0.309
				c0.276,0.237,0.461,0.53,0.58,0.871c0.11,0.314,0.135,0.668,0.13,1.015c-0.003,0.181-0.012,0.36-0.012,0.544
				c0,0.081-0.004,0.162-0.003,0.243c0.002,0.113,0.034,0.196,0.079,0.275c0.008,0.228,0.013,0.446,0.084,0.673
				c0.057,0.183,0.293,0.405,0.464,0.211c0.089-0.102,0.158-0.216,0.216-0.339c0.135-0.286,0.291-0.567,0.367-0.876
				c0.084-0.344,0.113-0.685,0.101-1.039c-0.02-0.595-0.175-1.176-0.498-1.678C247.653,128.004,247.161,127.639,246.655,127.381z
				 M258.291,130.002c0.016-0.074,0.027-0.15,0.044-0.224c0.037-0.154,0.089-0.301,0.146-0.449c0.005-0.013,0.003-0.008,0.006-0.014
				c0.015-0.03,0.03-0.061,0.046-0.09c0.033-0.061,0.069-0.121,0.106-0.18c0.136-0.215,0.31-0.422,0.408-0.654
				c0.197-0.466-0.393-0.789-0.784-0.65c-0.207,0.146-0.415,0.291-0.622,0.437c-0.021,0.023-0.042,0.046-0.063,0.07
				c-0.027,0.031-0.054,0.063-0.08,0.096c-0.05,0.065-0.094,0.135-0.136,0.205c-0.103,0.173-0.19,0.357-0.266,0.544
				c-0.143,0.349-0.215,0.72-0.249,1.095c-0.034,0.373,0.004,0.754,0.097,1.117c0.069,0.271,0.196,0.507,0.355,0.734
				c0.05,0.072,0.098,0.145,0.152,0.214c0.134,0.167,0.262,0.252,0.461,0.335c0.298,0.125,0.857-0.005,0.779-0.433
				c-0.023-0.126-0.018-0.216-0.079-0.331c-0.001-0.002-0.067-0.122-0.055-0.096c-0.02-0.04-0.095-0.19-0.112-0.271
				c-0.03-0.143-0.077-0.337-0.114-0.504c-0.01-0.045-0.019-0.09-0.029-0.136c-0.002-0.009-0.001-0.005-0.002-0.011
				c-0.008-0.076-0.016-0.152-0.02-0.228c-0.009-0.159-0.011-0.318,0.001-0.478C258.284,130.068,258.29,130.035,258.291,130.002z"/>
		</g>
		<g>
			<path style="fill:#FFA8A7;" d="M332.011,422.273c-2.402-2.881-5.221-8.773-6.002-15.069c-1-8.056-2.753-26.427-4.725-44.135
				c-1.972-17.708-5.537-57.721-9.844-80.156c-2.191-11.414-7.106-23.706-15.117-23.869c-6.113-0.124-23.149,4.01-29.421,26.431
				c-6.271,22.421-5.078,34.974,0,52.922c3.168,11.196,22.478,52.195,25.081,59.831c2.603,7.636,2.622,9.265,2.622,9.265v15.268
				L332.011,422.273z"/>
			<g id="XMLID_00000101089703325364058290000015645414621205185450_">
				<g>
					<path style="fill:#263238;" d="M291.988,433.06c-0.235,7.713,9.341,9.506,13.82,11.785c2.907,1.335,6.093,3.258,8.971,9.01
						c9.191,14.678,24.211,18.614,43.497,15.383c13.551-2.826,14.904-12.504,9.857-16.748
						C365.201,451.552,291.988,433.06,291.988,433.06z"/>
					<path id="XMLID_00000111886356741345870510000009250209616829714584_" style="fill:#37474F;" d="M294.605,407.493
						c-1.296,0.115-2.024,0.841-1.901,3.118c0.301,5.573-2.829,15.737-0.716,22.449c4.089,8.555,17.782,8.376,22.65,14.745
						c4.867,6.369,9.433,14.361,24.79,16.965c15.357,2.604,26.808-2.574,29.508-6.999c2.701-4.425,0.007-8.448-9.927-13.458
						c-10.546-5.317-24.687-21.644-24.693-21.651c-1.839-2.124-3.424-4.429-5.007-6.744c-0.743-1.087-0.794-2.312-1.014-3.611
						c-0.251-1.479-0.501-2.957-0.752-4.436c-0.114-0.673-0.24-1.375-0.651-1.92c-0.519-0.689-1.399-1-2.247-1.158
						c-2.106-0.393-4.276-0.063-6.378,0.354c-1.383,0.274-2.758,0.586-4.124,0.934c-1.937,0.494-3.912,1.092-5.462,2.354
						c-0.663,0.539-1.245,1.212-1.522,2.021c-0.2,0.583-0.233,1.209-0.24,1.825c-0.023,1.977,0.2,3.95,0.525,5.9
						c0.076,0.458,0.057,1.083-0.393,1.196c-0.271,0.068-0.538-0.115-0.739-0.31c-0.98-0.952-1.376-2.36-2.249-3.411
						c-1.484-1.789-3.935-2.2-5.985-3.022c-0.945-0.379-2.132-0.893-3.114-2.083L294.605,407.493z"/>
					<path style="fill:#FAFAFA;" d="M329.434,461.404c-1.329-13.015,20.796-26.788,32.888-17.068
						c4.28,2.902,10.457,9.037,6.941,13.717C363.763,468.224,334.741,467.645,329.434,461.404z"/>
					<g>
						<path style="fill:#FAFAFA;" d="M312.659,426.149c2.758-1.796,9.204-9.594,18.63-7.455
							C329.675,409.376,305.411,424.954,312.659,426.149z"/>
						<path style="fill:#FAFAFA;" d="M336.098,424.651c-3.422-8.331-19.271,4.758-19.124,5.641
							c-0.951,1.404,1.339,2.747,2.223,1.373C320.419,429.86,328.19,423.185,336.098,424.651z"/>
						<path style="fill:#FAFAFA;" d="M349.167,437.404c-3.745-9.579-26.478,5.111-19.988,7.019
							C331.987,442.56,339.323,433.954,349.167,437.404z"/>
						<path style="fill:#FAFAFA;" d="M323.673,438.332c2.747-1.784,9.026-9.402,18.357-7.509
							C339,422.027,316.99,437.122,323.673,438.332z"/>
					</g>
				</g>
			</g>
			<path style="fill:#FFA8A7;" d="M358.225,401.664c-1.413-5.574-13.081-28.849-18.274-39.39
				c-6.375-12.94-19.051-39.237-19.632-63.092c-0.582-23.855,5.363-33.546,11.692-40.773c7.292-8.326,20.788-8.973,26.831,3.327
				c15.29,31.122,21.191,79.907,23.865,97.593c2.673,17.686,6.423,44.463,6.423,44.463s2.115,7.771,6.483,13.323h-37.378
				L358.225,401.664z"/>
			<g>
				<path style="fill:#37474F;" d="M245.318,394.185c20.673,2.552,43.036-10.401,55.244-19.207
					c14.003-10.099,32.041-24.163,32.041-24.163l21.444,42.735c0,0,8.649,3.785,20.669,1.38c12.02-2.405,14.412-8.518,14.412-8.518
					s-7.267-49.562-11.042-68.387c-5.719-28.522-9.424-41.663-12.119-49.08c-2.695-7.417-9.869-18.158-21.829-18.597
					c-11.959-0.439-18.613,4.181-40.275,18.597c-14.678,9.768-68.82,61.151-74.401,68.061
					C223.883,343.916,210.825,389.927,245.318,394.185z"/>
				<path style="fill:#263238;" d="M363.804,395.514c-0.68-2.04-4.69-12.64-5.38-14.67c-1.34-3.99-10.23-33.77-11.48-38.28
					c-1.31-4.68-2.45-9.4-3.43-14.16c-0.88-4.23-1.62-8.5-2.23-12.78c-0.31-2.18-0.59-4.36-0.83-6.55
					c-0.23-2.14-0.33-4.32-0.73-6.44c-0.38-1.95-1.17-3.88-2.74-5.17c-1.36-1.13-3.22-1.72-4.95-1.12c-1.75,0.6-2.95,2.07-3.91,3.59
					c-1.2,1.9-2.29,3.88-3.35,5.85c-4.38,8.09-8.09,16.51-12.47,24.59c-3.86,7.13-8.31,14.03-13.97,19.87
					c-5.31,5.46-11.77,10.08-19.16,12.21c-6.85,1.96-14.39,1.94-21.06-0.68c-3.35-1.31-6.42-3.33-8.88-5.95
					c-1.52-1.61-2.81-3.41-3.94-5.3c-0.98-1.62-1.85-3.32-2.64-5.03c-0.83-1.8-1.65-3.61-2.49-5.41c-0.19-0.42-1.04-0.44-0.84,0.14
					c1.39,3.93,2.99,7.91,5.16,11.48c1.98,3.27,4.44,6.2,7.68,8.45c5.84,4.05,13.19,5.5,20.2,4.9c7.5-0.64,14.43-3.62,20.44-8.1
					c6.32-4.71,11.45-10.87,15.74-17.43c4.9-7.49,8.71-15.61,12.65-23.63c2.02-4.1,4.09-8.19,6.35-12.16
					c0.98-1.73,1.92-3.71,3.37-5.11c1.41-1.37,3.27-1.49,4.84-0.29c1.7,1.29,2.32,3.36,2.63,5.38c0.33,2.17,0.46,4.38,0.71,6.56
					c0.49,4.28,1.11,8.54,1.87,12.79c1.28,7.21,2.98,14.38,4.85,21.44c3.47,13.13,7.3,26.04,11.57,38.91
					c1.362,4.077,2.734,8.187,4.64,12.035c0.58,0.069,1.187,0.126,1.819,0.171C363.829,395.583,363.814,395.544,363.804,395.514z"/>
				<path style="fill:#263238;" d="M326.236,294.806c-6.665,16.196-5.802,38.179,1.274,59.951l5.094-3.942
					C324.028,330.403,325.388,307.628,326.236,294.806z"/>
			</g>
			<g>
				<path style="fill:#455A64;" d="M215.755,400.576c15.299,3.228,29.511-1.329,40.674-11.428
					c11.162-10.099,18.072-28.969,18.072-28.969l15.946,39.561c0,0,8.649,3.785,20.669,1.38c12.02-2.405,14.412-8.518,14.412-8.518
					s-3.659-52.184-6.127-71.225c-3.48-26.852-6.736-42.568-9.43-49.985c-2.695-7.417-11.199-16.931-23.159-17.37
					c-11.959-0.439-21.84,5.215-34.129,17.858c-12.289,12.642-50.736,58.799-56.317,65.709c-5.581,6.91-20.996,30.297-20.996,30.297
					S181.749,393.4,215.755,400.576z"/>
				<path style="fill:#455A64;" d="M215.755,400.576c15.299,3.228,29.511-1.329,40.674-11.428
					c11.162-10.099,18.072-28.969,18.072-28.969l15.946,39.561c0,0,8.649,3.785,20.669,1.38c12.02-2.405,14.412-8.518,14.412-8.518
					s-3.659-52.184-6.127-71.225c-3.48-26.852-6.736-42.568-9.43-49.985c-2.695-7.417-11.199-16.931-23.159-17.37
					c-11.959-0.439-21.84,5.215-34.129,17.858c-12.289,12.642-50.736,58.799-56.317,65.709c-5.581,6.91-20.996,30.297-20.996,30.297
					S181.749,393.4,215.755,400.576z"/>
				<path style="fill:#37474F;" d="M299.849,401.794c-1.99-3.94-3.39-8.17-4.79-12.36c-4.27-12.87-8.1-25.78-11.57-38.91
					c-1.87-7.06-3.57-14.23-4.85-21.44c-0.76-4.25-1.38-8.51-1.87-12.79c-0.25-2.18-0.38-4.39-0.71-6.56
					c-0.31-2.02-0.93-4.09-2.63-5.38c-1.57-1.2-3.43-1.08-4.84,0.29c-1.45,1.4-2.39,3.38-3.37,5.11c-2.26,3.97-4.33,8.06-6.35,12.16
					c-3.94,8.02-7.75,16.14-12.65,23.63c-4.29,6.56-9.42,12.72-15.74,17.43c-6.01,4.48-12.94,7.46-20.44,8.1
					c-7.01,0.6-14.36-0.85-20.2-4.9c-3.24-2.25-5.7-5.18-7.68-8.45c-2.17-3.57-3.77-7.55-5.16-11.48c-0.2-0.58,0.65-0.56,0.84-0.14
					c0.84,1.8,1.66,3.61,2.49,5.41c0.79,1.71,1.66,3.41,2.64,5.03c1.13,1.89,2.42,3.69,3.94,5.3c2.46,2.62,5.53,4.64,8.88,5.95
					c6.67,2.62,14.21,2.64,21.06,0.68c7.39-2.13,13.85-6.75,19.16-12.21c5.66-5.84,10.11-12.74,13.97-19.87
					c4.38-8.08,8.09-16.5,12.47-24.59c1.06-1.97,2.15-3.95,3.35-5.85c0.96-1.52,2.16-2.99,3.91-3.59c1.73-0.6,3.59-0.01,4.95,1.12
					c1.57,1.29,2.36,3.22,2.74,5.17c0.4,2.12,0.5,4.3,0.73,6.44c0.24,2.19,0.52,4.37,0.83,6.55c0.61,4.28,1.35,8.55,2.23,12.78
					c0.98,4.76,2.12,9.48,3.43,14.16c1.25,4.51,10.14,34.29,11.48,38.28c0.69,2.03,4.7,12.63,5.38,14.67
					c0.03,0.09,0.08,0.22,0.14,0.37L299.849,401.794z"/>
				<path style="fill:#37474F;" d="M262.634,300.996c-6.665,16.196-4.214,41.221,8.237,67.468c2.347-4.786,3.63-8.284,3.63-8.284
					C265.925,339.767,261.786,313.818,262.634,300.996z"/>
			</g>
			<g id="XMLID_00000127762339715668186580000013442426477339751090_">
				<g>
					<path style="fill:#263238;" d="M358.241,427.618c0.396,7.706,10.086,8.71,14.737,10.616c3.006,1.092,6.339,2.749,9.677,8.246
						c10.36,13.878,25.651,16.573,44.609,11.776c13.275-3.924,13.832-13.68,8.455-17.497
						C432.72,440.063,358.241,427.618,358.241,427.618z"/>
					<path id="XMLID_00000086651857989821374540000009343280891445374857_" style="fill:#37474F;" d="M358.225,401.664
						c-1.099,0.537-1.414,1.262-1.105,3.522c0.756,5.53-1.533,15.915,1.121,22.433c4.774,8.192,18.407,6.895,23.779,12.844
						c5.372,5.95,10.575,13.541,26.094,14.882c15.518,1.34,26.508-4.757,28.837-9.387c2.33-4.631-0.683-8.421-10.994-12.601
						c-10.945-4.437-26.373-19.554-26.38-19.56c-2.007-1.966-3.775-4.134-5.542-6.312c-0.829-1.022-0.98-2.24-1.306-3.516
						c-0.371-1.453-0.741-2.906-1.112-4.36c-0.169-0.662-0.352-1.351-0.806-1.861c-0.574-0.644-1.476-0.882-2.334-0.971
						c-2.131-0.219-4.267,0.287-6.328,0.874c-1.356,0.386-2.701,0.809-4.034,1.268c-1.89,0.651-3.81,1.408-5.251,2.793
						c-0.616,0.592-1.142,1.31-1.352,2.138c-0.151,0.597-0.133,1.224-0.09,1.839c0.139,1.972,0.522,3.92,1.006,5.837
						c0.114,0.45,0.146,1.075-0.294,1.224c-0.265,0.09-0.546-0.071-0.762-0.249c-1.055-0.868-1.565-2.24-2.52-3.216
						c-1.626-1.661-4.102-1.871-6.212-2.523c-0.973-0.301-2.198-0.715-3.273-1.821L358.225,401.664z"/>
					<path style="fill:#FAFAFA;" d="M397.879,452.806c-2.388-12.863,18.537-28.398,31.383-19.699
						c4.503,2.543,11.161,8.152,8.039,13.104C432.651,456.797,403.678,458.592,397.879,452.806z"/>
					<g>
						<path style="fill:#FAFAFA;" d="M378.279,419.04c2.602-2.016,8.389-10.314,17.958-8.953
							C393.866,400.932,370.957,418.441,378.279,419.04z"/>
						<path style="fill:#FAFAFA;" d="M401.516,415.631c-4.092-8.023-18.817,6.317-18.599,7.185
							c-0.833,1.477,1.559,2.628,2.328,1.187C386.315,422.104,393.515,414.816,401.516,415.631z"/>
						<path style="fill:#FAFAFA;" d="M415.584,427.273c-4.515-9.241-25.972,7.258-19.347,8.629
							C398.883,433.816,405.49,424.639,415.584,427.273z"/>
						<path style="fill:#FAFAFA;" d="M390.251,430.282c2.592-2.003,8.227-10.109,17.682-8.984
							C404.194,412.779,383.491,429.622,390.251,430.282z"/>
					</g>
				</g>
			</g>
		</g>
	</g>
</g>
<g id="Doodles">
	<g>
		<path style="fill:#455A64;" d="M139.927,123.286c-3.974,1.016-7.686,2.862-11.09,5.129c-3.193,2.126-6.241,4.526-9.015,7.176
			c-5.195,4.962-9.712,11.31-10.231,18.696c-0.129,1.84,0.145,3.73,1.509,5.08c1.139,1.127,2.758,1.663,4.315,1.861
			c3.646,0.463,7.472-0.572,10.761-2.095c3.473-1.608,6.607-3.911,9.45-6.454c2.848-2.547,5.589-5.348,7.596-8.621
			c0.961-1.568,1.824-3.259,2.299-5.045c0.224-0.84,0.16-1.746-0.587-2.305c-0.709-0.531-1.664-0.54-2.51-0.486
			c-3.928,0.249-7.128,3.174-9.825,5.762c-2.851,2.736-5.397,5.78-7.599,9.061c-1.112,1.656-2.153,3.366-3.069,5.139
			c-0.931,1.802-1.744,3.772-1.852,5.82c-0.197,3.755,2.331,6.805,5.799,7.998c3.864,1.329,8.261,0.436,11.983-0.954
			c3.544-1.324,6.832-3.343,9.583-5.945c2.65-2.507,5.012-5.679,5.437-9.404c0.178-1.559-0.13-3.523-1.89-4.008
			c-1.805-0.497-3.363,1-4.553,2.131c-2.496,2.374-5.31,5.272-5.645,8.892c-0.26,2.815,1.099,6.106,3.872,7.19
			c3.484,1.362,6.664-1.405,8.472-4.12c0.983-1.475,1.818-3.237,1.275-5.03c-0.121-0.401-0.684-0.565-1.017-0.331
			c-1.831,1.291-3.034,3.406-3.173,5.649c-0.063,1.016,0.042,2.203,0.768,2.983c0.817,0.877,2.205,1.074,3.342,1.083
			c2.438,0.018,4.725-1.181,6.469-2.815c0.939-0.879,1.738-1.895,2.456-2.958c0.685-1.015,1.381-2.083,1.882-3.203
			c0.471-1.053,0.701-2.24,0.279-3.347c-0.364-0.954-1.141-1.736-2.174-1.912c-2.331-0.397-4.117,2.009-4.796,3.929
			c-0.758,2.142-0.919,4.7-0.622,6.941c0.291,2.2,1.616,3.945,3.654,4.819c2.139,0.918,4.592,0.724,6.588-0.451
			c2.255-1.328,3.518-3.503,4.277-5.929c0.14-0.448-0.683-0.936-0.838-0.442c-1.009,3.225-3.937,6.555-7.562,6.408
			c-1.605-0.065-3.274-0.786-4.192-2.147c-1.132-1.679-0.967-4.048-0.78-5.973c0.172-1.773,0.621-3.634,1.841-4.993
			c0.616-0.686,1.765-1.58,2.735-1.063c0.797,0.424,1.013,1.517,0.909,2.332c-0.138,1.079-0.74,2.061-1.289,2.976
			c-0.534,0.889-1.104,1.76-1.741,2.579c-1.272,1.635-2.851,3.085-4.827,3.8c-1.076,0.39-2.235,0.565-3.372,0.379
			c-0.551-0.09-1.181-0.241-1.509-0.737c-0.301-0.455-0.344-1.08-0.348-1.608c-0.018-2.188,1.084-4.249,2.88-5.483
			c-0.339-0.111-0.678-0.221-1.016-0.331c0.506,1.812-0.731,3.647-1.786,5.02c-0.969,1.26-2.21,2.511-3.764,2.998
			c-2.826,0.886-4.933-1.539-5.432-4.102c-0.611-3.138,1.199-5.973,3.232-8.196c1.064-1.164,2.236-2.469,3.557-3.341
			c0.582-0.384,1.429-0.792,1.997-0.162c0.513,0.569,0.495,1.504,0.434,2.215c-0.292,3.374-2.445,6.316-4.802,8.603
			c-2.402,2.33-5.248,4.22-8.342,5.5c-3.244,1.342-7.009,2.319-10.521,1.66c-3.085-0.578-5.928-2.845-6.181-6.134
			c-0.144-1.863,0.5-3.709,1.28-5.371c0.736-1.567,1.618-3.072,2.538-4.536c1.867-2.97,4.037-5.751,6.443-8.302
			c1.226-1.3,2.513-2.547,3.87-3.71c1.266-1.085,2.623-2.114,4.162-2.779c0.729-0.316,4.223-1.49,4.131,0.096
			c-0.044,0.759-0.467,1.588-0.762,2.278c-0.322,0.751-0.69,1.483-1.098,2.191c-1.684,2.928-4.022,5.456-6.471,7.758
			c-2.493,2.342-5.185,4.52-8.171,6.204c-2.912,1.642-6.131,2.838-9.491,3.043c-2.724,0.166-6.233-0.427-6.791-3.621
			c-0.271-1.552,0.03-3.289,0.37-4.809c0.349-1.559,0.889-3.076,1.558-4.525c1.34-2.901,3.245-5.517,5.373-7.888
			c2.215-2.466,4.713-4.667,7.326-6.701c2.771-2.157,5.689-4.176,8.828-5.76c1.868-0.943,3.797-1.738,5.816-2.297
			c0.297-0.082,0.365-0.444,0.221-0.68C140.583,123.266,140.228,123.209,139.927,123.286L139.927,123.286z"/>
	</g>
	<g>
		<g>
			<path style="fill:#FFFFFF;" d="M376.589,168.456c-0.637,3.38-2.522,6.291-5.212,8.415c-6.07,4.796-14.078,4.69-21.413,4.336
				c-1.548-0.071-3.141-0.08-4.628,0.425c-1.486,0.504-2.486,1.566-3.194,2.938c-0.734,1.442-1.301,3.026-2.867,3.77
				c-1.469,0.69-3.23,0.522-4.787,0.292c-2.734-0.416-6.274-1.292-8.556,0.841c-1.23,1.159-1.434,2.84-2.283,4.221
				c-0.734,1.221-2.053,1.964-3.424,2.239c-0.504,0.106-1.017,0.142-1.531,0.115c1.407-0.389,2.451-1.433,3.115-2.708
				c1.504-2.911,1.071-6.937,3.592-9.3c1.142-1.079,2.708-1.478,4.185-1.84c1.504-0.372,3.053-0.726,4.38-1.566
				c3.407-2.141-0.664-6.521-2.46-8.335c-2.504-2.531-4.911-5.07-6.495-8.318c-1.487-3.062-2.177-6.592-1.602-9.972
				c1.203-7.123,8.866-10.892,15.264-12.317c7.088-1.575,14.547-0.717,21.139,2.283c3.212,1.46,6.212,3.424,8.866,5.734
				c2.646,2.301,4.946,5.044,6.442,8.229C376.642,161.173,377.252,164.925,376.589,168.456z"/>
			<path style="fill:#455A64;" d="M377.783,164.191c-0.531-7.158-5.256-13.042-10.822-17.175c-5.893-4.38-13.016-6.973-20.369-7.132
				c-7.061-0.15-14.688,1.779-20.059,6.557c-1.274,1.133-2.371,2.407-3.141,3.946c-0.735,1.46-1.15,3.088-1.283,4.716
				c-0.283,3.442,0.566,6.928,2.186,9.954c0.832,1.549,1.84,3.008,2.973,4.353c1.15,1.38,2.46,2.601,3.708,3.884
				c1.221,1.256,2.424,2.646,3.008,4.318c0.141,0.407,0.248,0.876,0.151,1.292c-0.124,0.522-0.584,0.814-1.018,1.071
				c-0.681,0.389-1.425,0.646-2.177,0.867c-1.504,0.434-3.053,0.708-4.486,1.363c-1.486,0.681-2.601,1.832-3.274,3.336
				c-0.673,1.522-0.903,3.194-1.292,4.805c-0.38,1.575-0.947,3.354-2.31,4.371c-0.849,0.637-2.185,1.044-3.247,0.69
				c-0.035-0.009-0.08-0.035-0.115-0.053c-0.053-0.027-0.097-0.044-0.142-0.044c-0.257-0.115-0.478-0.274-0.681-0.495
				c-0.257-0.283-0.77-0.071-0.469,0.265c0.336,0.372,0.717,0.655,1.133,0.832c0.018,0.009,0.035,0.018,0.053,0.027
				c2.318,1.283,5.539,1.018,7.495-0.823c1.212-1.141,1.46-2.778,2.283-4.159c0.867-1.46,2.407-2.018,4.044-2.071
				c3.123-0.08,6.309,1.433,9.388,0.336c1.548-0.558,2.451-1.752,3.15-3.186c0.734-1.513,1.424-2.947,3.079-3.61
				c1.522-0.602,3.265-0.513,4.867-0.425c2.044,0.106,4.097,0.204,6.141,0.159c3.778-0.088,7.583-0.602,11.078-2.097
				c3.008-1.283,5.769-3.283,7.645-5.982C377.287,171.199,378.031,167.651,377.783,164.191z M376.589,168.456
				c-0.637,3.38-2.522,6.291-5.212,8.415c-6.07,4.796-14.078,4.69-21.413,4.336c-1.548-0.071-3.141-0.08-4.628,0.425
				c-1.486,0.504-2.486,1.566-3.194,2.938c-0.734,1.442-1.301,3.026-2.867,3.77c-1.469,0.69-3.23,0.522-4.787,0.292
				c-2.734-0.416-6.274-1.292-8.556,0.841c-1.23,1.159-1.434,2.84-2.283,4.221c-0.734,1.221-2.053,1.964-3.424,2.239
				c-0.504,0.106-1.017,0.142-1.531,0.115c1.407-0.389,2.451-1.433,3.115-2.708c1.504-2.911,1.071-6.937,3.592-9.3
				c1.142-1.079,2.708-1.478,4.185-1.84c1.504-0.372,3.053-0.726,4.38-1.566c3.407-2.141-0.664-6.521-2.46-8.335
				c-2.504-2.531-4.911-5.07-6.495-8.318c-1.487-3.062-2.177-6.592-1.602-9.972c1.203-7.123,8.866-10.892,15.264-12.317
				c7.088-1.575,14.547-0.717,21.139,2.283c3.212,1.46,6.212,3.424,8.866,5.734c2.646,2.301,4.946,5.044,6.442,8.229
				C376.642,161.173,377.252,164.925,376.589,168.456z"/>
		</g>
		<g>
			<path style="fill:#455A64;" d="M343.328,150.904c0.934,1.796,2.332,3.403,3.518,5.04c1.121,1.547,2.255,3.083,3.368,4.635
				c1.079,1.504,2.148,3.016,3.204,4.536c1.082,1.559,2.099,3.179,3.234,4.699c0.126,0.168,0.384,0.227,0.58,0.189
				c1.127-0.217,0.188-1.367-0.167-1.89c-0.567-0.834-1.137-1.667-1.712-2.496c-1.2-1.728-2.412-3.449-3.639-5.158
				c-1.171-1.631-2.346-3.262-3.555-4.865c-1.301-1.726-2.569-3.587-4.133-5.084C343.715,150.213,343.087,150.441,343.328,150.904
				L343.328,150.904z"/>
		</g>
		<g>
			<path style="fill:#455A64;" d="M361.211,154.4c-4.146,1.306-8.262,2.67-12.374,4.084c-2.037,0.7-4.068,1.419-6.101,2.13
				c-1.016,0.355-2.032,0.71-3.048,1.065c-0.922,0.322-2.408,0.573-3.027,1.375c-0.087,0.113-0.018,0.311,0.08,0.394
				c0.63,0.534,1.805-0.098,2.46-0.327c1.016-0.355,2.032-0.71,3.048-1.065c2.071-0.724,4.144-1.444,6.214-2.172
				c2.149-0.756,4.295-1.518,6.442-2.277c2.259-0.799,4.469-1.715,6.708-2.564C362.027,154.886,361.552,154.292,361.211,154.4
				L361.211,154.4z"/>
		</g>
	</g>
	<g>
		<g>
			<path style="fill:#FFFFFF;" d="M143.15,260.486c-0.31,1-0.88,1.91-1.71,2.63c-1.93,1.66-4.87,2.08-7.34,1.96h-0.04
				c-4.05-0.31-8.36-3.26-8.78-7.54c-0.09-0.91,0.1-1.82-0.02-2.73c-0.1-0.74-0.37-1.45-0.84-2.04c-1.15-1.47-3.13-2.11-4.91-2.39
				c-2.31-0.37-4.69-0.42-7.02-0.47c-2.51-0.05-5.02-0.02-7.52-0.04c-4.49-0.03-9.01-0.2-13.4-1.25c-3.66-0.88-7.25-2.37-10.22-4.73
				c-3.12-2.5-5.22-6.04-6.58-9.76c-2.79-7.65-2.27-16.15,1.02-23.55c3.14-7.07,8.59-13.02,15.06-17.19
				c7.04-4.53,16.23-7.44,24.37-4.15c7.37,2.99,12.64,10.01,15.41,17.26c1.55,4.05,2.37,8.44,1.95,12.78
				c-0.21,2.16-0.74,4.24-1.54,6.26c-0.82,2.08-1.84,4.09-2.59,6.2c-1.18,3.32-1.63,7.3,0.33,10.44c0.46,0.74,1.04,1.39,1.73,1.91
				c0.74,0.57,1.61,0.91,2.43,1.34c0.83,0.43,1.59,0.97,1.93,1.87c0.33,0.87,0.19,1.85-0.07,2.71c-0.55,1.88-1.78,3.44-2.45,5.27
				c-0.56,1.56-0.9,3.41-0.01,4.92c0.93,1.59,2.92,2.12,4.64,2.24c1.71,0.13,3.5-0.23,5-1.08
				C142.4,261.116,142.8,260.826,143.15,260.486z"/>
			<path style="fill:#455A64;" d="M143.5,257.776c-1.03,3.39-5.6,4.19-8.5,2.93c-4.27-1.87,0.13-7.36,1.02-9.96
				c0.61-1.76,0.77-3.8-0.58-5.26c-1.28-1.39-3.3-1.67-4.61-3.02c-2.63-2.72-2.21-7.04-1.04-10.31c0.75-2.12,1.77-4.12,2.6-6.21
				c0.8-2.01,1.36-4.11,1.59-6.27c0.46-4.35-0.25-8.78-1.72-12.88c-2.63-7.37-7.78-14.52-14.95-18.01
				c-7.95-3.87-17.12-1.97-24.57,2.14c-6.74,3.72-12.58,9.24-16.39,15.95c-3.91,6.89-5.47,14.89-3.97,22.71
				c0.77,4.03,2.33,7.93,4.72,11.27c2.24,3.13,5.48,5.4,8.99,6.91c8.3,3.59,17.44,2.89,26.27,3.05c2.45,0.04,4.98,0.06,7.4,0.52
				c1.71,0.32,3.78,1.09,4.32,2.95c0.25,0.88,0.07,1.78,0.09,2.67c0.03,0.98,0.23,1.95,0.61,2.84c0.76,1.8,2.13,3.22,3.77,4.23
				c1.72,1.07,3.7,1.72,5.72,1.85h0.04c1.68,0.09,3.26,0.11,4.88-0.4c1.16-0.35,2.27-0.9,3.18-1.71c1.68-1.5,2.41-3.66,2.34-5.88
				C144.69,257.256,143.67,257.216,143.5,257.776z M141.44,263.116c-1.93,1.66-4.87,2.08-7.34,1.96h-0.04
				c-4.05-0.31-8.36-3.26-8.78-7.54c-0.09-0.91,0.1-1.82-0.02-2.73c-0.1-0.74-0.37-1.45-0.84-2.04c-1.15-1.47-3.13-2.11-4.91-2.39
				c-2.31-0.37-4.69-0.42-7.02-0.47c-2.51-0.05-5.02-0.02-7.52-0.04c-4.49-0.03-9.01-0.2-13.4-1.25c-3.66-0.88-7.25-2.37-10.22-4.73
				c-3.12-2.5-5.22-6.04-6.58-9.76c-2.79-7.65-2.27-16.15,1.02-23.55c3.14-7.07,8.59-13.02,15.06-17.19
				c7.04-4.53,16.23-7.44,24.37-4.15c7.37,2.99,12.64,10.01,15.41,17.26c1.55,4.05,2.37,8.44,1.95,12.78
				c-0.21,2.16-0.74,4.24-1.54,6.26c-0.82,2.08-1.84,4.09-2.59,6.2c-1.18,3.32-1.63,7.3,0.33,10.44c0.46,0.74,1.04,1.39,1.73,1.91
				c0.74,0.57,1.61,0.91,2.43,1.34c0.83,0.43,1.59,0.97,1.93,1.87c0.33,0.87,0.19,1.85-0.07,2.71c-0.55,1.88-1.78,3.44-2.45,5.27
				c-0.56,1.56-0.9,3.41-0.01,4.92c0.93,1.59,2.92,2.12,4.64,2.24c1.71,0.13,3.5-0.23,5-1.08c0.42-0.24,0.82-0.53,1.17-0.87
				C142.84,261.486,142.27,262.396,141.44,263.116z"/>
		</g>
		<g>
			<path style="fill:#455A64;" d="M84.53,219.056c4.778,0.581,9.615,0.774,14.415,1.107c4.797,0.333,9.595,0.632,14.394,0.931
				c2.745,0.171,5.49,0.342,8.234,0.512c0.908,0.057,1.084-1.345,0.117-1.402c-9.582-0.571-19.164-1.162-28.751-1.639
				c-2.831-0.141-5.67-0.316-8.506-0.328C83.852,218.234,84.059,218.998,84.53,219.056L84.53,219.056z"/>
		</g>
		<g>
			<path style="fill:#455A64;" d="M107.389,201.34c-0.508,1.153-0.758,2.455-1.073,3.672c-0.304,1.175-0.608,2.35-0.912,3.525
				c-0.618,2.391-1.236,4.782-1.854,7.173c-1.219,4.72-2.421,9.444-3.63,14.166c-0.692,2.703-1.384,5.405-2.076,8.108
				c-0.154,0.6,0.974,0.74,1.129,0.133c2.424-9.466,4.853-18.931,7.254-28.403c0.336-1.325,0.672-2.651,1.007-3.976
				c0.342-1.349,0.823-2.766,0.919-4.158C108.18,201.206,107.554,200.966,107.389,201.34L107.389,201.34z"/>
		</g>
	</g>
	<g>
		<g>
			<path style="fill:#455A64;" d="M362.768,193.848c-0.991,0.452-1.731,1.345-2.496,2.106c-0.809,0.805-1.606,1.622-2.391,2.451
				c-1.593,1.681-3.137,3.409-4.622,5.186c-2.909,3.481-5.616,7.132-8.101,10.927c-0.704,1.075-1.389,2.162-2.059,3.259
				c-0.696,1.14-1.577,2.324-1.96,3.607c-0.236,0.789,0.802,1.086,1.284,0.605c0.803-0.8,1.302-2.009,1.888-2.981
				c0.601-0.998,1.219-1.986,1.853-2.964c1.192-1.841,2.435-3.649,3.729-5.42c2.582-3.535,5.366-6.925,8.32-10.156
				c0.833-0.911,1.681-1.809,2.543-2.693c0.955-0.979,2.125-1.903,2.84-3.072C363.907,194.196,363.277,193.616,362.768,193.848
				L362.768,193.848z"/>
		</g>
		<g>
			<path style="fill:#455A64;" d="M339.452,227.402c-0.674-0.508-1.727-0.074-1.932,0.712c-0.185,0.708,0.169,1.465,0.746,1.883
				c0.63,0.455,1.457,0.565,2.139,0.153c0.579-0.349,0.986-1.065,0.776-1.747c-0.109-0.354-0.366-0.666-0.687-0.85
				c-0.189-0.109-0.395-0.162-0.61-0.185c-0.179-0.019-0.393-0.033-0.56,0.052c-0.152,0.078-0.286,0.147-0.323,0.327
				c-0.046,0.222,0.156,0.438,0.37,0.451c0.046,0.005,0.091,0.008,0.137,0.008c-0.067-0.012-0.134-0.025-0.201-0.037
				c0.076,0.025,0.152,0.058,0.23,0.078c0.048,0.005,0.096,0.01,0.144,0.014c-0.083-0.009-0.103-0.01-0.061-0.003
				c0.022,0.005,0.044,0.009,0.066,0.013c0.078,0.014-0.142-0.043-0.029-0.006c0.078,0.025-0.034-0.011-0.031-0.014
				c-0.002,0.002,0.065,0.038,0.062,0.036c0.049,0.027,0.097,0.053,0.143,0.084c0.017,0.011,0.036,0.029,0.054,0.037
				c-0.009-0.004-0.107-0.087-0.041-0.029c0.031,0.027,0.063,0.053,0.092,0.082c0.01,0.01,0.08,0.087,0.018,0.016
				c-0.055-0.063-0.009-0.011,0.003,0.008c0.027,0.042,0.05,0.089,0.078,0.131c0.035,0.053-0.032-0.101-0.018-0.038
				c0.004,0.02,0.013,0.039,0.019,0.058c0.007,0.025,0.011,0.05,0.018,0.075c0.019,0.075-0.012-0.038-0.003-0.034
				c0.014,0.005,0.001,0.12,0,0.138c-0.002,0.023-0.005,0.045-0.007,0.068c-0.011,0.113,0.034-0.106-0.002,0.002
				c-0.015,0.044-0.028,0.087-0.046,0.13c-0.006,0.015-0.033,0.113-0.013,0.035c0.017-0.066,0.004-0.007-0.011,0.016
				c-0.028,0.044-0.059,0.087-0.092,0.127c-0.012,0.015-0.04,0.038-0.046,0.053c0.018-0.04,0.074-0.07,0.009-0.012
				c-0.04,0.035-0.082,0.066-0.125,0.098c-0.038,0.028-0.067,0.018,0.034-0.018c-0.02,0.007-0.042,0.023-0.062,0.033
				c-0.029,0.014-0.111,0.031-0.129,0.055c0.037-0.046,0.118-0.033,0.026-0.011c-0.029,0.007-0.057,0.01-0.086,0.016
				c-0.119,0.026,0.115,0,0.034-0.001c-0.024,0-0.047,0.001-0.071,0c-0.024,0-0.047-0.002-0.071-0.004
				c-0.083-0.007-0.047-0.04,0.034,0.008c-0.034-0.02-0.098-0.021-0.137-0.033c-0.023-0.007-0.045-0.015-0.067-0.022
				c-0.117-0.038,0.117,0.061,0.008,0.002c-0.042-0.023-0.085-0.043-0.126-0.067c0.005,0.003-0.061-0.038-0.061-0.038
				c0.007-0.009,0.096,0.075,0.03,0.021c-0.042-0.035-0.083-0.068-0.123-0.105c-0.017-0.016-0.034-0.033-0.051-0.051
				c-0.013-0.013-0.025-0.026-0.037-0.04c0.046,0.056,0.056,0.068,0.031,0.037c-0.061-0.083-0.116-0.166-0.165-0.257
				c-0.036-0.068,0.021,0.006,0.011,0.025c0.002-0.004-0.024-0.062-0.028-0.073c-0.021-0.062-0.036-0.126-0.051-0.19
				c-0.026-0.11,0.006,0.019,0,0.018c-0.006-0.001-0.006-0.111-0.005-0.117c0-0.026,0.001-0.052,0.003-0.078
				c0-0.005,0.02-0.118,0.004-0.053c0.006-0.024,0.013-0.048,0.022-0.071c0.001-0.004,0.048-0.101,0.017-0.05
				c0.011-0.018,0.025-0.033,0.036-0.05c0.048-0.069-0.057,0.034,0.014-0.013c0.017-0.012,0.034-0.024,0.051-0.036
				c-0.054,0.038-0.03,0.021,0.016-0.001c0.052-0.024,0.045,0.019-0.053,0.012c0.021,0.002,0.056-0.008,0.076-0.013
				c0.068-0.019-0.155-0.014-0.048,0.001c0.024,0.003,0.118,0.015,0.014-0.003c-0.122-0.021,0.004,0.011,0.011,0.01
				c-0.043,0.004-0.118-0.066-0.026-0.002c0.224,0.156,0.622,0.135,0.797-0.09C339.777,227.836,339.678,227.573,339.452,227.402
				L339.452,227.402z"/>
		</g>
	</g>
	<g>
		<g>
			<path style="fill:#455A64;" d="M52.892,144.87c0.213,1.169,0.977,2.263,1.548,3.293c0.557,1.005,1.128,2.001,1.715,2.99
				c1.151,1.941,2.358,3.848,3.623,5.716c2.499,3.689,5.208,7.235,8.111,10.615c0.816,0.95,1.647,1.886,2.493,2.809
				c0.474,0.517,0.952,1.03,1.435,1.54c0.476,0.503,0.937,1.106,1.561,1.422c0.67,0.339,1.356-0.462,1.02-1.085
				c-0.271-0.502-0.712-0.881-1.102-1.289c-0.406-0.424-0.808-0.851-1.207-1.282c-0.749-0.81-1.487-1.631-2.213-2.463
				c-1.476-1.69-2.903-3.424-4.279-5.197c-2.746-3.539-5.288-7.237-7.617-11.064c-0.665-1.093-1.312-2.197-1.94-3.311
				c-0.305-0.541-0.606-1.085-0.902-1.631c-0.308-0.568-0.582-1.205-1.08-1.632C53.675,143.972,52.788,144.3,52.892,144.87
				L52.892,144.87z"/>
		</g>
		<g>
			<path style="fill:#455A64;" d="M78.637,176.59c-0.332,0.252-0.468,0.619-0.419,1.027c0.045,0.375,0.29,0.677,0.599,0.876
				c0.639,0.412,1.506,0.279,2.116-0.114c0.51-0.329,0.893-0.936,0.838-1.558c-0.062-0.697-0.524-1.298-1.197-1.51
				c-0.38-0.12-0.823-0.078-1.174,0.109c-0.398,0.211-0.767,0.604-0.763,1.083c0.001,0.163,0.149,0.322,0.289,0.386
				c0.021,0.01,0.043,0.019,0.064,0.029c-0.097-0.114-0.194-0.228-0.291-0.342c0.068,0.205,0.163,0.348,0.322,0.492
				c0.076,0.069,0.263,0.128,0.348,0.035c0.199-0.218,0.233-0.318,0.344-0.522c0.036-0.066,0.084-0.116,0.133-0.171
				c0.008-0.009,0.052-0.048,0.009-0.01c0.018-0.016,0.036-0.031,0.055-0.046c0.018-0.014,0.036-0.028,0.054-0.042
				c0.014-0.01,0.028-0.02,0.043-0.029c0.035-0.023,0.019-0.013-0.049,0.029c0.011,0.005,0.107-0.05,0.124-0.057
				c0.087-0.037-0.034,0.013-0.046,0.013c0.018,0,0.047-0.011,0.066-0.015c0.019-0.004,0.131-0.014,0.022-0.007
				c-0.098,0.007-0.019,0.002,0.006,0.003c0.023,0.001,0.046,0.004,0.068,0.005c0.06,0.003-0.151-0.04-0.026,0
				c0.02,0.007,0.042,0.015,0.063,0.019c0.07,0.014-0.108-0.058-0.048-0.021c0.04,0.025,0.087,0.046,0.128,0.069
				c0.058,0.033-0.012,0.027-0.036-0.027c0.005,0.01,0.04,0.032,0.05,0.041c0.028,0.024,0.084,0.107,0.116,0.116
				c-0.043-0.012-0.065-0.085-0.026-0.028c0.013,0.018,0.026,0.036,0.038,0.054c0.028,0.042,0.05,0.086,0.075,0.129
				c0.034,0.059-0.037-0.096-0.014-0.032c0.009,0.026,0.02,0.051,0.029,0.078c0.016,0.047,0.029,0.096,0.039,0.144
				c0.019,0.093-0.022,0.009,0.002-0.02c-0.003,0.004,0.005,0.067,0.005,0.066c0.002,0.044,0.001,0.088-0.002,0.132
				c-0.002,0.022-0.005,0.044-0.007,0.066c-0.009,0.098,0.004-0.034,0.007-0.032c0.012,0.011-0.045,0.148-0.052,0.166
				c-0.011,0.027-0.022,0.053-0.035,0.079c-0.016,0.033-0.053,0.054-0.008,0.018c0.048-0.038,0.005-0.012-0.012,0.015
				c-0.016,0.024-0.032,0.048-0.049,0.072c-0.028,0.037-0.058,0.073-0.088,0.108c-0.036,0.041-0.045,0.012,0.023-0.024
				c-0.025,0.013-0.057,0.052-0.079,0.07c-0.036,0.03-0.075,0.056-0.112,0.085c-0.073,0.056,0.02-0.012,0.034-0.018
				c-0.021,0.009-0.041,0.024-0.062,0.035c-0.047,0.025-0.095,0.047-0.144,0.067c-0.022,0.009-0.044,0.016-0.066,0.025
				c-0.052,0.021,0.136-0.037,0.008-0.005c-0.051,0.013-0.103,0.02-0.155,0.03c-0.067,0.012-0.021-0.028,0.051-0.003
				c-0.014-0.005-0.062,0.002-0.073,0.002c-0.036,0-0.118-0.023-0.147-0.008c0.044-0.024,0.126,0.026,0.049,0.007
				c-0.035-0.009-0.071-0.016-0.106-0.026c-0.001,0-0.063-0.025-0.069-0.023c0.078,0.032,0.097,0.039,0.057,0.021
				c-0.016-0.007-0.032-0.014-0.047-0.022c-0.021-0.011-0.04-0.023-0.061-0.034c-0.097-0.051,0.081,0.081,0.004,0.002
				c-0.016-0.016-0.034-0.033-0.05-0.048c-0.079-0.075,0.051,0.094,0.007,0.006c-0.009-0.018-0.021-0.037-0.031-0.054
				c-0.051-0.083,0.025,0.103,0.005,0.007c-0.004-0.02-0.011-0.04-0.016-0.06c-0.002-0.01-0.004-0.02-0.006-0.031
				c-0.007-0.054-0.007-0.041,0.001,0.039c0.009-0.01,0.009-0.12,0.009-0.138c0-0.061-0.047,0.114-0.006,0.025
				c0.01-0.021,0.023-0.046,0.03-0.068c0.016-0.054-0.08,0.088-0.012,0.022c0.027-0.026,0.1-0.085-0.012,0.004
				c0.104-0.083,0.188-0.182,0.202-0.321c0.013-0.124-0.041-0.27-0.131-0.356C79.241,176.481,78.873,176.411,78.637,176.59
				L78.637,176.59z"/>
		</g>
	</g>
	<g>
		<path style="fill:#455A64;" d="M172.587,85.392c-3.861-3.273-9.372-3.665-13.726-1.108c-2.279,1.338-4.272,3.443-5.016,6.026
			c-0.672,2.329-0.208,5.232,2.29,6.214c0.56,0.22,1.116-0.429,0.481-0.742c-2.115-1.041-1.907-4.323-1.065-6.13
			c1.029-2.209,3.001-3.872,5.219-4.812c2.293-0.971,4.934-1.132,7.302-0.335c2.392,0.805,4.416,2.547,5.758,4.662
			c1.423,2.243,2.08,4.945,1.679,7.584c-0.437,2.879-2.081,5.118-4.587,6.56c-2.633,1.515-5.632,2.327-8.09,4.159
			c-2.118,1.578-3.962,4.264-3.444,7.03c0.543,2.899,3.72,5.281,6.506,3.45c1.116-0.733,1.901-2.094,1.464-3.443
			c-0.477-1.473-2.039-2.261-3.482-1.706c-0.232,0.09-0.266,0.381-0.161,0.57c0.132,0.237,0.416,0.291,0.662,0.255
			c0.577-0.085,1.18,0.404,1.458,0.87c0.416,0.696,0.266,1.485-0.316,2.039c-0.962,0.916-2.383,0.682-3.32-0.13
			c-2.135-1.851-1.311-4.833,0.361-6.663c2.033-2.226,5.123-3.09,7.748-4.383c2.577-1.269,4.841-3.013,5.987-5.725
			C178.385,94.691,176.605,88.8,172.587,85.392z"/>
		<g>
			<path style="fill:#455A64;" d="M165.178,126.909c-0.046-0.192-0.133-0.351-0.25-0.507c-0.031-0.041-0.062-0.08-0.098-0.116
				c-0.113-0.115-0.216-0.158-0.368-0.204c-0.178-0.053-0.313-0.107-0.496-0.091c-0.061,0.005-0.149,0.053-0.169,0.116
				c-0.117,0.373,0.028,0.49,0.138,0.723c0.006,0.013,0.012,0.027,0.018,0.041c0.017,0.09,0.055,0.176,0.072,0.267
				c0.003,0.018,0.006,0.037,0.009,0.055c0.001-0.009-0.002-0.01,0.001-0.023c-0.002,0.009,0.001,0.021,0.001,0.031
				c0.001,0.004,0.001,0.008,0.002,0.013c0.002,0.009-0.001,0.004-0.002,0.009c0.002,0.025,0.002,0.05,0.001,0.071
				c-0.001,0.041-0.004,0.083-0.008,0.124c-0.002,0.021-0.005,0.041-0.008,0.062c-0.011,0.073-0.041,0.066,0.006-0.012
				c-0.041,0.069-0.052,0.172-0.087,0.247c-0.004,0.008-0.008,0.016-0.012,0.024c-0.028,0.038-0.053,0.078-0.084,0.114
				c-0.005,0.006-0.01,0.012-0.016,0.017c-0.027,0.019-0.055,0.042-0.081,0.063c0.01-0.004,0.015-0.012,0.028-0.012
				c-0.005,0-0.017,0.006-0.028,0.012c-0.006,0.005-0.012,0.009-0.018,0.014c-0.013,0.009-0.006,0.001-0.009,0.001
				c-0.002,0.001-0.006,0.003-0.006,0.004c-0.019,0.009-0.039,0.016-0.058,0.024c-0.037,0.007-0.073,0.014-0.11,0.021
				c-0.005,0-0.01,0-0.015,0c-0.044,0-0.088-0.007-0.132-0.008c-0.013-0.003-0.025-0.005-0.038-0.008
				c-0.047-0.012-0.092-0.031-0.138-0.043c-0.017-0.009-0.034-0.017-0.051-0.026c-0.045-0.024-0.087-0.052-0.131-0.078
				c-0.005-0.003-0.009-0.007-0.015-0.012c-0.018-0.016-0.037-0.031-0.055-0.048c-0.033-0.031-0.065-0.063-0.095-0.096
				c-0.003-0.004-0.012-0.016-0.021-0.027c-0.023-0.037-0.047-0.072-0.068-0.11c-0.011-0.02-0.02-0.04-0.031-0.059
				c-0.006-0.011-0.007-0.011-0.009-0.015c0-0.004,0-0.004-0.003-0.016c-0.011-0.044-0.025-0.086-0.034-0.131
				c-0.005-0.026-0.008-0.051-0.012-0.077c0.001-0.047,0-0.093,0.004-0.141c0.003-0.031,0.007-0.062,0.012-0.093
				c0-0.004,0.002-0.012,0.003-0.021c0.002-0.011,0.008-0.037,0.011-0.048c0.011-0.036,0.024-0.071,0.038-0.106
				c0.021-0.052,0.045-0.104,0.072-0.153c0.007-0.014,0.023-0.051,0.037-0.065c0.005-0.005,0.01-0.011,0.013-0.015
				c0.037-0.051,0.078-0.1,0.121-0.147c0.09-0.098,0.188-0.187,0.302-0.256c0.045-0.026,0.09-0.05,0.137-0.071
				c0.077-0.034,0.143-0.077,0.212-0.116c0.02-0.004,0.039-0.008,0.059-0.011c0.206-0.032,0.324-0.223,0.249-0.42
				c-0.071-0.186-0.244-0.282-0.429-0.306c-0.175-0.04-0.331-0.054-0.51-0.003c-0.096,0.027-0.19,0.061-0.282,0.099
				c-0.151,0.062-0.293,0.144-0.423,0.242c-0.279,0.208-0.505,0.496-0.645,0.815c-0.286,0.646-0.165,1.351,0.285,1.885
				c0.431,0.512,1.124,0.769,1.783,0.705c0.624-0.061,1.181-0.491,1.381-1.087C165.234,127.602,165.258,127.246,165.178,126.909z"/>
			<path style="fill:#455A64;" d="M163.744,127.932c-0.027,0.011-0.036,0.015-0.028,0.015
				C163.723,127.943,163.731,127.939,163.744,127.932C163.744,127.932,163.744,127.932,163.744,127.932z"/>
			<path style="fill:#455A64;" d="M164.031,127.192c-0.004,0.04,0.001,0.05,0.002,0.03c0-0.008,0-0.014,0-0.022
				C164.032,127.198,164.032,127.195,164.031,127.192z"/>
		</g>
	</g>
	<g>
		<path style="fill:#455A64;" d="M416.733,222.233c0.618-6.374-2.857-12.672-8.219-16.028c-5.641-3.531-12.989-3.938-19.166-1.644
			c-5.978,2.221-11.055,7.058-12.178,13.52c-0.551,3.168-0.169,6.474,1.373,9.323c1.492,2.756,3.947,4.859,6.607,6.445
			c2.574,1.534,5.513,2.878,8.537,3.101c2.827,0.209,5.786-1.057,6.711-3.922c0.844-2.613-0.159-5.477-1.662-7.647
			c-1.73-2.497-4.489-4.084-7.419-4.744c-2.943-0.662-6.241-0.453-8.917,1.018c-2.468,1.356-4.174,3.687-5.332,6.207
			c-1.43,3.109-1.997,6.721-0.956,10.035c0.866,2.757,2.952,5.339,5.732,6.32c1.32,0.466,2.955,0.531,4.145-0.315
			c1.149-0.817,1.449-2.256,0.961-3.536c-1.036-2.722-4.166-3.882-6.882-3.724c-2.626,0.153-5.307,1.495-6.456,3.961
			c-1.024,2.198-0.538,4.943,1.008,6.771c0.814,0.962,1.906,1.585,3.14,1.827c0.675,0.133,0.849-0.758,0.172-0.892
			c-2.187-0.43-3.504-2.729-3.634-4.82c-0.146-2.341,1.233-4.296,3.345-5.232c2.14-0.948,5.078-0.849,6.901,0.736
			c0.824,0.716,1.686,1.966,1.331,3.116c-0.417,1.353-1.996,1.359-3.121,1.035c-2.504-0.721-4.355-3.072-5.193-5.442
			c-1.017-2.878-0.59-6.107,0.577-8.872c0.94-2.228,2.316-4.382,4.371-5.729c2.201-1.442,5.02-1.733,7.573-1.339
			c2.599,0.401,5.206,1.635,6.906,3.681c1.468,1.766,2.589,4.251,2.196,6.588c-0.446,2.654-2.96,3.693-5.397,3.506
			c-2.746-0.211-5.439-1.528-7.772-2.915c-2.33-1.385-4.466-3.188-5.874-5.531c-1.464-2.435-1.947-5.322-1.603-8.125
			c0.693-5.65,4.715-10.094,9.746-12.436c5.191-2.417,11.471-2.642,16.789-0.501c5.202,2.094,9.327,6.719,10.405,12.276
			c0.249,1.282,0.32,2.586,0.222,3.887C415.656,222.737,416.676,222.823,416.733,222.233L416.733,222.233z"/>
	</g>
	<g>
		<path style="fill:#455A64;" d="M107.513,318.467c-5.09,4.021-12.569,4.622-17.994,0.886c-5.301-3.651-7.769-10.638-5.922-16.794
			c1.858-6.192,6.873-10.971,12.873-13.167c5.805-2.124,13.028-1.748,17.96,2.271c2.524,2.057,4.153,5.053,4.109,8.353
			c-0.04,2.997-1.591,5.844-4.478,6.932c-2.618,0.987-5.713,0.457-7.315-1.99c-1.788-2.732-1.193-6.297,0.539-8.886
			c1.895-2.833,5.019-4.941,8.165-6.153c3.189-1.228,6.855-1.631,10.108-0.393c2.799,1.065,5.312,3.23,6.408,6.063
			c0.507,1.31,0.74,2.723,0.389,4.102c-0.293,1.149-0.986,2.498-2.237,2.81c-1.559,0.389-2.835-1.004-3.495-2.243
			c-0.663-1.243-0.928-2.702-0.884-4.102c0.09-2.854,1.465-5.681,3.8-7.362c2.321-1.672,5.425-1.858,8.076-0.942
			c2.767,0.956,5.623,3.587,5.569,6.731c-0.028,1.603-1.13,3.397-2.884,3.453c-0.721,0.023-0.516,0.948,0.143,0.927
			c1.78-0.057,3.307-1.307,3.832-3.003c0.577-1.862-0.058-3.908-1.132-5.464c-1.864-2.702-5.057-4.264-8.308-4.381
			c-3.299-0.119-6.422,1.351-8.37,4.026c-1.9,2.608-2.62,6.151-1.654,9.256c0.5,1.606,1.479,3.234,3.037,4
			c1.411,0.694,3.064,0.434,4.219-0.62c2.49-2.271,2.094-6.13,0.642-8.831c-1.622-3.017-4.687-5.19-7.981-6.013
			c-3.915-0.978-8.095-0.098-11.639,1.694c-3.353,1.695-6.544,4.323-8.043,7.848c-1.346,3.165-0.944,7.312,1.793,9.632
			c2.415,2.047,6.023,1.956,8.709,0.513c3.096-1.663,4.59-5.159,4.322-8.58c-0.618-7.89-8.742-12.039-15.899-12.116
			c-6.956-0.074-13.904,3.245-18.185,8.734c-2.352,3.016-3.996,6.803-4.121,10.658c-0.113,3.503,0.973,6.994,2.971,9.866
			c2.006,2.884,4.91,5.111,8.297,6.108c3.507,1.033,7.36,0.875,10.769-0.447c1.639-0.636,3.169-1.527,4.482-2.699
			C108.624,318.751,107.918,318.147,107.513,318.467L107.513,318.467z"/>
	</g>
	<g>
		<path style="fill:#37474F;" d="M236.45,41.622c-4.697-3.95-11.138-0.878-14.376,3.415c-1.528,2.025-2.661,4.58-2.334,7.168
			c0.366,2.896,2.712,4.836,5.327,5.773c0.95,0.34,1.932,0.581,2.927,0.747c1.168,0.194,2.28,0.428,3.475,0.374
			c2.264-0.103,4.469-0.932,6.274-2.296c3.651-2.76,5.633-7.491,4.575-12.009c-0.49-2.093-2.376-3.955-4.06-5.172
			c-1.853-1.338-4-2.233-6.204-2.802c-4.589-1.183-9.505-0.968-13.657,1.472c-2.056,1.208-3.849,2.865-5.23,4.808
			c-1.371,1.928-2.329,4.175-3.109,6.4c-1.355,3.868-1.693,8.144-0.628,12.126c0.962,3.598,3.092,6.897,6.239,8.951
			c3.538,2.31,7.85,2.778,11.947,2.037c2.603-0.471,5.044-1.262,7.17-2.888c1.993-1.524,3.708-3.634,4.315-6.109
			c0.624-2.547,0.05-5.294-1.331-7.499c-1.49-2.377-3.84-3.993-6.265-5.308c-5.32-2.885-11.439-4.01-17.433-3.15
			c-2.728,0.391-5.418,1.108-7.828,2.474c-2.245,1.273-4.227,3.017-5.824,5.041c-3.436,4.352-5.389,10.281-4.091,15.79
			c1.145,4.861,5.011,8.495,9.632,10.129c3.308,1.17,6.91,1.306,10.377,0.973c3.641-0.35,7.334-1.234,10.564-2.992
			c2.863-1.558,5.366-3.968,6.063-7.255c0.354-1.67,0.276-3.387-0.575-4.889c-0.931-1.645-2.378-2.968-3.926-4.025
			c-3.357-2.292-7.613-3.761-11.701-3.695c-0.904,0.014-1.817,0.117-2.691,0.351c-0.979,0.262-1.743,0.728-2.46,1.449
			c-1.389,1.395-1.999,3.301-1.832,5.245c0.174,2.023,1.088,3.93,2.296,5.536c0.647,0.86,1.402,1.637,2.234,2.318
			c0.848,0.693,1.781,1.174,2.735,1.697c4.723,2.588,10.123,3.953,15.522,3.445c5.197-0.489,10.694-2.761,13.464-7.413
			c1.218-2.046,1.725-4.538,0.924-6.83c-0.497-1.423-1.399-2.642-2.548-3.608c-2.135-1.794-5.16-2.729-7.936-2.4
			c-2.566,0.305-4.847,1.844-5.149,4.567c-0.382,3.442,1.798,6.937,4.408,8.991c2.75,2.164,6.335,3.129,9.802,3.052
			c3.449-0.077,6.939-1.196,9.59-3.444c2.84-2.408,4.403-6.104,4.064-9.823c-0.726-7.98-9.54-15.679-17.686-13.604
			c-1.093,0.278-1.975,0.711-2.836,1.438c-0.813,0.686-1.526,1.476-2.097,2.374c-0.95,1.493-1.449,3.248-1.33,5.021
			c0.246,3.654,2.911,6.679,6.285,7.904c2.038,0.74,4.236,0.827,6.375,0.592c1.965-0.216,3.922-0.807,5.551-1.954
			c2.944-2.074,4.235-5.58,3.835-9.098c-0.509-4.476-3.569-8.043-6.669-11.078c-3.81-3.73-8.514-6.813-13.824-7.808
			c-4.662-0.873-9.766,0.18-13.898,2.451c-4.063,2.233-7.223,5.932-8.113,10.543c-0.772,3.999-0.37,8.832,2.903,11.665
			c1.748,1.513,4.122,2.072,6.343,2.508c1.94,0.381,3.954,0.546,5.924,0.32c3.222-0.37,6.253-1.871,7.953-4.719
			c1.94-3.249,1.808-7.308,1.013-10.882c-0.254-1.141-0.518-2.379-1.038-3.431c-0.493-0.996-1.083-1.939-1.75-2.828
			c-1.298-1.73-2.896-3.219-4.667-4.456c-3.701-2.585-8.117-4.087-12.562-4.736c-2.195-0.321-4.426-0.434-6.642-0.334
			c-1.098,0.05-2.195,0.154-3.282,0.318c-1.072,0.162-2.048,0.493-3.038,0.932c-3.91,1.732-7.294,4.666-9.679,8.206
			c-2.299,3.413-3.775,7.543-3.369,11.699c0.198,2.019,0.848,3.978,1.921,5.703c1.266,2.035,3.082,3.622,4.902,5.15
			c7.83,6.577,18.775,10.033,28.933,8.237c2.362-0.418,4.763-1.064,6.885-2.206c1.834-0.988,3.445-2.386,4.714-4.036
			c2.521-3.278,3.722-7.498,3.553-11.611c-0.086-2.093-0.52-4.183-1.323-6.119c-0.892-2.151-2.281-3.956-4.001-5.518
			c-3.697-3.358-8.632-5.349-13.603-5.671c-4.436-0.287-8.973,0.741-12.454,3.605c-3.104,2.554-5.144,6.246-5.693,10.224
			c-0.579,4.195,0.645,8.535,3.335,11.805c2.928,3.559,6.944,6.126,11.264,7.661c4.352,1.546,9.065,2.101,13.66,1.668
			c2.321-0.219,4.627-0.693,6.835-1.444c1.026-0.349,2.029-0.762,3.006-1.23c1.061-0.508,2.037-1.237,2.961-1.961
			c7.076-5.543,12.017-15.207,9.412-24.249c-0.656-2.277-1.776-4.39-3.24-6.249c-1.448-1.838-3.546-3.265-5.546-4.442
			c-4.264-2.51-9.169-4.018-14.112-4.294c-4.691-0.262-9.709,0.534-13.744,3.068c-3.519,2.21-6.112,5.682-7.234,9.683
			c-1.091,3.892-0.846,8.128,0.648,11.882c0.753,1.892,1.799,3.65,3.118,5.202c1.514,1.783,3.427,3.196,5.327,4.54
			c4.497,3.179,9.928,5.31,15.506,5.071c4.384-0.187,8.806-2.362,11.703-5.644c1.362-1.543,2.392-3.408,2.754-5.446
			c0.185-1.043,0.183-2.097,0.005-3.141c-0.173-1.02-0.505-2.384-1.215-3.166c-1.771-1.95-3.876-3.68-6.08-5.115
			c-2.247-1.463-4.721-2.635-7.357-3.182c-2.425-0.504-5.254-0.487-7.492,0.688c-1.82,0.955-3.29,2.511-4.327,4.27
			c-2.1,3.564-2.783,8.328-0.777,12.086c1.796,3.366,6.125,4.273,9.375,2.602c3.355-1.725,5.012-5.613,3.806-9.199
			c-0.162-0.481-1.158-0.539-0.968,0.026c1.178,3.506-0.603,7.322-4.051,8.697c-1.575,0.628-3.36,0.654-4.885-0.133
			c-1.803-0.93-2.768-2.639-3.193-4.565c-0.849-3.842,0.486-8.188,3.132-11.057c1.487-1.612,3.312-2.548,5.499-2.772
			c2.536-0.26,5.066,0.372,7.373,1.396c2.365,1.05,4.544,2.538,6.506,4.216c0.905,0.774,1.963,1.607,2.687,2.559
			c0.615,0.81,0.894,2.104,1.013,3.096c0.491,4.088-2.167,7.717-5.368,9.952c-1.715,1.197-3.649,2.079-5.683,2.572
			c-2.166,0.526-4.428,0.467-6.619,0.13c-2.715-0.418-5.334-1.39-7.739-2.705c-2.197-1.201-4.321-2.689-6.223-4.318
			c-5.818-4.986-7.786-13.651-4.593-20.638c1.695-3.71,4.777-6.573,8.531-8.129c4.215-1.748,8.918-2.058,13.399-1.369
			c4.514,0.694,8.908,2.393,12.649,5.023c0.906,0.637,1.773,1.329,2.584,2.083c0.838,0.778,1.507,1.794,2.093,2.77
			c1.124,1.872,1.877,3.941,2.219,6.098c1.366,8.617-3.777,17.357-10.67,22.195c-3.46,2.428-7.936,3.462-12.103,3.74
			c-4.345,0.29-8.765-0.327-12.84-1.871c-3.996-1.514-7.663-3.965-10.356-7.308c-2.467-3.063-3.469-7.167-2.933-11.037
			c0.516-3.725,2.481-7.239,5.386-9.627c3.288-2.703,7.532-3.693,11.727-3.418c4.63,0.304,9.223,2.119,12.701,5.21
			c1.65,1.466,3.016,3.163,3.868,5.209c0.757,1.817,1.186,3.761,1.285,5.726c0.195,3.855-0.838,7.813-3.111,10.957
			c-1.129,1.562-2.547,2.894-4.198,3.892c-1.888,1.141-4.073,1.79-6.219,2.243c-9.528,2.012-19.871-0.915-27.548-6.729
			c-3.408-2.581-6.677-5.593-7.574-9.946c-0.778-3.776,0.248-7.696,2.095-11.008c1.97-3.534,4.96-6.552,8.469-8.563
			c0.863-0.495,1.76-0.925,2.689-1.28c0.939-0.358,1.87-0.52,2.865-0.636c2.056-0.241,4.138-0.283,6.202-0.131
			c7.933,0.583,16.958,4.077,20.568,11.715c0.491,1.039,0.744,2.258,0.986,3.378c0.216,1,0.375,2.015,0.443,3.036
			c0.115,1.715,0.007,3.472-0.517,5.118c-0.9,2.826-3.01,4.945-5.834,5.856c-3.549,1.145-7.5,0.525-10.975-0.58
			c-2.042-0.649-3.613-1.916-4.567-3.856c-0.877-1.784-1.128-3.832-1.05-5.799c0.082-2.067,0.483-4.139,1.407-5.999
			c0.973-1.958,2.42-3.676,4.132-5.03c3.443-2.722,7.846-4.125,12.203-4.301c5.061-0.204,9.946,2.174,13.844,5.229
			c1.985,1.556,3.784,3.343,5.406,5.273c1.307,1.556,2.487,3.138,3.189,5.068c1.118,3.071,1.027,6.69-1.018,9.363
			c-2.336,3.053-6.469,3.978-10.139,3.661c-3.475-0.299-6.829-2.392-7.917-5.829c-1.12-3.539,0.612-7.032,3.492-9.14
			c0.763-0.558,1.848-0.803,2.772-0.943c0.923-0.14,1.872-0.146,2.797-0.027c1.911,0.244,3.742,0.967,5.366,1.993
			c3.328,2.101,6.032,5.483,6.94,9.353c0.822,3.501-0.13,7.212-2.566,9.862c-2.168,2.358-5.29,3.711-8.44,4.087
			c-3.189,0.38-6.581-0.154-9.356-1.824c-2.784-1.675-4.989-4.596-5.272-7.906c-0.213-2.49,1.253-4.374,3.657-4.931
			c2.437-0.565,5.193,0.123,7.223,1.536c1.098,0.764,2.008,1.774,2.575,2.992c0.929,1.995,0.687,4.246-0.264,6.184
			c-2.282,4.653-7.616,7.049-12.533,7.639c-5.063,0.608-10.277-0.482-14.781-2.838c-1.835-0.96-3.507-1.945-4.866-3.544
			c-1.26-1.483-2.224-3.292-2.505-5.233c-0.273-1.886,0.265-3.757,1.62-5.118c0.682-0.685,1.384-1.059,2.315-1.281
			c0.814-0.194,1.654-0.26,2.489-0.257c3.8,0.015,7.757,1.415,10.854,3.587c1.404,0.985,2.728,2.207,3.533,3.744
			c0.731,1.395,0.676,3.083,0.278,4.582c-0.803,3.024-3.29,5.162-5.973,6.552c-3.028,1.569-6.461,2.377-9.841,2.696
			c-3.138,0.296-6.438,0.235-9.457-0.76c-4.425-1.457-8.174-4.796-9.304-9.422c-1.282-5.247,0.55-10.943,3.79-15.125
			c1.499-1.935,3.334-3.609,5.44-4.862c2.269-1.35,4.794-2.076,7.387-2.494c5.65-0.909,11.439,0.039,16.535,2.629
			c2.405,1.222,4.868,2.772,6.353,5.089c1.353,2.111,1.934,4.773,1.266,7.223c-0.651,2.388-2.417,4.442-4.415,5.839
			c-2.059,1.439-4.385,2.117-6.839,2.518c-3.765,0.617-7.762,0.097-10.941-2.119c-2.891-2.015-4.783-5.155-5.603-8.549
			c-0.906-3.75-0.561-7.741,0.722-11.361c0.732-2.065,1.605-4.189,2.86-5.994c1.287-1.852,2.938-3.45,4.859-4.634
			c3.894-2.401,8.459-2.69,12.838-1.654c2.122,0.502,4.199,1.331,5.988,2.591c1.642,1.156,3.422,2.904,3.846,4.94
			c0.895,4.297-1.132,8.815-4.704,11.285c-1.767,1.222-3.862,1.921-6.018,1.894c-1.094-0.014-2.171-0.261-3.239-0.474
			c-0.883-0.176-1.754-0.415-2.588-0.759c-2.314-0.954-4.141-2.794-4.205-5.408c-0.059-2.401,1.131-4.728,2.634-6.532
			c3.026-3.631,8.592-6.352,12.764-2.905C236.48,42.534,236.867,41.973,236.45,41.622L236.45,41.622z"/>
	</g>
	<g>
		<path style="fill:#BA68C8;" d="M23.833,245.22c0,0.214,14.828,14.556,14.828,14.556l12.27-6.558L69,278.947
			c0,0-8.392-21.689-11.271-34.802l-10.152,2.431l-7.855-17.918L23.833,245.22z"/>
		<path style="opacity:0.5;fill:#FFFFFF;" d="M23.833,245.22c0,0.214,14.828,14.556,14.828,14.556l12.27-6.558L69,278.947
			c0,0-8.392-21.689-11.271-34.802l-10.152,2.431l-7.855-17.918L23.833,245.22z"/>
		<g>
			<path style="fill:#455A64;" d="M26.119,247.606c2.852,3.227,5.915,6.278,8.922,9.361c0.786,0.805,1.568,1.614,2.356,2.417
				c0.523,0.533,1.13,1.021,1.927,0.882c0.454-0.079,0.854-0.336,1.248-0.56c0.506-0.288,1.012-0.576,1.518-0.863
				c0.94-0.535,1.879-1.069,2.819-1.604c2.13-1.212,4.26-2.426,6.389-3.639c-0.295-0.063-0.59-0.126-0.885-0.189
				c4.273,7.081,8.859,13.959,13.783,20.604c1.403,1.893,2.832,3.767,4.284,5.624c0.346,0.443,1.368,0.17,1.109-0.467
				c-3.644-8.96-6.757-18.136-9.299-27.47c-0.722-2.649-1.396-5.311-2.027-7.983c-0.074-0.314-0.537-0.404-0.791-0.324
				c-2.413,0.754-4.826,1.508-7.239,2.262c-0.543,0.17-1.086,0.361-1.635,0.511c-0.348,0.095-0.5,0.141-0.726-0.182
				c-0.149-0.213-0.239-0.509-0.35-0.744c-0.513-1.084-1.011-2.175-1.498-3.271c-1.989-4.476-3.776-9.037-5.705-13.538
				c-0.19-0.443-0.803-0.399-1.096-0.109c-2.474,2.458-4.917,4.949-7.324,7.473c-2.335,2.449-4.788,4.876-6.855,7.558
				c-0.328,0.426,0.408,0.902,0.753,0.563c2.47-2.424,4.77-5.024,7.161-7.526c2.388-2.499,4.811-4.964,7.265-7.398
				c-0.365-0.036-0.73-0.073-1.096-0.109c1.631,3.819,3.194,7.668,4.847,11.477c0.828,1.907,1.693,3.795,2.572,5.679
				c0.327,0.702,0.761,1.312,1.619,1.297c0.933-0.016,1.936-0.501,2.818-0.776c2.296-0.717,4.593-1.435,6.889-2.152
				c-0.264-0.108-0.527-0.216-0.791-0.324c2.222,9.41,5.004,18.688,8.35,27.759c0.949,2.574,1.944,5.13,2.98,7.67
				c0.37-0.156,0.739-0.311,1.109-0.467c-5.076-6.473-9.834-13.184-14.325-20.075c-1.279-1.963-2.525-3.946-3.747-5.945
				c-0.189-0.31-0.586-0.361-0.885-0.189c-2.218,1.271-4.435,2.541-6.652,3.814c-1.072,0.615-2.144,1.23-3.215,1.846
				c-0.45,0.258-1.338,1.008-1.891,0.857c-0.45-0.123-0.918-0.809-1.229-1.124c-3.646-3.692-7.22-7.507-11.064-10.992
				C26.185,246.942,25.819,247.266,26.119,247.606L26.119,247.606z"/>
		</g>
	</g>
	<g>
		<g>
			<path style="fill:#BA68C8;" d="M352.851,111.608c-0.884-1.7-0.342-4.008,1.206-5.136c1.548-1.128,3.912-0.936,5.259,0.427
				c0.907-2.657,2.014-5.466,4.341-7.037c2.327-1.571,6.208-1.062,7.095,1.602c0.537-4.883,1.119-9.914,3.504-14.209
				c2.385-4.295,7.059-7.71,11.931-7.082c4.437,0.572,7.928,4.346,9.491,8.538c1.563,4.191,1.561,8.78,1.539,13.253
				c3.135-4.158,9.133-5.676,14.061-3.995c4.928,1.681,8.631,6.211,9.849,11.274c1.218,5.063,0.109,10.531-2.487,15.044
				c-20.929-4.482-42.109-7.788-63.408-9.899L352.851,111.608z"/>
		</g>
		<g style="opacity:0.5;">
			<path style="fill:#FFFFFF;" d="M352.851,111.608c-0.884-1.7-0.342-4.008,1.206-5.136c1.548-1.128,3.912-0.936,5.259,0.427
				c0.907-2.657,2.014-5.466,4.341-7.037c2.327-1.571,6.208-1.062,7.095,1.602c0.537-4.883,1.119-9.914,3.504-14.209
				c2.385-4.295,7.059-7.71,11.931-7.082c4.437,0.572,7.928,4.346,9.491,8.538c1.563,4.191,1.561,8.78,1.539,13.253
				c3.135-4.158,9.133-5.676,14.061-3.995c4.928,1.681,8.631,6.211,9.849,11.274c1.218,5.063,0.109,10.531-2.487,15.044
				c-20.929-4.482-42.109-7.788-63.408-9.899L352.851,111.608z"/>
		</g>
		<g>
			<path style="fill:#455A64;" d="M355.223,114.8c8.339,1.009,16.673,2.032,24.987,3.241c8.179,1.189,16.332,2.553,24.452,4.093
				c4.617,0.875,9.225,1.802,13.82,2.786c0.294,0.063,0.629-0.118,0.774-0.372c3.387-5.948,4.284-13.473,0.946-19.641
				c-2.935-5.424-8.765-9.013-15.015-8.117c-3.306,0.474-6.453,2.112-8.503,4.783c0.412,0.103,0.823,0.206,1.235,0.309
				c0.021-4.299,0.008-8.724-1.389-12.841c-1.105-3.256-3.203-6.258-6.175-8.057c-2.993-1.812-6.602-1.944-9.776-0.514
				c-3.33,1.5-5.926,4.324-7.484,7.592c-2.004,4.204-2.538,8.881-3.037,13.456c0.452-0.091,0.905-0.181,1.357-0.272
				c-0.998-2.777-4.503-3.448-7.011-2.457c-3.247,1.283-4.682,4.898-5.725,7.953c0.378-0.09,0.755-0.18,1.132-0.271
				c-1.645-1.58-4.406-1.787-6.231-0.38c-1.709,1.318-2.27,3.789-1.323,5.718c0.307,0.626,1.513,0.266,1.185-0.401
				c-0.71-1.448-0.395-3.364,0.888-4.4c1.319-1.065,3.308-0.823,4.488,0.319c0.335,0.324,0.981,0.17,1.132-0.271
				c0.877-2.548,2-5.76,4.622-7.01c1.854-0.883,4.743-0.528,5.513,1.637c0.263,0.741,1.283,0.391,1.357-0.272
				c0.775-6.979,1.842-15.195,8.447-19.175c2.801-1.687,6.143-2.018,9.094-0.508c2.814,1.44,4.889,4.191,5.997,7.104
				c1.599,4.206,1.551,8.782,1.531,13.215c-0.003,0.613,0.912,0.73,1.235,0.309c3.379-4.405,9.737-5.546,14.653-3.202
				c5.388,2.568,8.481,8.446,8.521,14.275c0.026,3.721-1.067,7.379-2.9,10.599c0.258-0.124,0.516-0.248,0.774-0.372
				c-8.141-1.74-16.318-3.302-24.527-4.679c-8.285-1.389-16.599-2.591-24.941-3.59c-4.683-0.561-9.384-1.052-14.087-1.41
				C354.596,113.928,354.637,114.729,355.223,114.8L355.223,114.8z"/>
		</g>
		<g>
			<path style="fill:#455A64;" d="M368.065,121.411c0.001,0-0.94,1.576-1.006,1.687c-0.265,0.447-0.532,0.892-0.811,1.33
				c-0.531,0.836-1.197,1.636-1.591,2.549c-0.081,0.188-0.094,0.374,0.041,0.545c0.021,0.026,0.041,0.052,0.062,0.078
				c0.12,0.151,0.276,0.235,0.467,0.176c0.764-0.233,1.292-1.136,1.708-1.77c0.277-0.421,0.545-0.847,0.805-1.279
				c0.307-0.51,0.596-1.028,0.875-1.554c0.256-0.482,0.53-0.978,0.683-1.503c0.085-0.292-0.216-0.556-0.467-0.606
				c-0.141-0.028-0.285-0.022-0.421,0.033C368.352,121.121,368.006,121.367,368.065,121.411L368.065,121.411z"/>
		</g>
		<g>
			<path style="fill:#455A64;" d="M375.268,131.605c0.001,0.001-0.94,1.576-1.006,1.687c-0.265,0.447-0.532,0.892-0.811,1.33
				c-0.531,0.836-1.197,1.636-1.591,2.549c-0.081,0.188-0.094,0.374,0.041,0.545c0.021,0.026,0.041,0.052,0.062,0.078
				c0.12,0.151,0.276,0.235,0.467,0.176c0.764-0.233,1.292-1.137,1.708-1.77c0.277-0.421,0.545-0.847,0.804-1.279
				c0.307-0.51,0.596-1.028,0.876-1.554c0.256-0.482,0.53-0.978,0.683-1.503c0.085-0.292-0.216-0.556-0.467-0.606
				c-0.141-0.028-0.285-0.022-0.421,0.033C375.555,131.315,375.21,131.561,375.268,131.605L375.268,131.605z"/>
		</g>
		<g>
			<path style="fill:#455A64;" d="M388.224,125.562c0.001,0-0.94,1.576-1.006,1.687c-0.265,0.447-0.532,0.892-0.811,1.331
				c-0.531,0.836-1.197,1.636-1.59,2.549c-0.081,0.188-0.094,0.375,0.041,0.545c0.021,0.026,0.041,0.052,0.062,0.079
				c0.12,0.151,0.276,0.235,0.467,0.176c0.764-0.233,1.292-1.136,1.708-1.77c0.277-0.421,0.545-0.847,0.805-1.279
				c0.307-0.51,0.596-1.028,0.875-1.554c0.256-0.482,0.53-0.978,0.683-1.503c0.085-0.292-0.216-0.556-0.467-0.606
				c-0.141-0.028-0.285-0.022-0.421,0.033C388.511,125.272,388.166,125.519,388.224,125.562L388.224,125.562z"/>
		</g>
		<g>
			<path style="fill:#455A64;" d="M408.632,127.073c0.001,0-0.94,1.576-1.006,1.687c-0.265,0.447-0.532,0.892-0.811,1.331
				c-0.531,0.836-1.197,1.636-1.591,2.549c-0.081,0.188-0.094,0.375,0.041,0.545c0.021,0.026,0.041,0.052,0.062,0.078
				c0.12,0.151,0.276,0.235,0.467,0.176c0.764-0.233,1.292-1.136,1.708-1.77c0.277-0.421,0.545-0.847,0.804-1.279
				c0.307-0.51,0.596-1.028,0.875-1.554c0.256-0.482,0.53-0.978,0.683-1.503c0.085-0.292-0.216-0.556-0.467-0.606
				c-0.141-0.028-0.285-0.022-0.421,0.033C408.919,126.783,408.573,127.029,408.632,127.073L408.632,127.073z"/>
		</g>
		<g>
			<path style="fill:#455A64;" d="M395.971,134.323c0.001,0-0.94,1.576-1.006,1.687c-0.265,0.447-0.532,0.892-0.811,1.331
				c-0.531,0.836-1.197,1.636-1.591,2.549c-0.081,0.188-0.094,0.375,0.041,0.545c0.021,0.026,0.041,0.052,0.062,0.078
				c0.12,0.151,0.276,0.235,0.467,0.177c0.764-0.233,1.292-1.137,1.708-1.77c0.277-0.421,0.545-0.847,0.804-1.279
				c0.307-0.51,0.596-1.028,0.875-1.554c0.256-0.482,0.53-0.978,0.683-1.503c0.085-0.292-0.216-0.556-0.467-0.606
				c-0.141-0.028-0.285-0.022-0.421,0.033C396.258,134.033,395.912,134.279,395.971,134.323L395.971,134.323z"/>
		</g>
	</g>
	<g>
		<g>
			<path style="fill:#BA68C8;" d="M139.206,82.462c-19.163,9.533-37.791,20.141-55.766,31.759c-3.935-3.22-6.715-7.737-7.796-12.768
				c-0.557-2.59-0.357-5.427,1.022-7.688c1.327-2.176,3.698-3.544,6.181-3.945c1.192-0.192,2.624-0.248,3.788,0.135
				c0.604,0.199,3.272,1.18,3.415,1.727c-0.96-3.671-1.402-7.477-1.31-11.271c0.042-1.712,0.201-3.459,0.899-5.022
				c1.81-4.051,6.944-5.803,11.292-4.92c4.348,0.883,7.991,3.819,11.069,7.015c0.336-1.358,0.705-2.78,1.661-3.802
				c1.522-1.628,4.162-1.746,6.215-0.881c2.054,0.865,3.659,2.513,5.204,4.118c-0.155-2.504,1.716-4.9,4.112-5.645
				c2.396-0.745,5.123,0.037,6.99,1.713c1.867,1.676,2.919,4.14,3.182,6.635L139.206,82.462z"/>
		</g>
		<g style="opacity:0.8;">
			<path style="fill:#FFFFFF;" d="M139.206,82.462c-19.163,9.533-37.791,20.141-55.766,31.759c-3.935-3.22-6.715-7.737-7.796-12.768
				c-0.557-2.59-0.357-5.427,1.022-7.688c1.327-2.176,3.698-3.544,6.181-3.945c1.192-0.192,2.624-0.248,3.788,0.135
				c0.604,0.199,3.272,1.18,3.415,1.727c-0.96-3.671-1.402-7.477-1.31-11.271c0.042-1.712,0.201-3.459,0.899-5.022
				c1.81-4.051,6.944-5.803,11.292-4.92c4.348,0.883,7.991,3.819,11.069,7.015c0.336-1.358,0.705-2.78,1.661-3.802
				c1.522-1.628,4.162-1.746,6.215-0.881c2.054,0.865,3.659,2.513,5.204,4.118c-0.155-2.504,1.716-4.9,4.112-5.645
				c2.396-0.745,5.123,0.037,6.99,1.713c1.867,1.676,2.919,4.14,3.182,6.635L139.206,82.462z"/>
		</g>
		<g>
			<path style="fill:#455A64;" d="M138.973,82.073c-7.56,3.558-14.967,7.484-22.28,11.522c-7.325,4.045-14.565,8.247-21.704,12.613
				c-4.006,2.451-7.982,4.951-11.927,7.499c0.282,0.005,0.564,0.009,0.847,0.013c-3.876-3.202-6.725-7.78-7.648-12.748
				c-0.47-2.53-0.21-5.422,1.416-7.514c1.503-1.934,3.841-2.942,6.245-3.114c1.18-0.085,2.229,0.125,3.316,0.548
				c0.477,0.185,0.95,0.382,1.409,0.607c0.171,0.084,0.341,0.171,0.501,0.276c0.068,0.045,0.14,0.089,0.201,0.143
				c0.032,0.028,0.076,0.128,0.033,0.016c0.304,0.795,1.538,0.294,1.333-0.501c-0.794-3.075-1.23-6.238-1.29-9.413
				c-0.051-2.741-0.011-5.828,1.853-8.034c1.434-1.697,3.584-2.694,5.761-2.997c2.498-0.347,4.944,0.207,7.193,1.308
				c2.787,1.365,5.151,3.461,7.293,5.676c0.347,0.359,1.039,0.057,1.147-0.377c0.329-1.327,0.67-2.814,1.743-3.756
				c0.892-0.783,2.164-1.026,3.318-0.913c2.858,0.282,4.979,2.512,6.865,4.465c0.375,0.388,1.191,0.02,1.168-0.511
				c-0.073-1.65,0.72-3.171,2.007-4.185c1.357-1.069,3.156-1.312,4.808-0.914c3.649,0.879,5.735,4.366,6.154,7.899
				c0.084,0.711,1.335,0.598,1.257-0.115c-0.357-3.27-1.973-6.524-4.943-8.149c-2.799-1.533-6.431-1.394-8.759,0.928
				c-1.222,1.218-1.969,2.875-1.897,4.612c0.389-0.17,0.778-0.341,1.168-0.511c-2.248-2.341-4.762-4.758-8.213-4.809
				c-1.43-0.021-2.874,0.43-3.944,1.398c-1.233,1.114-1.691,2.784-2.076,4.338c0.382-0.126,0.765-0.251,1.147-0.377
				c-3.89-4.021-9.019-7.893-14.937-7.324c-2.452,0.236-4.896,1.182-6.689,2.904c-2.145,2.06-2.713,4.9-2.797,7.77
				c-0.115,3.906,0.353,7.806,1.33,11.587c0.444-0.167,0.888-0.334,1.333-0.501c-0.291-0.76-1.406-1.137-2.085-1.43
				c-0.885-0.381-1.81-0.76-2.769-0.899c-2.769-0.402-5.861,0.48-7.993,2.288c-4.764,4.041-3.41,10.997-0.886,15.897
				c1.475,2.863,3.503,5.383,5.987,7.433c0.233,0.192,0.603,0.171,0.847,0.013c6.943-4.487,13.982-8.828,21.11-13.016
				c7.11-4.178,14.313-8.2,21.584-12.091c4.323-2.314,8.673-4.576,13.03-6.827C140.016,82.555,139.378,81.882,138.973,82.073
				L138.973,82.073z"/>
		</g>
		<g>
			<path style="fill:#455A64;" d="M96.716,110.724c-0.026,0.664,0.122,1.344,0.203,2.005c0.076,0.624,0.157,1.247,0.21,1.873
				c0.061,0.721,0.057,1.455,0.153,2.173c0.036,0.267,0.059,0.598,0.196,0.837c0.108,0.189,0.45,0.435,0.689,0.393
				c0.293-0.052,0.437-0.425,0.5-0.672c0.106-0.415,0.087-0.892,0.072-1.319c-0.022-0.635-0.095-1.272-0.159-1.904
				c-0.058-0.568-0.123-1.137-0.216-1.7c-0.111-0.672-0.191-1.379-0.513-1.985C97.586,109.93,96.737,110.214,96.716,110.724
				L96.716,110.724z"/>
		</g>
		<g>
			<path style="fill:#455A64;" d="M108.638,114.422c-0.026,0.664,0.122,1.344,0.203,2.005c0.076,0.624,0.157,1.247,0.21,1.873
				c0.061,0.721,0.057,1.456,0.153,2.173c0.036,0.267,0.059,0.598,0.196,0.837c0.108,0.189,0.45,0.435,0.689,0.393
				c0.293-0.051,0.437-0.425,0.5-0.672c0.106-0.415,0.087-0.892,0.072-1.319c-0.022-0.635-0.095-1.272-0.159-1.904
				c-0.058-0.568-0.123-1.137-0.216-1.7c-0.111-0.672-0.191-1.379-0.513-1.985C109.508,113.628,108.658,113.911,108.638,114.422
				L108.638,114.422z"/>
		</g>
		<g>
			<path style="fill:#455A64;" d="M115.233,101.738c-0.026,0.664,0.122,1.344,0.202,2.005c0.076,0.624,0.157,1.246,0.21,1.873
				c0.061,0.721,0.057,1.456,0.153,2.173c0.036,0.267,0.059,0.598,0.196,0.837c0.108,0.189,0.45,0.435,0.689,0.393
				c0.293-0.051,0.437-0.424,0.5-0.672c0.106-0.415,0.087-0.891,0.072-1.319c-0.022-0.635-0.095-1.273-0.159-1.904
				c-0.058-0.568-0.123-1.137-0.216-1.7c-0.111-0.672-0.191-1.379-0.513-1.985C116.104,100.944,115.254,101.227,115.233,101.738
				L115.233,101.738z"/>
		</g>
		<g>
			<path style="fill:#455A64;" d="M132.339,90.506c-0.027,0.664,0.122,1.344,0.202,2.005c0.076,0.624,0.157,1.247,0.21,1.873
				c0.061,0.721,0.057,1.455,0.153,2.173c0.036,0.267,0.059,0.598,0.196,0.837c0.108,0.189,0.45,0.435,0.689,0.393
				c0.293-0.051,0.437-0.425,0.5-0.672c0.106-0.415,0.087-0.891,0.072-1.319c-0.022-0.635-0.095-1.272-0.159-1.904
				c-0.058-0.568-0.123-1.137-0.216-1.7c-0.111-0.672-0.191-1.379-0.513-1.985C133.209,89.712,132.359,89.995,132.339,90.506
				L132.339,90.506z"/>
		</g>
		<g>
			<path style="fill:#455A64;" d="M126.713,103.968c-0.026,0.664,0.122,1.344,0.202,2.005c0.076,0.624,0.157,1.246,0.21,1.873
				c0.061,0.721,0.057,1.455,0.153,2.173c0.036,0.267,0.059,0.598,0.196,0.837c0.108,0.189,0.45,0.435,0.689,0.393
				c0.293-0.051,0.437-0.425,0.5-0.672c0.106-0.415,0.087-0.892,0.072-1.319c-0.022-0.635-0.095-1.272-0.159-1.904
				c-0.058-0.568-0.123-1.137-0.216-1.7c-0.111-0.672-0.191-1.379-0.513-1.985C127.584,103.174,126.734,103.457,126.713,103.968
				L126.713,103.968z"/>
		</g>
	</g>
	<g>
		<g>
			<path style="fill:#455A64;" d="M386.854,183.126c0.855-0.74,1.548-1.658,2.396-2.414c0.89-0.793,1.885-1.505,2.924-2.092
				c1.992-1.126,4.193-1.844,6.476-2.044c4.282-0.377,8.985,0.883,12.134,3.92c0.677,0.653,1.256,1.411,1.726,2.224
				c0.382,0.659,0.698,1.365,0.961,2.08c0.266,0.726,0.474,1.401,1.02,1.954c0.216,0.219,0.632,0.212,0.733-0.108
				c0.424-1.343-0.215-2.993-0.803-4.216c-0.457-0.953-1.039-1.848-1.743-2.637c-1.472-1.652-3.406-2.872-5.439-3.715
				c-4.861-2.018-10.474-1.796-15.11,0.716c-1.299,0.704-2.493,1.552-3.578,2.555c-0.959,0.886-2.167,2.024-2.593,3.291
				C385.786,183.152,386.515,183.42,386.854,183.126L386.854,183.126z"/>
		</g>
		<g>
			<path style="fill:#455A64;" d="M395.313,162.854c-0.143,0.62-0.08,1.299-0.052,1.932c0.021,0.465,0.041,0.93,0.062,1.395
				c0.042,0.938,0.051,1.884,0.138,2.818c0.08,0.86,1.453,0.782,1.447-0.061c-0.007-1.012-0.084-2.026-0.132-3.037
				c-0.023-0.481-0.041-0.962-0.069-1.443c-0.034-0.57-0.024-1.184-0.256-1.711C396.236,162.262,395.427,162.357,395.313,162.854
				L395.313,162.854z"/>
		</g>
		<g>
			<path style="fill:#455A64;" d="M408.399,164.324c-0.166,0.522-0.221,1.071-0.297,1.613c-0.068,0.489-0.136,0.977-0.199,1.467
				c-0.119,0.935-0.233,1.876-0.248,2.82c-0.014,0.89,1.433,0.738,1.463-0.103c0.034-0.952,0.131-1.901,0.246-2.847
				c0.06-0.492,0.125-0.982,0.19-1.473c0.066-0.493,0.163-0.988,0.079-1.482c-0.044-0.257-0.394-0.401-0.62-0.399
				C408.757,163.919,408.48,164.068,408.399,164.324L408.399,164.324z"/>
		</g>
	</g>
	<g>
		<polygon style="fill:#BA68C8;" points="423.138,252.794 411.544,272.359 399.345,266.421 390.357,281.845 385.246,279.05 
			387.765,291.92 400.087,288.056 395.74,285.261 401.951,276.359 414.856,282.711 431.937,260.765 		"/>
		<polygon style="opacity:0.8;fill:#FFFFFF;" points="423.138,252.794 411.544,272.359 399.345,266.421 390.357,281.845 
			385.246,279.05 387.765,291.92 400.087,288.056 395.74,285.261 401.951,276.359 414.856,282.711 431.937,260.765 		"/>
		<g>
			<path style="fill:#455A64;" d="M387.765,292.42c-0.089,0-0.178-0.023-0.256-0.07c-0.122-0.073-0.207-0.194-0.234-0.334
				l-2.519-12.87c-0.038-0.19,0.038-0.385,0.195-0.499c0.154-0.116,0.363-0.129,0.535-0.035l5,2.734
				c0.242,0.132,0.331,0.437,0.198,0.679s-0.436,0.332-0.679,0.198L385.942,280l2.207,11.275l10.77-3.377l-3.449-2.217
				c-0.114-0.074-0.193-0.19-0.22-0.324c-0.026-0.133,0.002-0.271,0.08-0.383l6.211-8.902c0.143-0.202,0.411-0.272,0.631-0.162
				l12.54,6.172l16.546-21.259l-8.002-7.248l-11.282,19.038c-0.133,0.224-0.416,0.308-0.649,0.194l-11.781-5.734l-7.288,12.506
				c-0.14,0.238-0.446,0.319-0.684,0.18c-0.238-0.139-0.319-0.444-0.18-0.684l7.522-12.906c0.132-0.226,0.417-0.312,0.65-0.197
				l11.784,5.735l11.359-19.168c0.076-0.129,0.207-0.217,0.355-0.239c0.15-0.022,0.299,0.024,0.41,0.124l8.8,7.971
				c0.193,0.175,0.22,0.471,0.059,0.677l-17.081,21.945c-0.147,0.189-0.405,0.246-0.615,0.142l-12.521-6.161l-5.668,8.124
				l3.911,2.514c0.163,0.105,0.251,0.295,0.225,0.487c-0.025,0.192-0.16,0.353-0.346,0.411l-12.322,3.864
				C387.866,292.413,387.815,292.42,387.765,292.42z"/>
		</g>
	</g>
	<g>
		<path style="fill:#455A64;" d="M336.137,79.011c-0.946-2.261-2.936-3.795-5.111-4.799c-2.381-1.1-5.012-1.734-7.616-1.995
			c-5.161-0.518-10.449,0.582-14.602,3.787c-3.544,2.735-6.06,6.897-6.14,11.444c-0.076,4.337,1.98,8.731,5.706,11.062
			c2.338,1.463,5.138,2.052,7.782,2.702c2.952,0.726,5.956,1.361,9.005,1.451c4.133,0.123,10.615-0.97,11.157-6.127
			c0.258-2.455-1.24-4.749-2.883-6.424c-1.765-1.799-3.963-3.229-6.262-4.246c-4.647-2.054-9.933-2.43-14.804-0.958
			c-4.757,1.438-9.195,4.55-11.77,8.854c-1.282,2.143-2.029,4.583-1.956,7.092c0.069,2.35,0.804,4.63,1.948,6.671
			c2.516,4.49,6.95,7.356,11.727,8.982c2.494,0.849,5.09,1.375,7.699,1.714c2.666,0.346,5.385,0.485,8.046,0.019
			c2.182-0.382,5.192-1.21,6.374-3.287c1.239-2.177-0.38-4.514-2.036-5.905c-1.878-1.576-4.392-2.518-6.752-3.078
			c-2.557-0.607-5.246-0.716-7.842-0.304c-4.529,0.719-8.832,3.091-11.405,6.961c-2.551,3.836-2.551,8.721,0.139,12.49
			c2.793,3.91,8.048,5.457,12.551,3.8c1.043-0.383,2.154-0.914,2.952-1.705c0.69-0.684,1.322-1.694,1.103-2.708
			c-0.24-1.109-1.332-1.482-2.301-1.749c-1.334-0.367-2.697-0.621-4.072-0.775c-2.799-0.313-5.698-0.198-8.45,0.421
			c-2.037,0.458-4.141,1.297-5.588,2.856c-1.455,1.568-1.919,3.776-1.173,5.788c0.723,1.948,2.417,3.393,4.493,3.667
			c2.001,0.264,4.103-0.513,5.353-2.115c0.122-0.157,0.083-0.357-0.043-0.498c-1.257-1.394-3.062-1.939-4.872-2.16
			c-1.677-0.205-3.494-0.345-5.159,0.021c-1.518,0.333-2.986,1.348-3.039,3.043c-0.065,2.072,1.682,3.622,3.047,4.921
			c0.153,0.146,0.239-0.162,0.129-0.266c-1.197-1.139-2.648-3.009-2.263-4.774c0.323-1.48,1.713-2.078,3.081-2.26
			c1.404-0.186,2.912-0.081,4.31,0.105c1.512,0.201,3.013,0.645,4.054,1.82c-0.014-0.166-0.029-0.332-0.043-0.498
			c-1.195,1.511-3.284,2.249-5.158,1.712c-1.895-0.543-3.157-2.41-3.272-4.336c-0.275-4.622,5.246-6.22,8.859-6.656
			c2.633-0.318,5.322-0.209,7.922,0.313c0.566,0.114,1.129,0.246,1.687,0.398c0.595,0.162,1.442,0.311,1.599,1.02
			c0.209,0.949-0.752,1.955-1.439,2.449c-3.532,2.54-8.786,2.167-11.967-0.746c-3.095-2.834-4.116-7.377-2.465-11.238
			c1.58-3.694,5.048-6.446,8.807-7.696c4.454-1.481,9.452-1.168,13.72,0.766c1.931,0.875,4.152,2.229,4.736,4.426
			c0.676,2.541-2.115,3.776-4.083,4.37c-2.322,0.701-4.778,0.78-7.182,0.606c-2.358-0.17-4.715-0.56-7.009-1.131
			c-4.415-1.1-8.818-3.099-11.829-6.617c-2.793-3.264-4.431-7.741-3.319-12.013c1.143-4.39,4.66-7.96,8.549-10.102
			c3.962-2.183,8.601-3.025,13.066-2.24c4.346,0.764,8.932,3.001,11.661,6.564c1.326,1.73,2.256,4.087,1.133,6.164
			c-0.931,1.72-2.848,2.665-4.672,3.127c-5.061,1.281-10.516-0.205-15.427-1.467c-2.281-0.586-4.623-1.265-6.48-2.781
			c-1.502-1.226-2.622-2.869-3.313-4.674c-1.444-3.775-0.977-7.948,1.149-11.369c5.142-8.273,16.541-9.474,24.857-5.684
			c1.88,0.857,3.64,2.088,4.563,3.994C335.517,79.649,336.368,79.565,336.137,79.011L336.137,79.011z"/>
	</g>
</g>
</svg>
